<?xml version="1.0" encoding="UTF-8"?><svg id="b" xmlns="http://www.w3.org/2000/svg" viewBox="0 0 39.83 50"><defs><style>.d{fill:#9b8dae;}</style></defs><g id="c"><path class="d" d="M32.61,15.28c0-3.18-1.08-8.69-16.25-8.66C1.18,6.64,0,12.16,0,15.34c0,.83,.49,1.62,1.37,2.33,0,0-.75,31.03,.09,31.72,.83,.69,28.68,.95,29.88-.06,1.2-1-.09-31.72-.09-31.72,.88-.72,1.36-1.51,1.36-2.34Zm-2.4,32.71c-1.04,.87-26.42,.85-27.39,.05-.96-.8-.08-30.45-.08-30.45-.83-.67-1.29-.95-1.29-1.73,0-3,.83-7.23,15.13-7.25,14.29-.03,14.82,4.2,14.83,7.2,0,.78-.46,1.06-1.28,1.74,0,0,1.13,29.58,.08,30.45ZM16.35,10.4c-13.04,.02-13.6,3.65-13.59,6.39,0,.72,.42,.9,1.18,1.51,0,0-.73,27.76,.08,28.43,.81,.67,24.1,.7,24.99-.05,.89-.75-.08-28.43-.08-28.43,.75-.62,1.17-.8,1.17-1.52,0-2.73-.7-6.36-13.74-6.34Zm5.91,6.83c.55-.53,1.23-.85,1.6-.72l.1,.08c.26,.29-.06,.91-.61,1.44-.61,.59-1.21,.99-1.66,.67-.45-.32-.05-.87,.57-1.46Zm-16.7-1.46l.21-.14c.76-.31,2.09,.4,3.12,1.46,1.15,1.19,1.88,2.28,.98,2.89-.9,.61-2.04-.22-3.19-1.4-1.03-1.06-1.56-2.27-1.12-2.81Zm4.96,18.01c-.43,1.54-1.04,2.75-2.22,2.52-1.17-.23-1.09-1.53-.66-3.08,.39-1.38,1.24-2.51,2.05-2.56l.27,.05c.8,.32,.94,1.69,.55,3.06Zm2.05-2.55c-.58-.11-.54-.75-.32-1.51,.19-.68,.61-1.23,1.01-1.26l.13,.03c.39,.16,.46,.83,.27,1.51-.21,.76-.51,1.35-1.09,1.24Zm2.05,3.52c-.61,.59-1.21,.99-1.66,.67-.45-.32-.05-.87,.57-1.46,.55-.53,1.23-.85,1.6-.72l.1,.08c.26,.29-.06,.91-.61,1.44Zm1.82-17.83c.45-1.62,1.45-2.93,2.39-2.99l.32,.06c.93,.37,1.1,1.97,.65,3.58-.5,1.8-1.22,3.21-2.59,2.94-1.37-.27-1.27-1.79-.77-3.59Zm1.97,27.77c-.21,.76-.51,1.35-1.09,1.24-.58-.11-.54-.75-.32-1.51,.19-.68,.61-1.24,1.01-1.26l.13,.03c.39,.16,.46,.83,.27,1.51Zm6.19-.5c-1.09,.74-2.47-.26-3.87-1.7-1.25-1.29-1.89-2.75-1.36-3.4l.25-.17c.92-.38,2.53,.49,3.78,1.77,1.4,1.44,2.28,2.77,1.19,3.5Zm3.04-3.08c-.52,.65-1.05,1.12-1.54,.84-.49-.27-.19-.86,.33-1.51,.46-.58,1.09-.98,1.47-.89l.11,.06c.3,.26,.09,.91-.38,1.49Zm7.09-26.64s1.3,30.44,.09,31.46c-.2,.17-1.12,.3-2.52,.4v-.88c.92-.09,1.33-.19,1.48-.31,1.05-.88-.08-30.75-.08-30.75,.83-.68,1.48-.96,1.48-1.75,0-1.98-1.48-5.95-6.62-7.36-1.33-.36-13.92-.57-18.5-.57-2.04,0-3.77,1.48-4.55,2.38l.2-1.12c.47-.77,2.31-2.34,4.51-2.34,4.69,0,17.54,.3,18.96,.71,5.39,1.53,6.91,5.67,6.91,7.78,0,.84-.49,1.64-1.37,2.36Zm3.72-3.31s1.31,30.68,.09,31.7c-.2,.17-1.13,.3-2.54,.41v-.89c.93-.09,1.3-.19,1.44-.31,1.06-.89-.09-30.99-.09-30.99,.84-.69,1.54-.97,1.54-1.77,0-2.07-1.75-6.18-7.24-7.62-1.4-.37-14.34-.57-18.11-.57-2.07,0-3.52,1.14-3.91,1.59l.21-1.13c.3-.37,1.97-1.58,3.81-1.58,3.88,0,17.32,.35,18.89,.81,5.72,1.7,7.28,5.8,7.29,7.96,0,.85-.49,1.65-1.38,2.38Z"/></g></svg>