<?xml version="1.0" encoding="UTF-8"?><svg id="b" xmlns="http://www.w3.org/2000/svg" viewBox="0 0 50 34.37"><defs><style>.d{fill:#689b85;}</style></defs><g id="c"><path class="d" d="M40.79,23.88l1.15-3.22c3.79-.52,6.02-3.01,5.77-5.65-.32-3.33-3.8-4.89-6.92-4.48l-1.46-2.23c4.42-.44,10.21,1.07,10.65,6.39,.34,4.08-3.79,8.44-9.19,9.19Zm-6.17,8.36H16.55c-.64,0-1.15,.2-1.15,.44v1.24c0,.24,.52,.44,1.15,.44h18.07c.64,0,1.15-.2,1.15-.44v-1.24c0-.24-.52-.44-1.15-.44ZM9.09,16.38c-1.51,.73-3.7-.11-5.06-2.62-1-1.85-.55-8.2-.55-8.2l-3.48-.1c3.88,3.27-.28,10.42,2.05,14.51,3.17,5.6,8.68,4.49,8.68,4.49,0,0-2.4-4.5-1.64-8.09Zm32.01,.77c0,7.83-6.94,14.18-15.51,14.18s-15.51-6.35-15.51-14.18c0-4.27,2.06-8.09,5.32-10.69v-2.33c0-.64,.52-1.15,1.15-1.15h6.66c-.08-.23-.13-.47-.13-.72,0-1.24,1.12-2.25,2.51-2.25s2.51,1.01,2.51,2.25c0,.25-.05,.49-.13,.72h6.66c.64,0,1.15,.52,1.15,1.15v2.33c3.26,2.6,5.32,6.43,5.32,10.69Zm-22.59,7.86s-3.37-2.6-3.3-7.38c.06-4.12,2.56-7.59,2.56-7.59,.33-.65,.05-1.33-.58-1.33-.63,0-1.57,.52-2.19,1.6,0,0-2.18,3.25-2.23,7.37-.05,4.29,3.11,7.57,3.11,7.57,.71,.95,1.75,1.29,2.39,1.13,.65-.15,.64-.96,.23-1.37Z"/></g></svg>