<?xml version="1.0" encoding="UTF-8"?><svg id="b" xmlns="http://www.w3.org/2000/svg" viewBox="0 0 32.74 50"><defs><style>.d{fill:#88b1ae;}</style></defs><g id="c"><path class="d" d="M19.73,47.27c0-.74-.79-1.47-1.45-1.87,.02-.07,.03-.14,.03-.22,0-.2-.08-.39-.21-.54l-.33-12.62c.58-.7,.81-3.29,.81-3.29,6.01-6.48,14.16-17.91,14.16-17.91H12.21c-.09-.59-.3-1.2-.65-1.78-.99-1.66-2.7-2.5-4.01-2.05L3.37,0l-.99,.58L6.55,7.56c-.81,.68-1.07,1.96-.71,3.26H0s8.65,11.63,14.18,17.83c0,0,.26,2.72,.87,3.37l-.31,12.6c-.15,.16-.23,.35-.23,.56,0,.08,.01,.15,.04,.22-.65,.4-1.4,1.09-1.4,1.82,0,.06-4.44,1.41-4.44,1.41l-2.06,.43v.92H26.29v-.92l-2.16-.43s-4.4-1.3-4.4-1.38Zm-5.33-20.48C9.58,21.45,2.38,11.75,2.38,11.75h3.81c.06,.13,.12,.25,.19,.38,1.02,1.7,2.78,2.54,4.1,2.02l.56,.94c-.98,.77-1.12,2.44-.33,3.95h-1.27c1.75,2.27,3.68,4.69,5.25,6.48h3.37c1.69-1.85,3.62-4.25,5.33-6.49h-7.18c.08-.79-.11-1.71-.62-2.56-.87-1.46-2.36-2.23-3.53-1.92l-.6-1c.47-.43,.72-1.08,.78-1.8H30.56s-6.95,9.46-12.2,15.05h-3.95Z"/></g></svg>