<?xml version="1.0" encoding="UTF-8"?><svg id="b" xmlns="http://www.w3.org/2000/svg" viewBox="0 0 50 46.92"><defs><style>.d{fill:#8e9c63;}</style></defs><g id="c"><path class="d" d="M47.23,7.65L1.1,16.46S16.91,3.86,17.51,3.4C20.25,1.29,28.68-1.11,33.53,.56c5.77,1.98,12.63,5.01,14.54,6.39,.18,.13-.84,.7-.84,.7Zm2.77,27.41c.04,1.43-1.37,2.37-2.47,2.6-1.73,.35-47.53,9.26-47.53,9.26V18.73L48.94,9.23l.95-.59s.08,25.44,.11,26.43ZM26.17,16.23c0,1.11,.95,2.02,2.12,2.02s2.12-.9,2.12-2.02-.95-2.02-2.12-2.02-2.12,.9-2.12,2.02ZM7.37,33.69c0-1.11-.95-2.02-2.12-2.02s-2.12,.9-2.12,2.02,.95,2.02,2.12,2.02,2.12-.9,2.12-2.02Zm5.75-5c2.29,0,4.15-1.77,4.15-3.95s-1.86-3.95-4.15-3.95-4.15,1.77-4.15,3.95,1.86,3.95,4.15,3.95Zm4.71,11.02c0-1.11-.95-2.02-2.12-2.02s-2.12,.9-2.12,2.02,.95,2.02,2.12,2.02,2.12-.9,2.12-2.02Zm14.43-9.05c0-2.18-1.86-3.95-4.15-3.95s-4.15,1.77-4.15,3.95,1.86,3.95,4.15,3.95,4.15-1.77,4.15-3.95Zm8.24,3.22c0-1.11-.95-2.02-2.12-2.02s-2.12,.9-2.12,2.02,.95,2.02,2.12,2.02,2.12-.9,2.12-2.02Zm3.66-15.47c0-2.18-1.86-3.95-4.15-3.95s-4.15,1.77-4.15,3.95,1.86,3.96,4.15,3.96,4.15-1.77,4.15-3.96Z"/></g></svg>