<?xml version="1.0" encoding="UTF-8"?><svg id="b" xmlns="http://www.w3.org/2000/svg" viewBox="0 0 40 50"><defs><style>.d{fill:#80bbb8;}</style></defs><g id="c"><path class="d" d="M40,31.28c0-8.24-12.9-9.36-15.82-17.62-.64-1.8,.77-8.85,1.69-12.1-2.07-.04-3.59,3.82-3.59,3.82,0,0-.9-4.51-1.86-5.38-.96,1.03-1.75,5.34-1.75,5.34,0,0-2.61-3.98-4.47-3.78,1.85,4.56,2.85,10.16,2.14,11.85C13.07,21.27,0,22.39,0,31.28c0,3.93,3.08,9.96,15.42,11.27-.36,.22-.71,.48-1,.8-1.95,2.2-1.47,5.12-.87,5.18,.61,.06-.19-2.29,1.42-4.12,.29-.33,.82-.83,1.37-1.32,.15,.3,.49,.51,.89,.51,.35,0,.66-.17,.83-.42,.17,.25,.48,.42,.83,.42s.66-.17,.83-.42c.17,.25,.48,.42,.83,.42,.25,0,.49-.09,.66-.23,.44,.78,1,1.82,1.21,2.38,.78,2.11-.94,4.17-.34,4.25,.6,.09,2.25-2.58,1.29-5.13-.19-.51-.53-.94-.91-1.3,.17-.04,.32-.12,.44-.23,.08,.05,.16,.1,.23,.14,2.22,1.42,2.33,3.84,2.89,3.66,.45-.15,.14-2.01-1.36-3.63,.72,.21,1.42,.42,1.84,.58,2.6,1,3.44,3.34,3.93,3.07,.49-.27-1-3-4.14-4.19-.48-.18-.98-.29-1.46-.34,0,0,0,0,0,0,0,0,0,0,0,0,13.42-1.06,15.16-7.29,15.16-11.36Zm-24.85,3.82c-.09,1.37,.25,4.31,1.56,5.97-2.95-2.03-4.75-5.36-4.18-7.26,.65-2.17,5.41-8.06,5.41-8.06,0,0-2.62,6.96-2.78,9.36Zm-.16-10.47c-2.19,2-5.41,3.82-5.73,7.08-.33,3.26,1.64,5.79,5.57,9.23-9.25-3.69-11.43-8.63-10.32-11.27,1.06-2.52,4.52-5,7.29-6.22,3.36-1.48,6.96-8.19,6.96-8.19,0,0-.74,6.59-3.77,9.36Zm8.11-5.87s2.38,5.54,5.65,7.96c2.5,1.85,5.06,3.06,5.49,5.73,.59,3.65-1.38,7.39-9.11,9.23,4.24-2.22,7.12-5.59,6.86-8.21-.26-2.62-2.02-4.21-3.88-5.75-3.94-3.27-5.01-8.97-5.01-8.97Z"/></g></svg>