<?xml version="1.0" encoding="UTF-8"?><svg id="b" xmlns="http://www.w3.org/2000/svg" viewBox="0 0 50 50"><defs><style>.d{fill:#a17b9e;}</style></defs><g id="c"><path class="d" d="M21.15,39.84c-.1-.51-.17-1.03-.21-1.54l15.91-4.07c.23-1.23,.35-2.5,.35-3.81,0-8.71-5.11-15.99-12.59-18.52-.14,.15-1.57,1.37-2.37,1.42-.31,.02-.38,0-.64-.08,.04,1.31-1.4,3.33-1.4,3.33,0,0-1.89-1.58-2.11-2.66-.19,.13-.32,.21-.46,.25-.92,.3-3.12-.36-3.12-.36,0,0,.24-1.86,1.3-2.73C6.95,12.39,0,20.44,0,30.43c0,10.79,8.33,19.55,18.6,19.55,2.91,0,5.67-.7,8.12-1.96-2.82-1.94-4.89-4.83-5.57-8.17ZM6.59,19.49c.61-.38,1.3-.33,1.55,.12,.24,.44-.06,1.11-.67,1.49-.61,.38-1.3,.33-1.55-.12-.24-.44,.06-1.11,.67-1.49Zm-1.99,4.08c.61-.38,1.3-.33,1.55,.12,.24,.44-.06,1.11-.67,1.49-.61,.38-1.3,.33-1.55-.12-.24-.44,.06-1.11,.67-1.49Zm-.47,5.63c-.57,.36-1.22,.31-1.45-.11-.23-.42,.05-1.05,.63-1.4,.57-.36,1.22-.31,1.45,.11,.23,.42-.05,1.05-.63,1.4Zm2.69,3.13c-.57,.36-1.22,.31-1.45-.11-.23-.42,.05-1.05,.63-1.4,.57-.36,1.22-.31,1.45,.11,.23,.42-.05,1.05-.63,1.4Zm1.39-4.34c-.61,.38-1.3,.33-1.55-.12-.24-.44,.06-1.11,.67-1.49,.61-.38,1.3-.33,1.55,.12,.24,.44-.06,1.11-.67,1.49Zm1.66-3.89c-.61,.38-1.3,.33-1.55-.12-.24-.44,.06-1.11,.67-1.49,.61-.38,1.3-.33,1.55,.12,.24,.44-.06,1.11-.67,1.49Zm.93-6.42c-.61,.38-1.3,.33-1.55-.12-.24-.45,.06-1.11,.67-1.49,.61-.38,1.3-.33,1.55,.12,.24,.44-.06,1.11-.67,1.49Zm.48,2.83c-.24-.44,.06-1.11,.67-1.49,.61-.38,1.3-.33,1.55,.12,.24,.44-.06,1.11-.67,1.49-.61,.38-1.3,.33-1.55-.12Zm2.67,4.41c-.61,.38-1.3,.33-1.55-.12-.24-.44,.06-1.11,.67-1.49,.61-.38,1.3-.33,1.55,.12,.24,.44-.06,1.11-.67,1.49Zm3.26-3.9c-.61,.38-1.3,.33-1.55-.12-.24-.44,.06-1.11,.67-1.49,.61-.38,1.3-.33,1.55,.12,.24,.44-.06,1.11-.67,1.49Zm32.55,12.28c-.1-.47-.22-.93-.38-1.37l-26.88,6.81c.03,.47,.1,.95,.2,1.42,1.36,6.62,8.71,11.32,16.18,9.43,7.47-1.89,12.25-9.66,10.89-16.28Zm-15.61,2.48c.42,.78,1.31,1.21,2.2,.99,.89-.23,1.52-1.04,1.6-1.95l.61-.16c-.02,1.26-.86,2.41-2.08,2.72-1.22,.31-2.43-.32-2.94-1.45l.62-.16Zm-9.49,4.94c-.27-.58-.43-1.25-.49-1.85l8.52-2.16c-.05,1.38-5.27,6.12-5.86,6.17-.31,.03-1.55-.87-2.16-2.17Zm8.46,6.22c-.24,.22-1.77,.29-3.01-.35-1.24-.64-2.29-2.04-2.17-2.4,.23-.71,5.31-6.43,6.34-5.89,1.03,.54-.68,8.2-1.16,8.64Zm5.3,.6c-1.37,.33-2.83-.09-3.01-.36-.35-.53,.01-8.35,1.15-8.64,1.14-.29,4.56,6.45,4.59,7.19,.02,.37-1.37,1.48-2.74,1.81Zm6.99-4.83c-.87,1.17-2.27,1.85-2.57,1.76-.6-.16-5.14-6.24-4.43-7.23,.71-.98,7.54,1.73,8.02,2.25,.24,.26-.16,2.03-1.02,3.21Zm1.73-4.97c-.56,.24-7.12-1.52-7.7-2.74l8.52-2.16c.18,.57,.3,1.25,.28,1.9-.04,1.46-.81,2.87-1.1,2.99ZM15.89,13.01s.22-1.2,1.06-2.15c-.5-.69-.25-2.34-.25-2.34,0,0,1.57,.49,2.21,.89,0-1.18,.4-2.77,.67-3.64,.12-.39,.36-.9,.6-1.36,0,0,0-.01-.01-.02,.17-.36,.37-.71,.6-1.06,.09-.16,.15-.26,.15-.26,0,0,.02,0,.03,0C22.15,1.43,24.15,.06,27.41,0c4.12-.07,10.89,3.36,11.2,3.85-1.33,2.51-5.93,4.81-10.22,4.63-3.47-.14-5.96-1.18-7.47-3.01-.09,.27-.18,.56-.26,.89-.2,.77-.44,2.46,.18,3.39,.16-.04,.64,0,.87,.05,.67,.18,1.83,1.52,1.83,1.52,0,0-1.13,1.28-1.97,1.23-.27-.02-.48-.09-.64-.2,.04,.1,.06,.22,.08,.35,.12,.93-1.02,2.3-1.02,2.3,0,0-1.37-.97-1.49-1.91,0-.05-.02-.27-.03-.32-.1,.13-.3,.33-.48,.43-.72,.4-2.09-.2-2.09-.2Z"/></g></svg>