<?xml version="1.0" encoding="UTF-8"?><svg id="b" xmlns="http://www.w3.org/2000/svg" viewBox="0 0 50 40"><defs><style>.d{fill:#888ca3;}</style></defs><g id="c"><path class="d" d="M48.74,20.29c-.8-1.69-1.93-3.2-3.38-4.49-2.93-2.63-6.82-4.07-10.95-4.07-2.25,0-4.43,.45-6.42,1.27-.59-4.25-2.65-7.79-6.73-9.84,.05-.1,.09-.21,.12-.32,.22-.86-.26-1.75-1.07-1.99L17.56,.06c-.82-.24-1.66,.27-1.88,1.13-.03,.11-.05,.22-.05,.34C7.9,.79,3.17,6.93,.99,15.33c-2.44,9.4-.68,18.11,8.69,20.81,4.92,1.42,8.82,.29,11.78-2.46,.59,.8,1.26,1.56,2.03,2.24,2.92,2.63,6.8,4.07,10.93,4.07s8.02-1.45,10.95-4.07c1.44-1.29,2.58-2.8,3.38-4.49,.83-1.76,1.26-3.64,1.26-5.57s-.42-3.81-1.26-5.57ZM11.18,10.87c-.62,1.51-3.29,4.3-4.56,3.93-1.28-.37-1.26-3.74-.07-6.12,1.19-2.37,5.37-4.96,6.59-4.01,1.24,.96-1.33,4.69-1.95,6.2Zm23.24,27.42c-4.98,0-9.35-2.3-11.85-5.75-1.39-1.93-2.21-4.21-2.21-6.67,0-4.86,3.18-9.08,7.79-11.11,1.89-.83,4.01-1.31,6.26-1.31,7.76,0,14.08,5.57,14.08,12.42s-6.32,12.42-14.08,12.42Zm2.53-18.36s-.48-.9-.25-1.71c.23-.81,.71-1.36,1.07-1.23,.36,.13,.48,.9,.25,1.71-.23,.81-1.07,1.23-1.07,1.23Zm3.6,3.26s.31-.99,1.01-1.3c.7-.31,1.37-.23,1.51,.17,.14,.41-.31,.99-1.01,1.3-.69,.31-1.51-.17-1.51-.17Zm-5.45,10.46c0,.85-.31,1.54-.69,1.54s-.69-.69-.69-1.54,.69-1.54,.69-1.54c0,0,.69,.69,.69,1.54Zm7.21-8.84c-.51,0-.94,.36-1.17,.59-.12-1.5-.8-2.89-1.96-3.95,.09-.01,.92-.13,1.33-.79,.44-.69,.54-1.46,.23-1.71-.31-.26-.92,.1-1.35,.79-.41,.64-.26,1.56-.23,1.69-.01,0-.02-.02-.03-.03-1.26-1.13-2.93-1.75-4.7-1.75,.09-.1,.67-.74,.67-1.52,0-.85-.31-1.54-.69-1.54s-.69,.69-.69,1.54c0,.79,.59,1.43,.68,1.52-.9,0-1.78,.17-2.59,.49,.07-.16,.42-.96,.2-1.68-.24-.8-.73-1.34-1.09-1.2s-.46,.91-.21,1.71c.22,.73,.93,1.12,1.07,1.19-.74,.29-1.43,.71-2.02,1.24,0-.28-.05-1.05-.49-1.52-.47-.52-1.03-.76-1.34-.6-.04,.02-.08,.05-.11,.09-.15,.17-.14,.47-.03,.8,.1,.27,.27,.57,.51,.84,.42,.46,1.06,.51,1.33,.51-.62,.59-1.11,1.27-1.43,2.01-.09-.28-.34-.93-.85-1.23,0,0-.02-.01-.03-.02-.67-.37-1.35-.36-1.51,.04-.17,.39,.24,1.01,.91,1.38,.08,.04,.16,.08,.25,.1,.47,.14,.96-.01,1.16-.09-.26,.66-.41,1.36-.42,2.08-.21-.22-.65-.61-1.16-.63-.02,0-.03,0-.05,0-.74,0-1.35,.35-1.35,.79,0,.33,.35,.61,.84,.73,.16,.04,.32,.06,.5,.06,.54,0,1.01-.42,1.22-.64,.03,.79,.21,1.55,.53,2.25-.05-.03-.83-.47-1.5-.17-.69,.31-1.14,.89-1,1.3,.14,.41,.81,.48,1.51,.17,.68-.3,.99-1.24,1-1.29,.3,.64,.72,1.23,1.25,1.76-.27,.06-.88,.24-1.21,.76-.44,.69-.54,1.46-.23,1.71,.31,.25,.91-.1,1.35-.79,.32-.51,.29-1.19,.26-1.52,.02,.02,.05,.05,.07,.07,.61,.55,1.32,.98,2.09,1.27-.09,.05-.84,.46-1.05,1.22-.23,.81-.11,1.58,.25,1.71,.36,.13,.84-.42,1.07-1.23,.21-.76-.18-1.58-.24-1.69,.81,.31,1.68,.47,2.58,.47s1.79-.17,2.61-.48c-.1,.23-.38,.96-.18,1.63,.24,.8,.73,1.34,1.1,1.2,.36-.14,.46-.91,.21-1.71-.2-.67-.82-1.05-1.03-1.16,.73-.29,1.4-.7,1.99-1.23,.03-.03,.06-.06,.09-.09,0,.26,.04,1.06,.49,1.55,.54,.59,1.19,.82,1.45,.51,.27-.31,.05-1.05-.49-1.64-.44-.48-1.11-.52-1.36-.51,1.19-1.16,1.85-2.66,1.85-4.28,0-.02,0-.03,0-.05,.24,.23,.66,.57,1.15,.57,.75,0,1.35-.35,1.35-.79s-.61-.79-1.35-.79Zm-4.12,4.18c-1,.9-2.34,1.39-3.77,1.39s-2.77-.49-3.77-1.39c-.94-.85-1.47-1.96-1.47-3.12s.52-2.27,1.47-3.12c1-.9,2.34-1.39,3.77-1.39s2.77,.49,3.77,1.39c.95,.85,1.47,1.96,1.47,3.12s-.52,2.27-1.47,3.12Zm5.03,.37c-.17,.39-.85,.41-1.52,.04-.67-.37-.91-1.38-.91-1.38,0,0,.85-.41,1.52-.04,.67,.37,1.08,.99,.91,1.38Z"/></g></svg>