<?xml version="1.0" encoding="UTF-8"?><svg id="b" xmlns="http://www.w3.org/2000/svg" viewBox="0 0 40 50"><defs><style>.d{fill:#75bfc2;}</style></defs><g id="c"><path class="d" d="M13.68,46.51c5.15-.54,8.63-3.05,9.55-5.41,1.87-4.78-3.86-6.68-2.98-11.61,.72-4.05,3.36-6.18,4.72-6.73-.57-.07-1.56,.15-2.41,.39,2.47-2.64,6.44-5.57,11.39-8.86,4.38-2.91,6.75-6.95,5.85-7.17-.9-.21-5.02,3.9-8.36,6.01-3.31,2.09-6.7,4.2-9.22,6.34,.06-.12,.12-.24,.17-.34,3.9-7.03,7.65-16.55-1.78-19.13,4.64,2.79,2.34,10.38-1.27,18.42-.46-1.58-.82-3.29-1.13-5.11-.61-3.62-4.25-7.42-5.21-7.29-.96,.13,1.45,4.56,1.78,7.24,.33,2.76,.63,5.58,1.7,8.08-.03,3.79-1.13,6.69-1.88,7.61-3.59,4.39-9.55,4.64-11.56,9.79-.89,2.28-1.08,5.8,5.45,7.22-.25,.11-.5,.24-.73,.41-1.58,1.17-2.53,2.44-2.21,2.51,.32,.07,.97-.89,2.27-1.87,.23-.17,.64-.44,1.06-.69,.02,.18,.16,.32,.37,.34,.2,.02,.4-.06,.55-.2,.04,.15,.17,.27,.36,.29,.19,.02,.4-.06,.55-.2,.04,.15,.17,.27,.36,.29,.14,.01,.29-.03,.42-.1,.07,.47,.14,1.11,.13,1.44-.05,1.27-.98,1.72-.66,1.8,.31,.08,1.34-.73,1.39-2.26,0-.31-.08-.58-.21-.8,.1-.01,.2-.05,.29-.11,.04,.03,.07,.06,.09,.09,.91,.94,.42,2.35,.77,2.28,.28-.06,.53-1.16,.07-2.18,.35,.16,.69,.32,.89,.43,1.21,.72,1.2,1.42,1.53,1.29,.33-.13,.07-1.09-1.39-1.95-.23-.13-.48-.22-.73-.27,0,0,0,0,0,0h0Zm-1.37-10.97c-1.66,1.04-3.86,1.93-4.78,3.8-.92,1.88-.41,3.44,.99,5.65-4.28-2.63-4.37-5.61-3.15-7.08,1.16-1.41,3.64-2.66,5.44-3.22,2.19-.68,3.81-.6,1.5,.85Zm18.49,9s0,0,0,0c0,0,0,0,0,0,.2,0,.42,.02,.66,.07,1.52,.35,2.77,1.44,2.65,1.59-.13,.15-1.03-.82-2.29-1.11-.21-.05-.53-.1-.86-.15,.98,.62,1.56,1.41,1.42,1.49-.18,.11-.81-.93-2.03-1.42-.04-.02-.08-.03-.12-.05-.02,.05-.06,.09-.12,.12,.24,.13,.48,.3,.67,.51,1,1.05,.66,1.3-.16,.43-.22-.23-.69-.65-1.05-.96-.03,.07-.1,.12-.2,.14-.14,.02-.3-.04-.43-.14,0,.12-.08,.21-.22,.23-.14,.02-.3-.04-.43-.14,0,.12-.09,.21-.22,.23-.16,.02-.34-.05-.47-.17-.1,.24-.18,.49-.22,.64-.19,.88,.7,1.85,.45,1.86-.25,0-1.15-1.23-.92-2.28,.03-.15,.11-.29,.2-.4-1.89,.04-3.37-.14-4.54-.47,1.5-.96,2.52-2.12,2.96-3.24,1.85-4.72-3.72-6.63-3.01-11.43,.2,.61,.54,1.28,1.1,2,2.75,3.5,8.93,4.3,10.94,7.87,.99,1.76,1.27,3.61-3.74,4.79ZM4.93,21.27C1.46,19.12-.54,16.08,.13,15.91c.67-.17,4.01,2.89,6.65,4.45,1.74,1.03,3.51,2.07,5.1,3.11-.87-2.37-2.47-5.07-4.54-8.08-2.21-3.22-1.95-7.14-1.02-7.2,.93-.06,2.2,4.18,3.95,6.54,1.64,2.21,3.34,4.45,4.37,6.6-.12,2.95-.87,5.29-1.52,6.47-.51-.61-1.09-1.26-1.77-1.93,.09-.02,.23-.02,.39,.02-1.84-1.43-4.14-2.96-6.8-4.61Z"/></g></svg>