<?xml version="1.0" encoding="UTF-8"?><svg id="b" xmlns="http://www.w3.org/2000/svg" viewBox="0 0 50 50"><defs><style>.d{fill:#79bd92;}</style></defs><g id="c"><path class="d" d="M50,12.03l-.25-.67c-.75,1.33-2.28,.67-2.81,1.46-.77-.72-2.74,.04-4.42,1.34-.98,.75-2.99,.89-3.58,.74-.86-.21-1.54-1.07-1.54-1.07,0,0-.16,1.16,.12,1.86-4.83-1.37-9.53,1.13-12.86-2.35-.4-.42-.73-.87-1.02-1.34h.02s-.04-.04-.06-.06c-.74-1.25-1.08-2.68-.97-4.14,.16-2.04,1.17-3.92,2.86-5.28,1.33-1.07,3.02-1.61,4.77-1.51s3.35,.81,4.5,2.01c1.86,1.95,1.63,4.94-.51,6.67-.81,.65-1.84,.98-2.91,.92-1.07-.06-2.04-.49-2.75-1.23-1.12-1.17-.98-2.97,.31-4.01,.48-.39,1.09-.58,1.72-.55,.63,.03,1.21,.29,1.62,.73,.65,.68,.57,1.71-.18,2.32-.55,.44-1.39,.4-1.86-.1-.17-.17-.25-.4-.23-.63,.02-.23,.13-.44,.32-.6l-.71-.75c-.41,.33-.66,.79-.7,1.29-.04,.5,.14,.98,.49,1.35,.87,.91,2.39,.99,3.4,.18,1.2-.97,1.33-2.64,.29-3.73-.61-.63-1.45-1.01-2.37-1.06-.92-.05-1.81,.23-2.51,.8-1.21,.97-1.67,2.43-1.34,3.77,.15,.6,.45,1.17,.92,1.66,.89,.93,2.13,1.49,3.49,1.56,1.36,.07,2.67-.34,3.7-1.17,2.6-2.1,2.88-5.72,.62-8.08-2.77-2.9-7.61-3.16-10.8-.59-1.9,1.53-3.05,3.65-3.23,5.96-.8-1.61-2.12-3.22-5.17-4.12-1.07-.32-2.14-.46-3.16-.32-.6,.08-1.19,.24-1.73,.49-1.46,.67-2.46,1.87-2.83,3.37-.61,2.52,.65,4.94,3.49,5.87,2.31,.76,4.6-.29,5.1-2.34,.2-.81-.09-1.88-.64-2.64-.71-.96-1.96-1.3-2.62-1.3-.6,0-1.06,.6-.16,.65,.77,.04,1.7,.33,2.15,.94,.45,.59,.7,1.47,.54,2.11-.41,1.69-2.3,2.56-4.21,1.93-1-.33-1.65-.77-2.3-1.78-.65-1.02-.87-2.15-.62-3.2,.32-1.33,1.21-2.39,2.5-2.98,1.29-.59,2.8-.59,4.32-.15,4.7,1.37,4.92,4.91,5.81,6.88,.39,1.04,.99,2.01,1.8,2.86,3.93,4.12,9.04,.99,15.23,2.86-2.14,.51-4.31,.4-8.41,.39-7.07-.03-15.73,1.95-22.09,7.73-14.61,13.3-6.14,25.02-6.14,25.02,0,0,2.27-4.17,5.59-5.36,1.96-.7,8.72-4.32,15.24-8.73,7.94-5.37,12.56-10.84,14-13.56,.61-1.15,1.81-2.06,2.83-3.39-.02,.22-.03,.45,0,.67,.1,.64,1.52,1.93,1.52,1.93,0,0-.28-.87,.2-1.85,.56-1.15,2.01-2.34,2.76-2.7,1.81-.86,3.14-2.38,2.82-3.5,.59-.58,2.07-.53,2.6-1.48Zm-30.92,15.38s.04,.06,.07,.09c0,0-.02,.01-.03,.02-.01-.03-.03-.07-.04-.1Zm7.79-4.39c-.19-1.11,.56-2.16,1.68-2.36,.95-.17,1.85,.34,2.23,1.17-1.26,.45-2.53,.95-3.82,1.51-.04-.1-.07-.21-.09-.32Zm6.95-2.21c-.49,.15-.99,.31-1.49,.48-.04-.74,.47-1.41,1.23-1.54,.62-.11,1.22,.18,1.53,.68-.39,.12-.8,.24-1.27,.39Zm-14.13,6.33c-.39-.51-.62-1.15-.59-1.84,.07-1.6,1.43-2.84,3.05-2.78,1.19,.05,2.19,.79,2.6,1.82-1.69,.82-3.39,1.75-5.06,2.79Zm-6.48,4.8c-.2,.18-.38,.35-.57,.52-1-.58-1.65-1.65-1.6-2.87,.08-1.76,1.59-3.14,3.37-3.07,1.38,.05,2.51,.95,2.93,2.17-1.4,.99-2.79,2.06-4.13,3.24Zm-5.87,6.08c-1.29-.31-2.22-1.49-2.16-2.85,.07-1.56,1.4-2.77,2.98-2.71,1.18,.05,2.17,.79,2.56,1.82-1.32,1.31-2.44,2.56-3.38,3.74Zm-3.7,5.94c-.83-.41-1.39-1.28-1.35-2.26,.06-1.34,1.2-2.38,2.56-2.33,.44,.02,.84,.16,1.19,.37-1.09,1.56-1.86,2.97-2.41,4.22ZM35.99,20.14c-.35-.96-1.35-1.55-2.4-1.37-1.1,.19-1.85,1.17-1.78,2.24-.54-1.2-1.85-1.93-3.23-1.69-1.63,.28-2.72,1.81-2.44,3.42,.02,.1,.05,.18,.08,.27-.66-1.33-2.01-2.28-3.62-2.34-2.34-.09-4.32,1.71-4.42,4.02-.02,.56,.07,1.09,.25,1.58-.82-1.05-2.08-1.74-3.52-1.79-2.59-.1-4.78,1.89-4.89,4.45-.04,.83,.15,1.61,.51,2.3-.57-.33-1.22-.55-1.93-.58-2.29-.09-4.22,1.67-4.32,3.93-.06,1.34,.55,2.54,1.53,3.33-.19-.04-.37-.07-.57-.08-1.97-.07-3.63,1.44-3.71,3.38-.06,1.41,.73,2.65,1.92,3.25-.76,1.87-1,3.32-1.05,4.27-.49-1.65-1.66-6.06-1.16-8.81,.74-4.06,3.26-9.37,8.76-13.99,7.21-6.07,17.76-6.71,20.85-7.11,3.12-.41,5.61,.58,8.73-.69-1.42,1.13-2.4,1.62-3.59,2.03Zm10.72-5.6c-.12,.46-.79,1.32-1.55,1.66-1.12,.5-1.6,.73-2.1,1-.52,.29-1.56,1.22-1.78,1.62-.32,.59-.33,.87-.33,.87,0,0-.21-.63,.05-1.27,.26-.63,.49-1.14,1.69-1.96,1.21-.82,2.56-1.35,3.45-2.19,.29-.27,.51-.83,.64-.79,.13,.04,.03,.62-.07,1.05Z"/></g></svg>