<?xml version="1.0" encoding="UTF-8"?><svg id="b" xmlns="http://www.w3.org/2000/svg" viewBox="0 0 50 42.6"><defs><style>.d{fill:#99806b;}</style></defs><g id="c"><path class="d" d="M0,31.17c.59-6.25,9.39-10.16,18.51-10.1,6.82,.05,14.19,2.77,16.64,6.18-1.55-.43-5.47-3.04-8.94-2.15-4.95,1.27-7.93,7.43-14.88,8.08-7.33,.68-10.81-1.74-11.33-2.01Zm35.61-2.91c-.62-.31-2.4-.86-6.33-.35-9.26,1.18-12.06,9.37-19.37,9.66C3.35,37.83,1.21,34.34,0,32.42c.29,5.58,8.41,10.1,18.42,10.17,10.22,.07,18.54-4.52,18.58-10.25,0-1.18-.4-2.92-1.39-4.09ZM39.45,0c-1.3,1.42-2.7,6.01-1.92,10.98,.77,4.93,7.02,10.92,8.37,16.01,.95,3.58-1.72,7.64-2.15,9.24,3.5-2.55,6.25-10.18,6.25-17.21,0-9.41-4.1-18.47-10.55-19.02Zm-5.73,9.35c-.31-5.13,2.47-8.08,4.43-9.34-5.75,.34-10.36,8.75-10.36,19.08,0,.65,.02,1.3,.05,1.93,6.77,1.72,11.51,5.72,11.51,10.39,0,2.33-1.19,4.5-3.22,6.3,.76,.31,1.56,.47,2.37,.47,1.22,0,3.01-.43,4.21-1.47,.32-.64,.87-2.48,.32-6.53-1.29-9.55-8.83-12.75-9.32-20.83Z"/></g></svg>