<?xml version="1.0" encoding="UTF-8"?><svg id="b" xmlns="http://www.w3.org/2000/svg" viewBox="0 0 50 50"><defs><style>.d{fill:#95708c;}</style></defs><g id="c"><path class="d" d="M43.01,11.87c-4.52-1.63-9.23,1.5-16.12,1.07-1.65-1.82-4.14-5.51-4.43-6.68,2.76,2.63,7.18,3.78,11.46,3.37,2.54-.25,5.88-2.63,6.83-4.33C36.75,3.63,36.03,.38,29.06,.01c-4.89-.26-7.16,3.57-7.47,4.41,0,0-.22-1.59-.61-1.51,0,0-1.8,.63-1.8,.63-1.29,.51,2.27,6.94,4.95,9.2-6.47,.48-9.94-3.06-16.95-.89C-.72,14.32-.88,22.16,.97,29.49c2.7,10.7,8,17.07,14.77,19.58,1.9,.71,7.18-2.33,9.37-2.33s7.45,2.96,9.4,2.32c7.83-2.57,11.87-9.66,14.49-19.97,1.86-7.36,1.8-14.42-5.98-17.23Zm-24.46,4.01c-2.03-.12-4.86-.31-5.73,1.41-.79,1.56,1.26,3.78,1.81,5.88,.58,2.2,.51,6.49-4.35,6.68-4.86,.18-6.79-5.34-6.24-10.04,.51-4.35,5.66-6.37,8.78-6.37s4.15,.94,5.95,1.1c2.03,.18,5.8-.49,5.8-.49-.8,.86-3.99,1.96-6.02,1.84Zm10.03,33.44c.66,.88-7.18,.96-6.63,0,.55-.96,1.95-1.51,3.3-1.51s2.66,.61,3.33,1.51Z"/></g></svg>