<?xml version="1.0" encoding="UTF-8"?><svg id="b" xmlns="http://www.w3.org/2000/svg" viewBox="0 0 50 35"><defs><style>.d{fill:#859894;}</style></defs><g id="c"><path class="d" d="M48.57,11.06H1.43c-.79,0-1.43,1.22-1.43,2.73s.64,2.73,1.43,2.73H5.84v13.27c0,2.87,2.33,5.2,5.2,5.2h28.45c2.87,0,5.2-2.33,5.2-5.2v-13.27h3.86c.79,0,1.43-1.22,1.43-2.73s-.64-2.73-1.43-2.73ZM15.53,28.2c0,1.11-.9,1.6-2.02,1.6s-2.02-.48-2.02-1.6V13.53h4.03v14.67ZM45.38,9.11H5.17c0-2.61,1.8-4.73,4.02-4.73h12.71v-1.01c0-1.86,1.51-3.37,3.37-3.37s3.37,1.51,3.37,3.37v1.01h12.71c2.22,0,4.02,2.12,4.02,4.73Z"/></g></svg>