<?xml version="1.0" encoding="UTF-8"?><svg id="b" xmlns="http://www.w3.org/2000/svg" viewBox="0 0 50 50"><defs><style>.d{fill:#789e96;}</style></defs><g id="c"><path class="d" d="M49.4,24.33c-1.36-7.13-4.48-12.11-8.28-12.5-.6-.06-.62,1.5-1.97,1.95-1.53,.5-1.99-1.04-2.58-.52-3.19,2.81-4.23,9.01-2.91,15.98,1.57,8.26,6.11,13.61,10.95,12.27,4.84-1.33,6.36-8.92,4.79-17.18Zm-8.91-5.22c-.56,.26-1.7,.02-2.04,1.09-.3,.97,.54,1.64,.55,3.66,0,1.48-.2,3.03-1.98,2.89-1.78-.14-2.24-4.25-1.53-7.08,.96-3.81,1.59-1.75,2.46-1.61,.78,.13,1.5,0,2.73-.44,.71-.26,.51,1.16-.19,1.47Zm7.05,16.53c-1.07,3.19-1.91,1.05-1.28-.95,.63-1.99,1.12-5.38,1.45-5.21,.74,.39,.45,4.33-.16,6.15Zm-19.01-11.74c-.47-.46-1.09,.77-2.37,.2-1.44-.64-1.22-2.18-1.9-2.17-3.7,.06-6.98,4.26-8.64,10.69-1.96,7.62-.44,16.08,4.09,17.19,4.53,1.11,8.68-2.74,10.64-10.36,1.7-6.57,1.11-12.65-1.83-15.55Zm-6.6,7.12c.02-.1,.04-.25,.08-.41-.11,.27-.23,.53-.34,.76-.57,1.18-2.06,3.03-2.94,2.14-.88-.89,.82-5.44,1.67-6.74,.87-1.33,2-1.07,2.3-.64,.3,.43,.26,1.26,.06,2.19,.36-.74,.8-1.27,1.3-1.03,1.12,.55,.67,3.25-.31,4.84-1.32,2.14-1.94-.29-1.82-1.1Zm2.48,16.13c-2.12,1.8-1.97-.47-.67-1.62,1.29-1.15,3.02-3.51,3.22-3.14,.44,.81-1.34,3.74-2.55,4.77Zm-9.89-15c-1.19,4.06-1.37,8.42-.57,11.78-2.22,.56-4.34-.12-6.07-2.03-3.14-3.47-1.58-10.87,2.39-15.61,3.29-3.93,7.1-5.29,9.95-3.36-2.37,1.54-4.41,4.82-5.7,9.22ZM0,10C-.22,6.05,5.54,3.86,12.74,2.67c6.48-1.07,11.2,.73,13.13,2.05,.69,.47,4.32,.2,6.46,.57C33.82,2.51,35.29,.06,35.55,0c.33-.07,1.15,1.02,1.02,1.35-.06,.16-.53,.95-1.19,2.09,.79,.7,1.91,1.93,2.54,3.19,1.13,2.26,2.02,5.47,1.74,6.02-.28,.56-.96,.97-1.49,.34-.05-1.51-.41-3.29-1.49-5.55-.59-1.24-1.39-2.12-2.04-2.72-1.3,2.31-2.95,5.42-3.94,8.07-1.68,4.52-1.1,7.18-1.96,9.15,0,0-.9,1.63-1.84,1.51-1.06-.14-1.3-1.24-1.3-1.24,.18-1.1,2.54-7.84,3.79-10.92,.35-.86,.84-1.92,1.39-3.04-1.13,.91-2.19,1.76-2.36,2.1-.94,1.85-3.42,5.65-8.11,8.45-5.08,3.04-9.51,4.66-10.5,1.94-.99-2.72,2.82-6.04,7.9-9.08,4.58-2.74,8.44-2.92,10.15-2.57,.62,.12,2.58-1.94,3.61-2.63-1.03-.57-4.89-.37-5.4,.15-.36,.37-.82,.81-1.38,1.28-2.05,.24-4.8,.93-7.75,2.7-1.29,.77-2.97,1.86-3.83,2.45C5.94,14.22,.23,13.94,0,10Z"/></g></svg>