<?xml version="1.0" encoding="UTF-8"?><svg id="b" xmlns="http://www.w3.org/2000/svg" viewBox="0 0 50 50"><defs><style>.d{fill:#697c84;}</style></defs><g id="c"><path class="d" d="M48.41,18.8c-.39-.29-.81-.49-1.24-.59-.11-.51-.27-1.02-.46-1.51,.27-.16,.51-.39,.69-.7,.6-1.02,.3-2.43-.67-3.15-.42-.31-.9-.45-1.36-.41-.12-1.07-.66-2.11-1.56-2.78-1.57-1.17-3.63-.78-4.6,.87-.06,.1-.11,.2-.16,.3-.8-.52-1.7-.66-2.51-.46,.05,.06,.1,.12,.14,.18,.82,1.18,.63,2.98-.42,4.04-.39,.39-.84,.62-1.3,.7-.43,1.9-1.31,3.69-2.6,5.14,.19,1.7,.76,2.49,1.59,3.54-.39,1.72-3.57,1.33-5.86,5.4,.07-4.85,.7-6.46,1.27-7.92,.45-.32,.89-.69,1.31-1.11,1.51-1.52,2.52-3.49,3-5.57,.46-.08,.91-.31,1.3-.7,1.05-1.05,1.29-2.23,.81-3.62-.11-.32-.86-1.82-1.52-1.82,.4-.96-.35-2.16-.86-2.44,1-1.7,.29-2.86-.81-4.43-1.32-1.9-4.45-2.21-5.52-1.2-.43,.41-.76,.92-1,1.47-.55-.03-1.11,0-1.67,.09-.07-.43-.23-.83-.47-1.18-.6-.87-2.72-.98-3.38-.22-.43,.49-.75,1.06-.87,1.69-1.11-.23-2.33,.14-3.31,1.11-1.69,1.7-1.99,4.62-.67,6.52,.08,.11,.16,.22,.25,.32-1.82,1.23-2.13,4.51-.86,6.34,.54,.78,1.65,1.25,2.45,1.44,.22,.44,.47,.87,.75,1.28,.61,.88,1.33,1.6,2.11,2.15,1.65,3.29,2.24,4.22,1.6,7.81-1.95-5.09-7.18-4.1-5.02-8.72-.1-.13-.2-.26-.29-.4-.28-.41-.53-.83-.75-1.28-.79-.18-1.53-.67-2.07-1.45-1.13-1.62-1.07-3.99,.02-5.71-.56,.02-1.06,.32-1.41,.79-.62-.3-1.29-.51-1.99-.6-.4-1.34-2.17-1.68-3.33-1.51-.9,.13-2.78,.96-2.91,2.57-.04,.53,.09,1.03,.25,1.49-.32,.39-.61,.81-.87,1.27-.27-.17-.58-.26-.9-.26-1.09,0-1.97,1.06-1.97,2.37,0,.57,.17,1.09,.45,1.5-.73,.7-1.2,1.78-1.2,3,0,2.12,1.43,3.83,3.19,3.83,.1,0,.21,0,.31-.02,.1,2.01,1.49,3.59,3.18,3.59,.72,0,1.39-.29,1.93-.78,.36,.07,.73,.1,1.11,.1,.83,0,1.63-.16,2.37-.47,0,0,6,.16,7.48,7.16-1.78-2.11-4.66-.83-7.16-1.94,4.1,5.53,5.25,5.03,7.66,5.28,.41,5-.35,7.39-.35,7.39,0,1.88,1.36,3.41,3.03,3.41h5.58c1.68,0,3.03-1.52,3.03-3.41,0,0-1.29-6.12-.83-8.33,2.43,1.53,5.61-2.21,6.14-5.02-2.05,1.87-3.79,.17-5.91,2.05,1.48-5.46,7.9-7.06,9.58-7.21,.16,.4,.44,.76,.79,1.04,.61,.46,2.13,.29,2.73-.73,.32-.55,.5-1.02,.34-1.62,.57-.42,1.09-.93,1.54-1.53,1.4,.53,2.95,.03,3.75-1.34,.97-1.65,.48-3.93-1.09-5.1Zm-41.28,1.37c-.27,0-.52-.1-.72-.26-.25,.37-.63,.62-1.06,.66,.02,.09,.03,.18,.03,.28,0,.75-.54,1.36-1.21,1.36s-1.21-.61-1.21-1.36c0-.63,.38-1.16,.89-1.31-.07-.19-.11-.4-.11-.62,0-.92,.66-1.66,1.48-1.66,.44,0,.83,.21,1.1,.55,.21-.21,.5-.35,.81-.35,.67,0,1.21,.61,1.21,1.36s-.54,1.36-1.21,1.36Zm10.39-11.31c0-.72,.48-1.31,1.1-1.39-.08-.23-.12-.48-.12-.73,0-1.15,.83-2.09,1.86-2.09,.55,0,1.04,.27,1.38,.69,.27-.27,.62-.43,1.01-.43,.48,0,.9,.25,1.18,.63,.13-.47,.52-.81,.98-.81,.57,0,1.03,.52,1.03,1.15s-.46,1.15-1.03,1.15c-.25,0-.47-.1-.65-.26-.07,.86-.72,1.54-1.51,1.54-.34,0-.65-.12-.9-.33-.34,.51-.88,.84-1.49,.84-.12,0-.23-.01-.34-.04,0,.03,0,.05,0,.08,0,.78-.56,1.4-1.25,1.4s-1.25-.63-1.25-1.4Zm5.27,6.25c-.45,0-.82-.32-.97-.76-.19,.19-.43,.3-.7,.3-.03,0-.07,0-.1,0,.01,.08,.02,.16,.02,.24,0,.64-.46,1.15-1.03,1.15-.35,0-.66-.2-.85-.5-.1,.2-.29,.33-.51,.33-.33,0-.59-.3-.59-.66s.26-.66,.59-.66c.13,0,.25,.05,.35,.13,.09-.53,.51-.94,1.01-.94,.03,0,.05,0,.08,0-.02-.08-.03-.17-.03-.26,0-.65,.47-1.18,1.05-1.18,.46,0,.85,.34,1,.8,.18-.18,.41-.28,.67-.28,.57,0,1.03,.52,1.03,1.15s-.46,1.15-1.03,1.15Zm2.36,9.56c0,.43-.61-1.79-1.52-3.49h2.81s-1.29,3.06-1.29,3.49Zm1.86-14.01c-.14,.22-.37,.36-.63,.34-.39-.03-.67-.41-.65-.84s.36-.76,.75-.73c.16,.01,.3,.08,.41,.19,.15-.62,.67-1.06,1.26-1.01,.03,0,.06,0,.09,.01-.01-.1-.02-.21-.01-.31,.05-.77,.65-1.35,1.34-1.29,.55,.05,.98,.48,1.11,1.04,.23-.19,.51-.29,.82-.27,.67,.06,1.17,.71,1.12,1.46-.05,.75-.63,1.32-1.3,1.26-.53-.04-.95-.46-1.08-1-.23,.2-.53,.32-.85,.29-.04,0-.08,0-.12-.02,.01,.09,.01,.19,0,.28-.05,.75-.63,1.32-1.3,1.26-.42-.03-.77-.3-.96-.68Zm7.19,17.01c-.16,.15,1.58-1.58,1.9-2.63l1.01,1.34s-2.75,1.13-2.91,1.29Zm10.41-11.82c-.24,.31-.66,.34-.93,.07-.12-.12-.19-.27-.22-.43-.36,.38-.93,.4-1.31,.03-.16-.16-.27-.37-.31-.59-.36,.09-.74-.01-1.04-.3-.06-.06-.11-.12-.15-.18,0,.01-.02,.03-.03,.04-.29,.38-.8,.41-1.14,.08-.33-.33-.37-.9-.08-1.28,.27-.35,.73-.41,1.06-.15,.05-.15,.12-.29,.22-.41,.44-.56,1.19-.61,1.69-.13,.26,.26,.4,.62,.41,.99,.23,0,.46,.09,.65,.27,.23,.23,.34,.55,.33,.87,.24-.17,.56-.14,.78,.07,.27,.27,.3,.74,.06,1.05Z"/></g></svg>