<?xml version="1.0" encoding="UTF-8"?><svg id="b" xmlns="http://www.w3.org/2000/svg" viewBox="0 0 48.77 50"><defs><style>.d{fill:#87b79a;}</style></defs><g id="c"><path class="d" d="M38.09,49.9c-4.02,.57-7.94-1.26-10.81-4.6,1.98-2.37,3.31-5.48,3.85-8.97,1.01-6.52-.77-12.52-4.16-15.41,.19-.44,.76-.7,1.18-.68,2.13,.14,2.61-1.23,3.65-2.33,.37-.39,1.02-.39,1.65-.47,7.07-1.01,13.84,5.44,15.12,14.41,1.28,8.97-3.41,17.06-10.47,18.07ZM17.15,18.15s1-.19,2.15,.04c1.02,.21,1.67,.5,1.67,.5,.71-1.09-.67-3.08,.65-5.62,.72-1.37,2-2.9,3.1-4.11,.31,1.55,.86,3.57,1.37,4.85,.74,1.86,1.79,5.25,2.5,5.33,.71,.08,1.88-.42,1.81-1.39-.07-.97-1.38-2.07-2.57-4.67-1.11-2.43-1.15-5.29-1.23-6.1,.05-.06,.09-.11,.1-.13,.1-.18-.89-.97-1.23-.97-.48,0-4.18,4.02-5.4,6.08-1.01,1.72-2.84,5.53-2.92,6.18Zm11.39,19.28c-2.17,8.37-8.86,14.02-17.27,11.84C2.86,47.1-.94,40.16,.2,31.77c1.14-8.39,6.58-14.75,12.16-14.2,1.36,.13,2.61,.67,3.69,1.52-3.98,1.92-7.3,7.1-8.16,13.44-.1,.74-.1,1.56-.02,2.4,.14-.89,.33-1.79,.57-2.7,2.18-8.42,8.44-14.09,13.99-12.65,5.55,1.44,8.28,9.43,6.1,17.85Zm-8.97-15.39s-2.86,.2-4.57,2.64c-2.74,3.9-1.93,6.42-1.71,6.43,.86,.03,1.6-2.66,2.79-4.65,1.67-2.78,3.5-4.42,3.5-4.42Zm-3.71-9.73c2.1,.37,4.03-1.33,4.03-1.33,0,0-3.95-1.02-4.23-4.69-.12-1.59-1.69-2.28-1.69-2.28,0,0,3.15,.73,3.62,2.96,.25,1.19,3,3.32,3,3.32,0,0,1.61-4.85-.31-6.93C18.37,1.28,13.71,1.65,10.79,.02c-.73-.41-1.92,5.74-.56,8.28,1.36,2.55,3.63,3.65,5.64,4Z"/></g></svg>