<?xml version="1.0" encoding="UTF-8"?><svg id="b" xmlns="http://www.w3.org/2000/svg" viewBox="0 0 40 50"><defs><style>.d{fill:#9f69c8;}</style></defs><g id="c"><path class="d" d="M39.54,11.21c-1.23-1.83-3.31-.66-3.97-.8-1.04-.22-.98-1.43-2.47-1.26-2.24,.25-1.85,2.12-2.53,2.42-.78,.34-2.15-1.84-4.02-.41,.06-.2,.1-.41,.1-.64,.01-2.27-3.49-1.56-3.78-2.27-.25-.61,2.71-1.42,1.71-3.12-.68-1.15-2.39-.62-3.41-1.05-.65-.27,.58-1.55-.1-2.77-.39-.71-1.7-1.39-2.97-1.3-1.27,.08-2.34,1.09-2.5,1.71-.25,1.02,.85,2.04,.43,2.46-.62,.61-2.28,.09-2.42,1.78-.05,.57,.53,.97,1.25,1.29-1.26,.12-2.43,.94-2.96,.62-.71-.43,1.06-2.46-1.09-3.63-2.26-1.23-3.36,1.16-4.55,.89-1.35-.31-.21-1.39-1.95-2.53-.83-.54-2.56-.58-3.58,.11C-.28,3.4-.06,4.88,.31,5.5c.62,1.04,2.45,1.23,2.85,1.71,.41,.5-2.97,1.84-.58,3.91,1.45,1.25,3.73-1.01,4.91,.08,.65,.6-2.17,2.71-.55,4.1,1.63,1.39,5.17-1.54,6.15-.47,.98,1.07-.37,2.72,1.29,3.66,1.21,.69,2.07,.42,3.55,1.39,.26,.87,.38,1.61,.3,2.08-9.6,.59-12.99,4.39-13.14,9.58-.15,5.29,5.54,8.94,13.39,11.15,.56,.32,.49,.87,.69,1.38,.31,.76,2.67,1.57,2.81,2.54,.08,.56-.94,1.06-1.23,1.69-.32,.68,.76,1.48,1.06,1.68-.22-.26-.73-.75-.28-1.61,.25-.48,1.47-1.19,1.46-1.54-.05-1.76-1.71-2.31-1.59-3.01,.14-.81,1.26-1.22,1.55-1.28,7.29-1.71,12.63-4.68,12.78-9.84,.16-5.44-2.41-9.97-12.56-10.71-.17-.38-.15-.81-.02-1.29,1.36-.63,2.03-.33,3.16-.79,1.57-.66,.69-2.25,1.7-3.09,1.02-.84,2.84,1.1,4.77,.48,2.22-.7,.89-2.87,2.08-3.11,1.12-.22,.62,1.43,2.05,1.38,1.4-.05,4.17-2.07,2.63-4.38ZM19.85,4.75s-.32,3.27-.5,5.73c-.09,1.31,.59,5.98,.59,5.98,0,0-1.47-3.9-1.67-5.89-.21-2.03,.46-5.46,1.57-5.82Zm-4.87,8.45c-2.78-2.59-7.28-3.85-7.28-3.85,1.54-.41,5.97,.94,8.19,3.16,2.18,2.18,3.69,6.5,3.69,6.5,0,0-3.12-4.42-4.6-5.8Zm3.25,12.92c-1.28-.07-3.07-.19-3.62,.85-.5,.94,.8,2.28,1.15,3.55,.37,1.33,.32,3.92-2.75,4.03-3.07,.11-4.29-3.23-3.95-6.07,.32-2.63,3.58-3.85,5.55-3.85s2.62,.57,3.76,.67c1.28,.11,3.67-.3,3.67-.3-.5,.52-2.52,1.18-3.81,1.11Zm5.5-9.73c-1.22,1.14-2.92,4.85-2.92,4.85,0,0,.35-3.62,2.17-5.43,1.84-1.84,5.52-2.96,6.8-2.62,0,0-3.74,1.05-6.04,3.2Z"/></g></svg>