<?xml version="1.0" encoding="UTF-8"?><svg id="b" xmlns="http://www.w3.org/2000/svg" viewBox="0 0 40 50"><defs><style>.d{fill:#90ba7d;}</style></defs><g id="c"><path class="d" d="M39.83,9.24c-.41,.05-2.21-1.24-2.34-1.36,.18-.1,.29-.19,.35-.46-.42-.05-1.01-.49-1.24-.7-2.22-2.17-5.36-5.1-9.22-6.23-5.49-1.6-6.63,1.23-7.14,2.17-.12,.23-.45,.67-.91,1.04,0-.15-.46-.33-.61-.24-.22,.14-1.48,2.56-1.73,3.86-.11,.58-.13,2.07-.18,2.82-.05,.67-.14,1.28-.03,1.73-.27-.08-.54-.14-.8-.07-6.41,1.55-6.02,11.56-6.63,13.04-1.48,3.62-13.5,9.62-7.82,21.03,2.99,6.01,12.94,3.56,15.39,3.56,2.26,0,12.05,2.47,14.84-2.84,5.52-10.53-4.75-16.67-6.63-21.66-.38-1.01,.25-11.59-5.81-13.14-.25-.06-.54,.01-.84,.1,.19-.95-1.16-1.73-.97-3.79,.09-.96,.54-2,.97-2.84,.14,.08,1.07-.26,1.52,.08,.64,.49,.37,6.57,8.52,7.43,2.47,.26,6.58-1.53,8.88-2.33,.14-.05,.97,.11,1.1,.07-.14-.11-.31-.41-.59-.57,1.49,.15,2.51-.79,1.92-.72ZM10.01,37.82c-1.31,3.24-1.2,5.95-2.93,5.32-1.73-.63-3.02-3.82-1.71-7.05,1.31-3.24,4.73-5.29,6.47-4.67,1.73,.63-.51,3.16-1.82,6.4Z"/></g></svg>