<?xml version="1.0" encoding="UTF-8"?><svg id="b" xmlns="http://www.w3.org/2000/svg" viewBox="0 0 36.64 60"><defs><style>.d{fill:#a38ea2;}</style></defs><g id="c"><path class="d" d="M32.61,14.53c-.38-.19-.76-.35-1.15-.48,1.5-.65,2.8-1.8,3.61-3.37,1.86-3.6,.45-8.02-3.15-9.87-3.59-1.86-8.01-.45-9.87,3.15-.71,1.37-.94,2.87-.76,4.29-.43-.36-.89-.68-1.41-.94-3.73-1.93-8.31-.46-10.24,3.27-1.93,3.73-.46,8.32,3.27,10.24,3.12,1.61,6.84,.85,9.1-1.63-.9,3.32,.6,6.92,3.77,8.56,3.65,1.89,8.14,.45,10.03-3.2,1.89-3.65,.45-8.15-3.2-10.03Zm-9.73,2.57c.47-1.7,.56-3.44,.32-5.12,.64,.52,1.35,.99,2.11,1.39,.59,.3,1.19,.55,1.8,.75-1.59,.67-3.04,1.68-4.24,2.98Zm-13.4,6.11l3.38,10.45-6.62,2.14,3.25-12.59Zm4.08,12.62l2.17,6.71-1.75,1.94-7.1,2.29-1.93-5.99,.1-.39,.51-1.98,8-2.58Zm5.04-10.47l7.49,4.02-11.06,3.57-3.72-11.51,7.29,3.92Zm-2.87,9.77l9.42-3.04-7.66,8.5-1.76-5.46Zm-8.14,13.82l3.35-1.08-2.72,3.02-.63-1.94Zm-2.87-1.47l-1.62,.52,.8-3.09,.83,2.56Zm.7,2.17l1.03,3.19L0,60l2.42-9.37,3-.97Z"/></g></svg>