<?xml version="1.0" encoding="UTF-8"?><svg id="b" xmlns="http://www.w3.org/2000/svg" viewBox="0 0 60 40.62"><defs><style>.d{fill:#7d82b9;}</style></defs><g id="c"><path class="d" d="M56.62,7.19c.72-1.9-1.87-5.87-.81-7.19-.88,.19-1.48,.42-2.09,.63,0,0,0-.02,0-.03-.46,.05-.77,.12-2.02-.1-.17,.79,.97,2.29,.98,3.63-.04,.44-.19,.89-.54,1.35-1.01-.03-2.8,1-3.82,2.52-1.36,2.02-5.81,8.43-15.53,8.9C18.77,17.57,9.73,4.47,3.15,3.11c-.88,.05-1.02-.87-1.53-.93-.51-.06-1.62,1-1.62,1,0,0,.25,.49,.26,.49,.34,.93-.2,2.72-.15,3.6,.06,1.16,.76,2.78,1.96,4.61-.08,.14-.13,.22-.13,.22,0,0,.34,.49,.34,.48,.5,.95,.33,2.91,.36,3.86,.03,1,1.55,3.45,4.15,6.19-.31,.56-.6,1.86-.6,1.86,0,0,.44,.42,.45,.42,.7,.85,.94,2.87,1.16,3.82,.74,3.16,17.76,16.64,33.4,10.13,18.02-7.51,22.92-26.76,15.43-31.67Zm-3.66-1.04c-.15,.08-.29,.17-.43,.27-.79,.58-1.36,1.47-1.85,2.54-2.29,4.98-2.97,14.04-16.75,16.15C16.51,27.78,5.28,17.14,3.8,12.82c-.13-.39-.31-1.01-.53-1.19-.21-.17-1.06,.44-1.06,.44,0,0,.79-1.25,1.06-1.1,.43,.24,1.1,1.34,1.67,1.23,3.5,1.63,13.58,11.9,28.44,9.17,4.85-.89,8.2-3.13,10.53-5.5,2.46-2.49,3.76-5.11,4.42-6.46,.04-.09,.09-.19,.13-.27,.87-1.78,3.58-2.88,4.49-3Zm-21.19,12.05c5.59,0,10.07-2.61,13.05-5.13-2.06,2.22-5.14,4.61-9.54,6.03-.82,.16-1.68,.3-2.59,.42C17.97,21.37,4.62,10,3.69,5.64c5.68,1.06,14.06,12.56,28.08,12.56Zm7.44,13.88c-15.95,7.07-28.33-3.46-29.68-6.8-.03-.07-.06-.13-.07-.19-.1-.35-.76-.68-1.41-1.15-.32-.23-.64-.49-.89-.8,.03,0,.07,.02,.11,.03,.6,.18,1.48,.95,2.33,.6,6.1-.4,12.54,7.78,25.08,4.68,1.03-.25,2.09-.57,3.2-.99,10.1-3.78,12.1-13.31,12.78-15.92,.51-1.97,2.66-3.76,3.59-3.93,1.04-2.16-1.17-4.79-1.33-6,.36,0,.85-.07,1.11-.16,.03,0,.07-.02,.09-.03,.28,.48,.67,1.29,.98,2.21,.16,.48,.3,.99,.38,1.5,.03,.17,.05,.34,.07,.51,.02,.2,.03,.39,.03,.58,0,.2-.02,.39-.05,.58-.03,.23-.08,.45-.16,.65-.65,2.56-.67,6.3-1.95,10.3-.77,2.41-2,4.91-4.1,7.3-2.23,2.54-5.43,4.97-10.11,7.05Z"/></g></svg>