<?xml version="1.0" encoding="UTF-8"?><svg id="b" xmlns="http://www.w3.org/2000/svg" viewBox="0 0 60 20.16"><defs><style>.d{fill:#a3aab8;}</style></defs><g id="c"><path class="d" d="M22.48,16.13c-.06-.32,.05-.6,.26-.64,.21-.04,.31,.19,.37,.5,.06,.32,.06,.6-.15,.64-.21,.04-.42-.18-.48-.5ZM59.34,2.92c-.36,.29-.8,.57-1.34,.8,.01,1.19-.28,2.44-.82,3.32-.03,.06-.07,.11-.11,.16-.38,.55-.87,.85-1.4,1-.02,1.38-1.15,2.57-2.4,3.3,.12,.13,.22,.31,.25,.51,.1,.52-.19,1.02-.65,1.11-.35,.07-.7-.12-.89-.45-.49,.39-1.03,.77-1.62,1.15,.07,.11,.12,.23,.15,.37,.1,.52-.19,1.02-.65,1.11-.41,.08-.82-.19-.97-.62-.8,.43-1.67,.84-2.61,1.23,.03,.07,.05,.13,.06,.21,.1,.52-.19,1.02-.65,1.11-.44,.09-.87-.23-1-.7-1.13,.41-2.34,.78-3.63,1.11,0,0,0,0,0,0,.1,.52-.19,1.02-.65,1.11-.44,.09-.88-.23-1-.72-.34,.07-.68,.14-1.02,.21-1.06,.21-2.07,.39-3.02,.54,.09,.51-.2,.99-.65,1.08-.46,.09-.91-.26-1.02-.78,0-.02,0-.03,0-.05-1.78,.24-3.35,.37-4.7,.39-.1,.37-.38,.66-.75,.74-.51,.1-1.02-.25-1.18-.81-2.63-.24-4.2-1.1-4.88-2.6,.05-.01,.36,.09,.49,.16,.4,.42,1.15,1.21,3.2,1.61,2.75,.54,4.35,.2,4.89-.08,.47-.25-2.93,.13-4.61-.31-.62-.16-1.72-.41-1.66-.62,.06-.21,2.97,.34,5.39,0,5.45-.77,7.41-1.4,8.51-1.85,1.11-.45-5.09,1-8.5,1.26-2.19,.17-5.46-.03-5.35-.66,.12-.63,2.37-.48,3.34-.67,3.08-.6,14.38-4.26,14.28-4.81-.11-.55-10.95,2.3-14.18,2.93-1.07,.21-3.75,1.66-3.92,1.3-.38-.82,3.14-2.84,6.12-3.79,4.02-1.28,11.22-3.2,9.74-3.2-1.47,0-3.53,.57-10.03,2.53-5.8,1.75-7.2,3.79-7.68,4.82-.06,.24-.31,.46-.32,.45-.31-1.58,.78-2.99,2.77-4.23,0-.01,0-.02,0-.04-.12-.62,.22-1.22,.77-1.32,.38-.07,.75,.1,.99,.42,.98-.46,2.08-.89,3.27-1.29-.03-.51,.27-.97,.73-1.06,.4-.08,.79,.14,.99,.52,1.11-.32,2.28-.63,3.49-.9-.06-.55,.26-1.06,.75-1.16,.48-.09,.96,.24,1.12,.75,.2-.04,.4-.08,.6-.12,1.04-.2,2.08-.41,3.1-.61-.09-.59,.24-1.14,.76-1.24,.52-.1,1.04,.28,1.18,.87,1.31-.25,2.57-.47,3.75-.64,.02-.43,.3-.8,.69-.88,.43-.08,.86,.2,1.02,.66,1.14-.13,2.19-.19,3.1-.16,.1-.29,.32-.51,.61-.56,.44-.09,.89,.24,1.01,.73,1.27,.26,2.24-.01,2.87,1.63,.29-.1,.55-.27,.74-.56,.43-.63,.69-1.59,.74-2.54-.57,.15-1.14,.22-1.61,.17-.74-.09-1.48-.57-1.87-1.22-.33-.56-.39-1.2-.15-1.79,.21-.53,.63-.94,1.16-1.13,.61-.22,1.32-.13,1.99,.24,.66,.37,1.13,1.07,1.36,2.05,.02,.08,.03,.15,.05,.23,.31-.15,.71-.25,1.05-.46,.34-.21,.75-.78,.99-.58,.24,.21-.23,1.04-.6,1.33Zm-2.43,.11c-.02-.13-.04-.26-.07-.39-.11-.48-.35-1.1-.86-1.38-.41-.23-.81-.29-1.14-.17-.2,.07-.37,.21-.48,.39-.03,.05-.05,.09-.07,.15-.12,.3-.09,.59,.08,.88,.22,.38,.68,.67,1.1,.73,.4,.05,.92-.04,1.44-.2ZM21.16,15.37c.04,.32,.2,1.15,.47,1.6-.37,.13-.64,.35-1.18-.32-1.53,.27-3.18,.39-4.56,.58-.03,.49-.36,.91-.82,.99-.5,.09-1-.23-1.18-.75-1.33,.14-2.55,.2-3.62,.17-.12,.32-.38,.57-.72,.63-.52,.1-1.03-.27-1.16-.83-1.51-.31-2.68,.03-3.38-2.03-.03-.09-.06-.18-.08-.27-.45,.14-.91,.35-1.34,.62,.43,.34,.8,.73,1.02,1.12,.34,.61,.37,1.42,.08,2.07-.25,.56-.72,.94-1.31,1.09-.52,.13-1.08,.03-1.52-.26-.51-.34-.83-.92-.92-1.62-.08-.69,.21-1.43,.84-2.14,.05-.05,.1-.11,.15-.16-.29-.15-.59-.4-.94-.54-.36-.14-1.03-.14-1-.43,.03-.29,.94-.39,1.37-.28,.43,.11,.89,.29,1.37,.57,.65-.47,1.4-.83,2.14-1.03,.18-1.44,1.45-2.67,2.83-3.45-.14-.15-.25-.35-.29-.58-.11-.59,.23-1.15,.77-1.25,.41-.08,.82,.14,1.03,.51,.57-.44,1.21-.87,1.91-1.29-.08-.12-.14-.26-.17-.42-.11-.59,.23-1.15,.77-1.25,.48-.09,.95,.22,1.12,.71,.94-.48,1.96-.94,3.06-1.37-.03-.07-.05-.15-.07-.23-.11-.59,.23-1.15,.77-1.25,.51-.09,1.01,.26,1.15,.8,1.32-.45,2.74-.87,4.25-1.24,0,0,0,0,0,0-.11-.59,.23-1.15,.77-1.25,.51-.1,1.02,.27,1.16,.82,.39-.08,.79-.16,1.19-.23,1.24-.23,2.42-.43,3.53-.6-.09-.58,.25-1.12,.77-1.22,.54-.1,1.06,.3,1.17,.89,0,.02,0,.04,0,.06,2.08-.27,3.9-.41,5.48-.42,.13-.42,.45-.75,.88-.83,.6-.11,1.18,.29,1.36,.91,3.06,.28,4.86,1.26,5.64,2.96-.68,.11-1.38,.24-2.1,.37-.13-.57-.64-.95-1.15-.85-.51,.1-.84,.63-.75,1.21-.99,.19-2,.39-3.02,.59-.2,.04-.39,.08-.59,.12-.16-.5-.62-.83-1.09-.74-.48,.09-.79,.59-.73,1.13-1.18,.27-2.32,.56-3.4,.87-.2-.37-.58-.58-.97-.51-.45,.09-.74,.53-.71,1.03-1.16,.39-2.24,.81-3.19,1.25-.23-.31-.59-.48-.96-.41-.54,.1-.87,.68-.76,1.29,0,.01,0,.02,0,.04-1.94,1.2-3.59,3.47-3.41,5.03Zm-18.36,1.01c-.09,.09-.18,.17-.26,.26-.31,.34-.66,.86-.6,1.39,.05,.43,.22,.76,.5,.95,.17,.11,.37,.16,.57,.15,.05,0,.1-.01,.15-.03,.3-.07,.51-.25,.64-.54,.17-.37,.15-.87-.04-1.22-.18-.32-.54-.67-.95-.97Z"/></g></svg>