<?xml version="1.0" encoding="UTF-8"?><svg id="b" xmlns="http://www.w3.org/2000/svg" viewBox="0 0 40 50"><defs><style>.d{fill:#ca746a;}</style></defs><g id="c"><path class="d" d="M18.13,43.54c-.1-.57,1.86-.35,2.8-.78,.09-.04,.17-.08,.26-.12,.09-1.86,.1-3.97,.04-6.2-.14,.09-.28,.18-.44,.26-.94,.43-3.6,.18-3.65-.09-.1-.57,1.86-.35,2.8-.78,.53-.24,.94-.5,1.25-.66-.07-1.89-.2-3.85-.37-5.8-.21,.21-.47,.4-.79,.54-.94,.43-3.6,.18-3.65-.09-.1-.57,1.86-.35,2.8-.78,.71-.32,1.2-.68,1.53-.78-.08-.83-.17-1.66-.27-2.48-.13-1.1-.24-2.19-.35-3.24-.21,.22-.51,.44-.84,.59-.94,.43-3.6,.18-3.65-.09-.1-.57,1.86-.35,2.8-.78,.74-.34,1.25-.72,1.58-.79-.22-2.11-.48-4.05-.96-5.68-.21,.23-.54,.45-.88,.61-.94,.43-3.6,.18-3.65-.09-.1-.57,1.86-.35,2.8-.78,.59-.27,1.07-.57,1.39-.72-.28-.71-.61-1.35-1.03-1.88-.61-.78-2.44-1.1-4.66-1.07-.29-.43-.8-.77-1.45-.99,.07-.5,.06-1.03-.07-1.52-.92-3.36,.97-7.89,.97-7.89l-3.19,.09s-1.23,4.27,.53,7.74c.2,.39,.28,.85,.29,1.33-.05,0-.11,0-.17,0-.14-.57-.37-1.15-.7-1.67C6.92,5.41,6.41,0,6.41,0L3.38,.77s1.68,5.65,3.95,8.64c.32,.42,.53,.95,.67,1.5-.06,.02-.11,.04-.16,.06-.63-1.88-5.12-6.33-5.12-6.33L0,5.94s4.52,2.95,6.2,6.1c-.24,.29-.38,.61-.4,.94-2.15,.66-3.84,1.58-4.23,2.64-1.11,3.01,4.35,11.68,5.76,14.03,6.4,10.67,9.26,20.82,12.03,20.34,.95-.16,1.52-2.6,1.77-6.19-1.16,.17-2.95-.04-2.99-.26Zm-2.18-.54c-.76-.1-5.92-12.56-9.07-18.83-1.27-2.53-4.3-6.75-1.85-7.33,3.06-.72,3.32,2.97,5.26,7.65,2.63,6.35,6.44,18.6,5.66,18.5Zm22.44-24.4s.03,0,.04,0l-.24,.96s-.02,0-.03,.01c-.45,1.58-1.25,3.36-2.18,5.28,.01,0,.02,0,.03,0l-.47,.97s-.03,0-.04,.02c-.47,.96-.95,1.94-1.42,2.95-.35,.75-.71,1.5-1.08,2.25,.01,0,.03,0,.04,0l-.49,.99s-.04,.01-.05,.02c-.88,1.76-1.82,3.51-2.76,5.2,.01,0,.03,0,.04,0l-.64,1.13s-.03,0-.05,.01c-1.13,1.97-2.26,3.81-3.32,5.42,.01,0,.03,0,.04,0l-.68,1.01s-.03,0-.04,0c-1.68,2.42-3.15,4.15-4.15,4.69,1.78-2.18,2.57-13.35,2.08-23.01-.22-4.31-.09-8.36-1.12-11.11,.28-.66,.62-1.2,1.03-1.56,.9-.8,2.87-1.06,5.1-.95,.2-.28,.49-.51,.86-.69,.2-3.3-2.19-7.34-2.19-7.34l3.07-.27s1.57,5.34,1.12,7.19c.06,0,.11,0,.17,0,.17-.52,.27-1.05,.21-1.53-.4-3.35,1.13-8.84,1.13-8.84l3.06,.3s-2.43,4.91-2.3,8.73c.02,.56-.09,1.14-.27,1.69,.05,.02,.1,.04,.14,.06,.25-.42,.42-.86,.46-1.26,.3-3.61,3.65-6.96,3.65-6.96l2.84,.94s-4.06,3.37-5.04,6.61c-.14,.48-.42,.94-.75,1.36,.45,.39,.72,.86,.75,1.33,1.97,.68,3.4,1.55,3.52,2.44,.08,.61,.04,1.27-.09,1.98Z"/></g></svg>