<?xml version="1.0" encoding="UTF-8"?><svg id="b" xmlns="http://www.w3.org/2000/svg" viewBox="0 0 50 50"><defs><style>.d{fill:#bd6a81;}</style></defs><g id="c"><path class="d" d="M14.3,11.15c-2.09,.94,.51,5.56-1.52,8.03,2.46,.06,3.58-4.08,5.28-6.06,1.16-1.35,4.32-1.91,5.42-1.93-.77,.5-2.57,1.53-2.84,2.86-.18,.88,.31,5.26,2.7,10.53,.28-3.26,3.34-5.26,4.17-7.75,.74-2.2-1.19-5.6-1.19-5.6,0,0,3.07-.22,5.26,3.31,1.04,1.67,.9,7.91,5.3,7.3-1.84-1.73,3.79-7.12-3.62-10.76,.97-.98,9.02,1.32,11.41-1.98-3.69,.17-8.47-5.78-18.77-.29-.64-2.48-.87-9.22-1.26-8.8-.39,.42-1.56,.78-2.33,1,0,0,2.17,6.63,1.66,7.76-11.14-6.61-14.09,0-18.7,.17,2.72,4.5,7.44,.93,9.01,2.21Zm10.38,.53c.6,1.95-1.76,2.75-1.37,5.84-1.04-2.79-1.1-4.76,1.37-5.84Zm-3.98-2.63c-2.33,1.76-5.81-1.31-9.03-.17,1.96-1.99,7.23-1.7,9.03,.17Zm16.39,3.88c4.21,5.14,.33,9.33,2.25,11.12-8.35,.82-7.87-4.7-8.31-6.65-.42-1.86-1.86-2.77-1.86-2.77,0,0,.07,4.29-1.61,6.27-1.82,2.15-3.5,3.89-3.78,7.28-2.49-5.49-5.87-8.03-4.92-12.19-1.16,.31-1.56,1.08-2.25,2.74-.56,1.35-3.17,2.83-5.73,2.77,2.11-2.58,.02-6.49,1.18-8.48C3.97,16.2,0,22.8,0,30.62c0,10.87,11.75,19.38,25.03,19.38s24.97-8.52,24.97-19.39c0-7.94-4.26-16.17-12.9-17.68ZM11.1,26.15c-1.31,3.55-1.32,9.38-2.68,9.2-3.04-.39-4.1-7.07-2.76-10.33,2.35-5.7,6.75-2.43,5.44,1.12Zm27.64,16.56c-3.45,2.93-7.59,3.34-8.08,2.72-.54-.67,3.68-2.23,5.9-4.17,3.39-2.95,5.05-6.71,5.75-6.24,1.58,1.05-1.03,5.54-3.57,7.69Z"/></g></svg>