<?xml version="1.0" encoding="UTF-8"?><svg id="b" xmlns="http://www.w3.org/2000/svg" viewBox="0 0 49.3 50"><defs><style>.d{fill:#709f72;}</style></defs><g id="c"><path class="d" d="M21.84,4.39c0-.66,.8-1.2,1.8-1.2s1.8,.54,1.8,1.2-.8,1.2-1.8,1.2-1.8-.54-1.8-1.2Zm7.92-.28c0,.66,.8,1.2,1.8,1.2s1.8-.54,1.8-1.2-.8-1.2-1.8-1.2-1.8,.54-1.8,1.2Zm-2.2,.13c.99,0,1.8-.54,1.8-1.2s-.8-1.2-1.8-1.2-1.8,.54-1.8,1.2,.8,1.2,1.8,1.2Zm-3.19-1.95c.9,0,1.63-.49,1.63-1.09s-.73-1.09-1.63-1.09-1.63,.49-1.63,1.09,.73,1.09,1.63,1.09Zm6.12-.16c.88,0,1.6-.48,1.6-1.06s-.72-1.07-1.6-1.07-1.6,.48-1.6,1.07,.72,1.06,1.6,1.06Zm-6.93,6.72c1.05,0,1.89-.57,1.89-1.26s-.85-1.26-1.89-1.26-1.89,.56-1.89,1.26,.85,1.26,1.89,1.26Zm6.45-1.56c0,.7,.85,1.26,1.89,1.26s1.89-.56,1.89-1.26-.85-1.26-1.89-1.26-1.89,.57-1.89,1.26Zm-2.31,.14c1.05,0,1.89-.56,1.89-1.26s-.85-1.26-1.89-1.26-1.89,.57-1.89,1.26,.85,1.26,1.89,1.26Zm-4.49,5.02c1.13,0,2.05-.61,2.05-1.37s-.92-1.37-2.05-1.37-2.05,.61-2.05,1.37,.92,1.37,2.05,1.37Zm6.99-1.69c0,.76,.92,1.37,2.05,1.37s2.05-.61,2.05-1.37-.92-1.37-2.05-1.37-2.05,.61-2.05,1.37Zm-2.51,.15c1.13,0,2.05-.61,2.05-1.37s-.92-1.37-2.05-1.37-2.05,.61-2.05,1.37,.92,1.37,2.05,1.37Zm-4.48,5c1.13,0,2.05-.61,2.05-1.37s-.92-1.37-2.05-1.37-2.05,.61-2.05,1.37,.92,1.37,2.05,1.37Zm9.04-.33c1.13,0,2.05-.61,2.05-1.37s-.92-1.37-2.05-1.37-2.05,.61-2.05,1.37,.92,1.37,2.05,1.37Zm-4.56-1.22c1.13,0,2.05-.61,2.05-1.37s-.92-1.37-2.05-1.37-2.05,.61-2.05,1.37,.92,1.37,2.05,1.37Zm-4.48,5c1.13,0,2.05-.61,2.05-1.37s-.92-1.37-2.05-1.37-2.05,.61-2.05,1.37,.92,1.37,2.05,1.37Zm9.04-.33c1.13,0,2.05-.61,2.05-1.37s-.92-1.37-2.05-1.37-2.05,.61-2.05,1.37,.92,1.37,2.05,1.37Zm-4.56-1.22c1.13,0,2.05-.61,2.05-1.37s-.92-1.37-2.05-1.37-2.05,.61-2.05,1.37,.92,1.37,2.05,1.37Zm-4.84,5.27c1.22,0,2.21-.66,2.21-1.47s-.99-1.47-2.21-1.47-2.21,.66-2.21,1.47,.99,1.47,2.21,1.47Zm7.32-1.68c0,.89,1.09,1.62,2.42,1.62s2.42-.72,2.42-1.62-1.09-1.62-2.42-1.62-2.42,.72-2.42,1.62Zm-2.49,.02c1.22,0,2.21-.66,2.21-1.47s-.99-1.47-2.21-1.47-2.21,.66-2.21,1.47,.99,1.47,2.21,1.47Zm-4.83,5.32c1.22,0,2.21-.66,2.21-1.47s-.99-1.47-2.21-1.47-2.21,.66-2.21,1.47,.99,1.47,2.21,1.47Zm9.75-3.3c-1.39,0-2.52,.75-2.52,1.68s1.13,1.68,2.52,1.68,2.52-.75,2.52-1.68-1.13-1.68-2.52-1.68Zm-4.92,1.97c1.36,0,2.46-.73,2.46-1.64s-1.1-1.64-2.46-1.64-2.46,.73-2.46,1.64,1.1,1.64,2.46,1.64Zm-5.11,5.26c1.29,0,2.34-.7,2.34-1.56s-1.05-1.56-2.34-1.56-2.34,.7-2.34,1.56,1.05,1.56,2.34,1.56Zm-.42,4.26c1.4,0,2.53-.76,2.53-1.69s-1.13-1.69-2.53-1.69-2.53,.76-2.53,1.69,1.13,1.69,2.53,1.69Zm-.28,4.39c1.47,0,2.66-.79,2.66-1.77s-1.19-1.77-2.66-1.77-2.66,.79-2.66,1.77,1.19,1.77,2.66,1.77Zm27.42-16.15s-6.6,.49-9.35,3.44c-2.76,2.96-3.6,12.84-7.03,15.58-3.43,2.73-5.02,2-6.54,3.15-.34,.26-.84,.51-.98,1.21,0,0-4.79-.33-7.01-2.42-1.62-1.53-2.73-4.2-3-6.1-.26-1.84-1-4.88-2.71-7.96-.95-1.71-3.94-4.88-6.54-5.35,2.4-.6,5.97-.37,8.1,.38,3.41,1.21,4.36,5.02,5.08,6.2,0,0-1.58-5.95-4.48-7.39-6.43-3.19-14.83,1.45-14.83,1.45,3.34-.98,9.64,2,11.51,5.35,1.61,2.89,2.27,6.26,2.52,8.01,.31,2.18,1.34,5.15,3.15,6.89,2.19,2.11,5.38,3.05,8.07,2.15,.66-.22,.33,2.22,.33,2.22h2.2s-.23-2.05,.44-2.31c.87-.33,1.58,2.04,6.57,.8,4.99-1.24,7.74-5.15,7.41-8.96-.33-3.81,.43-13.68,7.09-16.35Zm-18.98,4.65c.02-.08,.03-.17,.03-.26,0-.98-1.19-1.77-2.66-1.77s-2.66,.79-2.66,1.77,1.19,1.77,2.66,1.77c.82,0,1.55-.25,2.04-.64-.03,.12-.05,.24-.05,.36,0,1,1.1,1.83,2.54,1.98-.63,.11-1.19,.33-1.63,.64,0-.03,0-.06,0-.09,0-1.07-1.3-1.94-2.91-1.94s-2.91,.87-2.91,1.94,1.3,1.94,2.91,1.94c.78,0,1.49-.21,2.01-.54-.01,.07-.02,.15-.02,.23,0,.91-.26,.7-1.78,.7-1.87,0-3.39,1.01-3.39,2.26,0,.65,.42,1.24,1.08,1.65,.16,.1,.18,.38,.03,.45-.86,.41-1.45,1.04-1.59,1.77-.53-.21-1.14-.34-1.8-.34-1.92,0-3.46,1.04-3.47,2.32-.02,1.65,3.59,2.87,6.32,3.23,.07-.5,.37-.96,.7-1.23,1.5-1.23,3.72-.36,7.15-3.1,1.23-.98,3.52-7.95,3.17-8.53-.35-.86-1.24-1.3-2.59-1.43,1.27-.23,2.21-1.01,2.21-1.94,0-1.11-1.35-2.01-3.01-2.01-.97,0-1.82,.3-2.38,.77Zm-9.94-1.37s.45-9.15-1.73-10.2c-3.24-1.56-5.77,1.46-5.77,1.46,5.1,.4,7.5,8.74,7.5,8.74Zm20.02-9.51c-1.36,.03-3.23,2.76-3.53,3.86-.3,1.1-.23,4.16-.23,4.16,0,0,2.56-6.92,5.72-7.79,0,0-1.91-2.19-5.09-1.66-.6,.1-1.33,1.23-1.33,1.23,0,0,2.26-1.06,4.46,.2Z"/></g></svg>