<?xml version="1.0" encoding="UTF-8"?><svg id="b" xmlns="http://www.w3.org/2000/svg" viewBox="0 0 50 40"><defs><style>.d{fill:#aebb82;}</style></defs><g id="c"><path class="d" d="M47.19,7.08c.6-1.87-1.56-5.78-.68-7.08-.73,.18-1.23,.41-1.74,.62,0,0,0-.02,0-.03-.38,.05-.64,.11-1.68-.1-.14,.78,.81,2.25,.82,3.57-.03,.43-.16,.88-.45,1.33-.84-.03-2.33,.98-3.19,2.48-1.13,1.99-4.84,8.3-12.94,8.76C15.64,17.3,8.11,4.41,2.63,3.07c-.73,.05-.85-.86-1.28-.92-.42-.06-1.35,.99-1.35,.99,0,0,.21,.49,.21,.48,.28,.92-.16,2.68-.13,3.54,.05,1.15,.63,2.74,1.63,4.54-.07,.13-.11,.22-.11,.22,0,0,.28,.48,.29,.48,.42,.93,.28,2.87,.3,3.8,.02,.99,1.29,3.4,3.46,6.09-.26,.55-.5,1.83-.5,1.83,0,0,.37,.42,.37,.41,.58,.84,.78,2.82,.97,3.76,.62,3.11,14.8,16.39,27.84,9.97,15.02-7.39,19.1-26.35,12.86-31.19Zm-3.05-1.03c-.12,.08-.24,.17-.35,.27-.66,.57-1.13,1.45-1.54,2.5-1.91,4.9-2.48,13.83-13.96,15.9C13.76,27.35,4.4,16.88,3.17,12.63c-.11-.38-.26-1-.44-1.17-.18-.17-.88,.43-.88,.43,0,0,.66-1.23,.88-1.08,.36,.24,.92,1.32,1.4,1.21,2.92,1.6,11.32,11.72,23.7,9.03,4.04-.88,6.84-3.09,8.78-5.41,2.05-2.45,3.14-5.03,3.68-6.36,.04-.09,.08-.19,.11-.27,.73-1.75,2.98-2.84,3.74-2.95Zm-17.66,11.87c4.66,0,8.4-2.57,10.88-5.05-1.72,2.19-4.29,4.54-7.95,5.94-.68,.16-1.4,.3-2.16,.41C14.97,21.04,3.85,9.85,3.08,5.55c4.74,1.04,11.72,12.36,23.4,12.36Zm6.2,13.67c-13.29,6.96-23.61-3.41-24.73-6.7-.02-.06-.05-.13-.06-.19-.09-.35-.63-.67-1.17-1.14-.27-.23-.53-.48-.74-.79,.03,0,.06,.02,.09,.03,.5,.17,1.24,.93,1.94,.59,5.08-.39,10.45,7.66,20.9,4.61,.86-.25,1.74-.57,2.67-.97,8.41-3.72,10.08-13.11,10.65-15.68,.43-1.94,2.22-3.7,2.99-3.87,.87-2.12-.97-4.72-1.11-5.91,.3,0,.71-.07,.93-.15,.02,0,.06-.02,.08-.03,.23,.47,.56,1.27,.81,2.18,.13,.47,.25,.97,.32,1.47,.02,.17,.04,.34,.06,.51,.02,.19,.02,.38,.02,.57,0,.19-.02,.38-.04,.57-.03,.22-.07,.44-.14,.64-.54,2.53-.56,6.21-1.63,10.15-.64,2.37-1.67,4.83-3.41,7.19-1.86,2.5-4.52,4.9-8.42,6.94Z"/></g></svg>