<?xml version="1.0" encoding="UTF-8"?><svg id="b" xmlns="http://www.w3.org/2000/svg" viewBox="0 0 38.41 50"><defs><style>.d{fill:#a28580;}</style></defs><g id="c"><path class="d" d="M11.67,30.47c1.98-1,2.76-3.41,1.76-5.39-1-1.97-3.41-2.76-5.39-1.76-1.97,1-2.76,3.41-1.76,5.39,1,1.98,3.41,2.76,5.39,1.76Zm-3.09-2.29c-.52-1.03-.11-2.28,.92-2.8,1.03-.52,2.28-.11,2.8,.92,.52,1.03,.11,2.28-.92,2.8-1.03,.52-2.28,.11-2.8-.92Zm6.64,.66c-1.97,1-2.76,3.41-1.76,5.39,1,1.98,3.41,2.76,5.39,1.76,1.98-1,2.76-3.41,1.76-5.39-1-1.98-3.41-2.76-5.39-1.76Zm3.34,5.78c-1.03,.52-2.28,.11-2.8-.92s-.11-2.28,.92-2.8c1.03-.52,2.28-.11,2.8,.92,.52,1.03,.11,2.28-.92,2.8Zm11.73-7.24c-2.1,1.07-4.67,.23-5.74-1.88-1.07-2.1-.22-4.67,1.88-5.74,2.1-1.07,4.67-.22,5.74,1.88,1.07,2.1,.23,4.67-1.88,5.74Zm-3.35,1.18c.77,1.51,.16,3.36-1.35,4.13-1.51,.77-3.36,.16-4.13-1.35-.77-1.51-.16-3.36,1.35-4.13,1.51-.77,3.36-.16,4.13,1.35ZM.36,23.14c-.82-1.62-.17-3.6,1.45-4.42,1.62-.82,3.6-.17,4.42,1.45,.82,1.62,.17,3.6-1.45,4.42-1.62,.82-3.6,.17-4.42-1.45Zm.34-7.08c-.77-1.51-.16-3.36,1.35-4.13,1.51-.77,3.36-.16,4.13,1.35,.77,1.51,.16,3.36-1.35,4.13-1.51,.77-3.36,.16-4.13-1.35Zm11.76,16.88c-.7-1.38-2.39-1.94-3.78-1.24-1.38,.7-1.94,2.39-1.24,3.78,.7,1.39,2.39,1.94,3.78,1.24,1.38-.7,1.94-2.39,1.24-3.78Zm-3.4,2.17c-.36-.72-.08-1.6,.64-1.96,.72-.36,1.6-.08,1.96,.64,.36,.72,.08,1.6-.64,1.96-.72,.36-1.6,.08-1.96-.64Zm6.38,9.57c-1.38,.7-1.94,2.39-1.24,3.78,.7,1.39,2.39,1.94,3.78,1.24,1.38-.7,1.94-2.39,1.24-3.78-.7-1.38-2.39-1.94-3.78-1.24Zm2.34,4.05c-.72,.36-1.6,.08-1.96-.64-.37-.72-.08-1.6,.64-1.96,.72-.37,1.6-.08,1.96,.64,.36,.72,.08,1.6-.64,1.96Zm-1.51-4.83c1.94-.98,2.71-3.35,1.73-5.28-.98-1.94-3.35-2.71-5.28-1.73-1.94,.98-2.71,3.35-1.73,5.28,.98,1.94,3.35,2.71,5.28,1.73Zm-3.03-2.24c-.51-1.01-.11-2.23,.9-2.74,1.01-.51,2.23-.11,2.74,.9,.51,1.01,.11,2.23-.9,2.74-1.01,.51-2.23,.11-2.75-.9ZM7.44,20.61c-1.38-1.98-.9-4.7,1.08-6.08,1.98-1.38,4.7-.9,6.08,1.08,1.38,1.98,.9,4.7-1.08,6.08-1.98,1.38-4.7,.9-6.08-1.08Zm13.62,7.19c-2.42,1.23-5.37,.26-6.6-2.16-1.22-2.42-.26-5.37,2.16-6.6,2.42-1.23,5.37-.26,6.6,2.16,1.23,2.42,.26,5.37-2.16,6.6Zm4.64,8.12c.78,1.54,.16,3.43-1.38,4.21-1.54,.78-3.43,.17-4.21-1.38-.78-1.54-.17-3.43,1.38-4.21,1.54-.78,3.43-.17,4.21,1.38ZM3.96,29.39c-.97,.49-1.36,1.68-.87,2.66,.49,.97,1.68,1.36,2.66,.87,.97-.49,1.36-1.68,.87-2.66-.49-.97-1.68-1.36-2.66-.87Zm.68,2.42c-.48,.24-1.07,.05-1.31-.43-.24-.48-.05-1.07,.43-1.31,.48-.24,1.07-.05,1.31,.43,.24,.48,.05,1.07-.43,1.31Zm17.88,10.3c.57,1.12,.12,2.48-1,3.04-1.12,.57-2.48,.12-3.04-1-.57-1.12-.12-2.48,1-3.04,1.12-.57,2.48-.12,3.04,1ZM14.9,10.42c-.04-.56-.03-1.28,0-1.87,.71,.18,1.79,.15,2.16,.47,.36,.32,.65,1.2,1.01,.85,.38-.37-.63-.82-.87-1.14-.93-1.27-1.72-2.88-.43-4.7,.83,.03,1.65-.75,2.37-1.3,.32,.65,.43,1.51,1.44,2.04,.1,.05-.82,2.76,.5,2.26,.71-.27,.05-1.68,.23-2.78,.21-1.32,.94-3.36,2.03-4.23,1.85,.32,4.02-.15,4.66,.02,.6,1.79,.49,3.46,1.23,4.7-.53,.55-2.84,1.28-2.27,1.97,.51,.63,.88-.14,1.8-.72,1.69-1.07,2.11-1.41,3.45-1.21,.7,.46,1.24,1.62,2.22,1.43-.26,1.02-.39,2.11-.17,3.28-1.08,.93-2.17,1.36-3.96,1.41-1.13,.03-1.96-.83-2.15-.25-.2,.61,1.98,.62,2.07,.65,.85,.36,2.11,.65,2.52,1.25,.24,.74,.54,2.21,1.5,2.94-.64,1.02-3.91,2.59-6,1.77-.81-.32-2.85-3.66-3.63-2.93-.78,.73,1.65,1.35,2.3,1.95-.09,.95,.4,1.91,.83,2.62-.85-.32-2.16,.38-2.86,.6-1.67-.43-2.76-1.18-3.45-2.78-.28-.64-.1-1.28-.62-1.42-.52-.13-.01,.76-.05,.81-.47,.76-.83,.67-1.39,1.34-.43-.47-1-.95-1.48-1.59-.38-.97-.48-2.24-.51-2.81,.56-.37,1.25-.82,1.93-1.25,.62,.22,1.7,.91,2.35,1.52,1.24,1.15,2.11,3.75,2.11,3.75,0,0-.44-2.61-1.6-3.9-.77-.87-2.07-1.73-2.17-1.79,.85-.51,1.63-.92,2.06-1.04,3.3,1.02,4.61,3.01,6.82,3.58-1.82-.87-3.97-3.13-6.27-3.84,3.1-1.45,5.7-.61,7.29-1.9-1.97,.61-4.78,.11-7.5,1.55,1.07-2.03,1.12-4.59,1.82-6.21-1.38,1.36-.79,3.69-2.37,6.38-.65,.31-1.34,.67-2.02,1.04,.05-.22,.16-.92-.09-1.86-.3-1.13-1.6-3.03-1.6-3.03,0,0,1.06,2.38,1.17,3.32,.11,.92-.09,1.62-.32,2.04-.71,.41-1.38,.8-1.93,1.15-.48-.32-1.43-1.03-2.19-2.16Zm23.47,21.02c-.06-.18-.17-.33-.29-.47-.12-.14-.26-.28-.41-.39-.33-.24-.69-.37-1.1-.4-.34-.02-.69,.05-1,.18-.19-.15-.41-.27-.64-.35-.29-.1-.6-.09-.9-.03-.61,.12-1.16,.52-1.52,1.02-.18,.25-.28,.53-.31,.84-.03,.3,.07,.62,.24,.86,.1,.14,.3,.3,.37,.35,.14,.09,.29,.18,.44,.24,.16,.07,.36,.12,.53,.14,.14,.02,.42-.06,.53-.13,.16-.1,.29-.25,.33-.44,.03-.14,0-.28-.01-.43,0-.07-.01-.29,.01-.39,.02-.1,.08-.23,.18-.41,.1-.18,.27-.35,.37-.44,.1-.08,.18-.13,.29-.21,.14,.17,.22,.27,.31,.5,.09,.24,.12,.44,.13,.61,0,.18,0,.43-.05,.65-.05,.22-.09,.41-.2,.65-.1,.25-.38,.7-.56,.92-.18,.21-.54,.55-.8,.68-.26,.13-.59,.26-.92,.29-.33,.03-.81-.06-1.09-.16-.28-.1-.68-.31-.92-.55-.24-.24-.44-.46-.63-.85-.16-.33-.21-.51-.28-.82-.06-.3-.1-.75-.07-1.12,.04-.37,.14-.79,.24-1.06,.1-.27,.17-.44,.53-.98,.36-.54,1.3-1.5,1.9-2.11,.3-.3,.59-.61,.86-.94,.3-.36,.59-.74,.82-1.16,.21-.39,.35-.81,.4-1.24,.06-.47,.06-.77,.06-1.3,0-.34-.17-1.4-.48-2.09-.29-.66-.68-1.43-1.4-1.71-.13-.05-.29,.07-.32,.2-.04,.15,.06,.27,.2,.32-.09-.03,.21,.13,.36,.29,.32,.36,.57,.8,.73,1.2,.24,.61,.32,1.26,.33,1.61,0,.24,.03,1.01,.02,1.28,0,.27-.1,.62-.22,.91-.12,.28-.63,1.04-.92,1.39-.27,.33-.57,.63-.86,.94-1.11,1.12-2.35,2.28-2.68,3.9-.26,1.26,.03,2.67,.95,3.61,.47,.48,1.1,.79,1.75,.91,.56,.1,1.12,.07,1.64-.16,.98-.44,1.69-1.36,2-2.37,.26-.82,.2-1.77-.32-2.46,.24-.05,.41-.07,.53-.07s.38,.05,.49,.1c.11,.04,.27,.14,.41,.24,.14,.11,.28,.23,.38,.41,.1,.18,.11,.3,.1,.37-.01,.1-.09,.23-.2,.41-.08,.12-.01,.29,.1,.36,.14,.07,.28,.01,.36-.1,.21-.31,.35-.68,.22-1.05Zm-4.26,1.33s0,0,0,0c0,0,0,0,0-.01,0,0,0,0,0,0Zm0-.82c-.04,.16-.04,.33-.01,.49,0,.06,.02,.12,.03,.19,0,.03,.02,.17-.08,.23-.09,.06-.27,.08-.46,.03-.11-.03-.31-.13-.52-.28-.21-.14-.32-.37-.34-.59-.01-.13,.02-.31,.06-.45,.04-.14,.18-.32,.18-.32,.09-.11,.25-.28,.42-.41,.17-.13,.3-.19,.43-.24,.13-.05,.29-.09,.41-.12,.12-.03,.3-.03,.41,0,.23,.05,.39,.15,.43,.17-.45,.32-.8,.77-.94,1.31Z"/></g></svg>