<?xml version="1.0" encoding="UTF-8"?><svg id="b" xmlns="http://www.w3.org/2000/svg" viewBox="0 0 50 41.26"><defs><style>.d{fill:#6b8769;}</style></defs><g id="c"><path class="d" d="M49.92,25.43L0,26.55v-3.97l49.92-1.12v3.97Zm-11.48,3.59c-5.98,0-12.41-1.21-21.33-1.49-8.92-.28-17.11,1.13-17.11,1.13v2.26s8.14-1.41,17.02-1.14c9,.28,15.97,1.5,21.42,1.5s11.56-1.82,11.56-1.82v-2.26s-5.76,1.82-11.56,1.82Zm-21.33,2.77c-8.92-.28-17.11,1.13-17.11,1.13v2.26s8.14-1.41,17.02-1.14c9,.28,15.97,1.5,21.42,1.5s11.56-1.82,11.56-1.82v-2.26s-5.76,1.82-11.56,1.82-12.41-1.21-21.33-1.49ZM0,41.26l49.92-1.12v-3.28L0,37.98v3.28ZM41.13,14.83c-.99,1.58-2.8,2.64-4.86,2.64-3.13,0-5.67-2.45-5.67-5.47,0-.97,.26-1.88,.72-2.67l-1.99-1.12L0,20.89l49.92-1.12-8.79-4.93Zm-5.21,1.36c2.45,.25,4.63-1.48,4.87-3.87,.02-.18,.02-.34,.02-.51-.05-1.61-1.18-2.58-2.78-3.03-.21-.06-.43-.04-.65,0,0-.86-.43-1.88,.03-3.5,.66-2.34,2.71-3.17,2.79-3.39,0,0,0,0,0,0,0,0,0,0,0-.02,.04-.16,.36-.8,.69-.88,.2-.09-.9-.81-1.12-.99-.09-.03,.35,1.29-.43,1.68,0,0,0,0,.02,0-.6,.43-1.68,1.37-2.17,2.72-.48,1.32-.75,3.35-.84,4.38-.4-.11-.78-.29-1.15-.26-.6,.05-1.14,.19-1.61,.42-.91,.45-1.53,1.25-1.66,2.49-.24,2.39,1.54,4.52,3.99,4.77Z"/></g></svg>