<?xml version="1.0" encoding="UTF-8"?><svg id="b" xmlns="http://www.w3.org/2000/svg" viewBox="0 0 40 50"><defs><style>.d{fill:#99916f;}</style></defs><g id="c"><path class="d" d="M7.11,43c-.58,.05-1.13,.1-1.62,.13-.28-.57-.52-1.16-.71-1.78,.7,.54,1.47,1.1,2.33,1.65ZM30.91,24.05c-.43,.67-1.22,1.76-2.48,3.06,2.17,.76,4.37,1.31,6.42,1.71-.78-1.9-2.03-3.54-3.94-4.77ZM13.86,49.34c1.75,.43,3.79,.66,6.14,.66s4.4-.23,6.16-.67c-1.77-.19-3.86-.51-6.12-1.04-2.29,.53-4.4,.85-6.18,1.04Zm-1.77-3.68c-1.04-.46-2.01-.94-2.91-1.44-1.12,.12-2.11,.18-2.92,.21,1.04,1.53,2.48,2.82,4.42,3.77,1.66-.13,3.79-.36,6.13-.79-1.54-.48-3.12-1.06-4.71-1.76Zm11.34-5.13c-.35,.16-.71,.31-1.06,.45,2.74,.83,5.45,1.35,7.81,1.68,2.32-1.39,4.2-2.9,5.66-4.27,.03-.28,.06-.55,.08-.84-1.66-.17-3.61-.46-5.73-.93-1.78,1.32-4,2.68-6.76,3.9Zm10.7-10.33c-2.16-.42-4.53-1.02-6.97-1.89-1.37,1.22-3.12,2.55-5.35,3.82,.41,.2,.84,.4,1.27,.6,2.07,.92,4.24,1.62,6.33,2.15,2.22-1.79,3.78-3.52,4.71-4.68Zm-24.98-6.2c.42,.66,1.21,1.78,2.51,3.1-2.2,.77-4.43,1.32-6.51,1.72,.79-1.93,2.05-3.59,4-4.82Zm.95,2.86l-1.46-1.56-.98,1.15,2.44,.41Zm4.97-4.87c-1.98,.26-2.97,.56-4.36,1.18,.6,.77,1.55,1.91,2.89,3.2,.27-.11,.54-.22,.8-.34,1.46-.65,2.8-1.37,4.01-2.12-1.36-.21-2.79-1.17-3.34-1.92Zm6.59,1.92c1.21,.75,2.55,1.47,4.01,2.12,.27,.12,.53,.23,.8,.34,1.32-1.27,2.27-2.4,2.87-3.17-1.39-.63-2.19-.91-4.17-1.18-.66,.82-2.23,1.53-3.52,1.88ZM4.43,31.19c-.3,1.44-.42,2.98-.42,4.59,0,.12,0,.23,0,.35,1.33-.17,2.8-.4,4.34-.72-1.98-1.69-3.22-3.22-3.92-4.22Zm15.61-6.24c1.25,.76,2.67,1.51,4.27,2.22,.29,.13,.58,.25,.87,.37-1.4,1.21-3.11,2.48-5.14,3.64-2.03-1.16-3.73-2.43-5.14-3.64,.29-.12,.58-.24,.87-.37,1.59-.71,3.01-1.46,4.27-2.22Zm.03,1.28l-3.13,1.34,6.19-.06-3.06-1.28Zm-1.81,5.9c-.41,.2-.84,.4-1.27,.6-2.07,.92-4.24,1.62-6.33,2.15-2.22-1.79-3.78-3.52-4.71-4.68,2.15-.42,4.53-1.02,6.97-1.89,1.36,1.22,3.12,2.55,5.35,3.82Zm-2.8-.78l-2.86-1.86-3.84,.96,6.69,.9Zm16.26,4.05c1.51,.31,2.95,.54,4.26,.71,0-.11,0-.22,0-.34,0-1.57-.11-3.09-.4-4.5-.71,1-1.94,2.49-3.86,4.13Zm-19.68,8.43c.46,.23,.92,.45,1.41,.66,2.16,.96,4.41,1.67,6.59,2.21,2.18-.54,4.43-1.26,6.59-2.21,.48-.21,.95-.44,1.41-.66-2.4-.39-5.14-1-7.99-1.98-2.85,.98-5.6,1.6-7.99,1.98Zm10.02-4.46c-.67,.3-1.34,.57-2.02,.82-.68-.25-1.36-.52-2.02-.82-2.23-.99-4.17-2.14-5.81-3.32,1.98-.54,4.06-1.25,6.15-2.18,.59-.26,1.15-.52,1.68-.79,.54,.27,1.1,.54,1.68,.79,2.09,.93,4.17,1.63,6.15,2.18-1.65,1.18-3.58,2.33-5.81,3.32Zm1.48-3.8l-3.55-1.49-3.63,1.56,7.18-.07Zm4.46,10.07c-1.59,.7-3.17,1.28-4.72,1.76,2.31,.42,4.4,.65,6.05,.78,1.94-.95,3.37-2.23,4.41-3.77-.8-.04-1.76-.1-2.84-.21-.9,.49-1.86,.97-2.91,1.44Zm-18.09-2.99c2.36-.33,5.07-.86,7.81-1.68-.35-.14-.71-.29-1.06-.45-2.76-1.22-4.99-2.58-6.76-3.9-2.15,.48-4.13,.77-5.81,.94,.02,.25,.04,.5,.07,.74,1.47,1.39,3.39,2.94,5.75,4.35Zm24.6,.45c.27-.54,.49-1.1,.68-1.68-.67,.52-1.41,1.04-2.22,1.56,.55,.05,1.07,.09,1.54,.12Zm4.76-22.47s-2.51-2.47-6.17-3.02c-3.65-.55-6.82,.05-7.82,2.55-.76,1.91-2.74,3.06-5.23,3.06s-4.28-1.21-5.53-3.03c-1.64-2.37-5.75-2.59-9.21-1.71-3.47,.88-4.04,3.02-4.04,3.02-2.98-1.93-.35-5.49,4.1-6.53,3.36-.78,7.95-.3,10.29,.9-.56-2.13-2.67-3.01-5.86-3.09-3.76-.1-6.55-1.23-6.55-1.23,4.26-3.04,7.84-3.54,11.88-2.54,.41,.1,1.18,.53,1.49,.68-.43-.9-2.03-2.48-2.03-4.14,0-1.91,3.35-3.36,4.72-5.59,1.07,2.18,4.8,3.64,4.8,5.23,0,2.87-2.29,4.11-2.5,4.89,.18-.11,.38-.22,.59-.33,3.57-1.85,9.82-2.61,13.38,.85,0,0-2.22,1.01-5.9,1.49-2.64,.35-4.87,1.38-5.34,3.16,2.11-1.06,5.64-1.46,8.6-1.16,4.8,.49,8.76,4.35,6.32,6.53Zm-20.68-4.3s-.03-2.43-2.2-4.23c-2.2-1.84-6.48-1.77-8-1.43,0,0,4.35-.13,7.1,2,1.46,1.14,3.1,3.66,3.1,3.66Zm13.5-.24c-1.7-.33-6.19-.39-8.64,1.37-2.41,1.73-1.71,4.25-1.71,4.25,0,0,1.08-2.61,2.72-3.7,3.07-2.05,7.64-1.92,7.64-1.92Z"/></g></svg>