<?xml version="1.0" encoding="UTF-8"?><svg id="b" xmlns="http://www.w3.org/2000/svg" viewBox="0 0 50 40"><defs><style>.d{fill:#949785;}</style></defs><g id="c"><path class="d" d="M45.44,9.29c.71-2.51,4.99-8.2,4.53-8.21-.46-.01-1.23-.65-1.73-1.08,0,0-3.8,5.2-4.76,5.57-1.09-3.41-3.19-4.36-6.02-3.42-1.54,.51-3.08,2.72-6.2,2.65,1.6,2.8,5.33,.69,7.4,.64,1.41-.04,3.02,1.44,3.55,2.25-.68-.25-1.26-.4-2-.31-.73,.09-2.97,.8-5.26,6.12,2.23-1.98,3.42,.59,5.41-.45,1.76-.92,3.14-3.21,3.14-3.21,0,0,1.57,2.16,.31,6.16-.6,1.9-4.69,5.98-2.25,8.87,.26-2.54,5.23-5.75,5.79-9.17,.56-3.42-.75-6.07-1.91-6.43Zm-7.68,2.05c1.32-2.65,2.56-4.02,4.41-2.88-.98,1.76-2.6,.52-4.41,2.88Zm.18-8.21c2.43-.27,4.02,.17,4.46,2.75-1.07-.91-1.9-2.34-4.46-2.75Zm4.22,13.67c1.24-3.94,.87-4.45,.87-4.45,0,0-1.68,1.86-3.51,2.33-2.08,.53-3.78-1.3-5.97,.65,1.6-6.37,3.07-7.06,3.69-7.55,.59-.47,1.35-.96,2.13-.91-.5-.53-1.03-.39-2.41-.15-1.64,.29-2.9,1.78-4.56,.59-2.67,.92-4.85,1.99-6.5,2.55C18.12,12.47-.99,4.09,.04,23.47c.03,.97,.12,2.01,.27,3.11,2.29,16.71,14.95,15.59,26.01,8.59,5.59-3.44,10.21-7.74,13.46-12.65-.41-3.01,2-4.55,2.37-5.72Zm-32.69,3.69c-2.69-.53-3.67-1.61-3.78-3.51-.11-1.89,1.53-3.6,3.67-3.81,.83-.08,4.64,1.32,8.16,1.3,5.58-.04,13.06-2.66,13.13-1.5,.11,1.89-18.42,8.07-21.18,7.52Z"/></g></svg>