<?xml version="1.0" encoding="UTF-8"?><svg id="b" xmlns="http://www.w3.org/2000/svg" viewBox="0 0 40 50"><defs><style>.d{fill:#bfb877;}</style></defs><g id="c"><path class="d" d="M36.62,8.56c.02-2.34,2.91-5.45,.49-7.87-2.42-2.42-7.18,2.28-8.62,2.29-1.44,0-14.81-2.23-22.73,10.25C-.4,22.93-2.25,33.54,3.34,42.88c.46,.76-.92,5.97,.38,6.93,1.26,.92,5.69-1.84,6.73-1.64,8.47,1.59,21.39-3.52,26.54-13.55,6.99-13.65-.39-23.73-.37-26.06ZM6.99,23.58c-1.22-.43-.66-6.83,6.8-13.43,5.8-5.12,13.64-4.99,15.16-4.99s5.76-3.57,6.42-3.01c.83,.71-3.78,5.08-5.27,4.92-2.71-.3-8.03,.82-13.87,5.66-7.69,6.36-6.8,11.71-9.25,10.85Zm16.01,19.98c-.66,0-1.19-.65-1.19-1.46s.53-1.46,1.19-1.46,1.19,.65,1.19,1.46-.53,1.46-1.19,1.46Zm2.84-4.61c-.66,0-1.19-.65-1.19-1.46s.53-1.46,1.19-1.46,1.19,.65,1.19,1.46-.53,1.46-1.19,1.46Zm.92-5.95c-.66,0-1.19-.65-1.19-1.46s.53-1.46,1.19-1.46,1.19,.65,1.19,1.46-.53,1.46-1.19,1.46Zm1.95-7.28c0-.8,.53-1.46,1.19-1.46s1.19,.65,1.19,1.46-.53,1.46-1.19,1.46-1.19-.65-1.19-1.46Zm1.76,11.5c-.66,0-1.19-.65-1.19-1.46s.53-1.46,1.19-1.46,1.19,.65,1.19,1.46-.53,1.46-1.19,1.46Zm1.33-5.23c-.66,0-1.19-.65-1.19-1.46s.53-1.46,1.19-1.46,1.19,.65,1.19,1.46-.53,1.46-1.19,1.46Zm1.34-9.53c0-.8,.53-1.46,1.19-1.46s1.19,.65,1.19,1.46-.53,1.46-1.19,1.46-1.19-.65-1.19-1.46Zm2.09,6.31c-.66,0-1.19-.65-1.19-1.46s.53-1.46,1.19-1.46,1.19,.65,1.19,1.46-.53,1.46-1.19,1.46Z"/></g></svg>