<?xml version="1.0" encoding="UTF-8"?><svg id="b" xmlns="http://www.w3.org/2000/svg" viewBox="0 0 32.24 60"><defs><style>.d{fill:#9e737f;}</style></defs><g id="c"><path class="d" d="M5.73,51.6c-.47,.07-.91,.12-1.3,.16-.23-.68-.42-1.39-.57-2.13,.56,.65,1.19,1.32,1.88,1.98ZM24.91,28.86c-.34,.8-.98,2.12-2,3.68,1.75,.91,3.52,1.57,5.17,2.05-.63-2.29-1.63-4.24-3.17-5.72Zm-13.74,30.35c1.41,.51,3.05,.79,4.95,.79s3.55-.28,4.97-.8c-1.43-.23-3.11-.61-4.93-1.24-1.84,.64-3.55,1.02-4.98,1.25Zm-1.43-4.41c-.84-.55-1.62-1.13-2.34-1.72-.9,.14-1.7,.22-2.35,.26,.83,1.84,2,3.39,3.56,4.52,1.34-.15,3.05-.43,4.94-.95-1.24-.57-2.52-1.27-3.8-2.11Zm9.14-6.15c-.28,.19-.57,.37-.85,.54,2.21,1,4.39,1.62,6.29,2.02,1.87-1.66,3.38-3.47,4.56-5.12,.03-.33,.05-.67,.07-1-1.34-.21-2.91-.55-4.62-1.12-1.43,1.58-3.22,3.21-5.45,4.68Zm8.63-12.39c-1.74-.5-3.65-1.22-5.61-2.27-1.1,1.47-2.52,3.06-4.31,4.58,.33,.25,.67,.48,1.03,.72,1.67,1.1,3.41,1.94,5.1,2.58,1.79-2.15,3.04-4.22,3.79-5.61ZM7.37,28.81c.34,.79,.98,2.13,2.02,3.72-1.78,.92-3.57,1.59-5.25,2.07,.63-2.32,1.65-4.3,3.23-5.79Zm.77,3.43l-1.17-1.87-.79,1.38,1.96,.49Zm4.01-5.85c-1.59,.32-2.39,.67-3.51,1.42,.48,.93,1.25,2.3,2.33,3.84,.22-.13,.43-.27,.65-.41,1.18-.78,2.26-1.64,3.23-2.55-1.1-.26-2.24-1.4-2.69-2.3Zm5.31,2.3c.98,.9,2.05,1.77,3.23,2.55,.21,.14,.43,.28,.65,.41,1.06-1.52,1.83-2.88,2.31-3.8-1.12-.75-1.77-1.09-3.36-1.41-.53,.98-1.8,1.84-2.83,2.26ZM3.57,37.43c-.24,1.73-.34,3.58-.34,5.51,0,.14,0,.28,0,.42,1.07-.2,2.26-.48,3.5-.86-1.59-2.03-2.6-3.87-3.16-5.07Zm12.58-7.48c1.01,.92,2.15,1.82,3.44,2.66,.23,.15,.47,.3,.7,.45-1.13,1.45-2.51,2.97-4.14,4.37-1.63-1.4-3.01-2.92-4.14-4.37,.23-.14,.47-.29,.7-.45,1.29-.85,2.43-1.75,3.44-2.66Zm.03,1.54l-2.52,1.61,4.99-.07-2.47-1.54Zm-1.46,7.08c-.33,.25-.67,.48-1.03,.72-1.67,1.1-3.41,1.94-5.1,2.58-1.79-2.15-3.04-4.22-3.79-5.61,1.74-.5,3.65-1.22,5.61-2.27,1.1,1.47,2.52,3.06,4.31,4.58Zm-2.25-.93l-2.3-2.23-3.09,1.15,5.39,1.08Zm13.11,4.86c1.21,.37,2.38,.65,3.43,.85,0-.13,0-.27,0-.41,0-1.89-.09-3.7-.33-5.4-.57,1.2-1.56,2.99-3.11,4.96Zm-15.86,10.12c.37,.27,.74,.54,1.13,.8,1.74,1.15,3.55,2.01,5.31,2.66,1.75-.65,3.57-1.51,5.31-2.66,.39-.26,.77-.52,1.13-.8-1.93-.46-4.14-1.2-6.44-2.38-2.3,1.18-4.51,1.92-6.44,2.38Zm8.07-5.35c-.54,.35-1.08,.68-1.63,.98-.55-.3-1.09-.63-1.63-.98-1.8-1.19-3.36-2.57-4.69-3.99,1.6-.65,3.27-1.5,4.96-2.61,.47-.31,.92-.63,1.36-.95,.43,.32,.89,.64,1.36,.95,1.68,1.11,3.36,1.96,4.96,2.61-1.33,1.41-2.89,2.8-4.69,3.99Zm1.19-4.55l-2.86-1.78-2.93,1.87,5.79-.08Zm3.59,12.09c-1.28,.85-2.56,1.54-3.8,2.11,1.86,.5,3.55,.78,4.88,.94,1.56-1.14,2.72-2.68,3.55-4.52-.64-.04-1.42-.12-2.29-.25-.72,.59-1.5,1.17-2.34,1.72Zm-14.58-3.59c1.9-.4,4.08-1.03,6.29-2.02-.28-.17-.57-.35-.85-.54-2.22-1.47-4.02-3.09-5.45-4.68-1.74,.57-3.33,.92-4.68,1.13,.02,.3,.04,.59,.06,.89,1.19,1.67,2.73,3.53,4.64,5.23Zm19.83,.54c.21-.65,.4-1.32,.55-2.02-.54,.62-1.13,1.25-1.79,1.87,.44,.06,.86,.11,1.24,.15Zm3.84-26.96s-2.02-2.97-4.97-3.62c-2.95-.65-5.5,.06-6.3,3.06-.61,2.29-2.21,3.67-4.21,3.67s-3.45-1.46-4.46-3.64c-1.32-2.85-4.63-3.11-7.43-2.05-2.79,1.05-3.25,3.62-3.25,3.62-2.4-2.31-.28-6.59,3.31-7.84,2.71-.94,6.41-.35,8.29,1.09-.45-2.55-2.15-3.61-4.72-3.71-3.03-.12-5.28-1.47-5.28-1.47,3.44-3.65,6.32-4.25,9.57-3.05,.33,.12,.95,.63,1.2,.82-.34-1.08-1.63-2.98-1.63-4.96,0-2.29,2.7-4.04,3.8-6.71,.86,2.62,3.87,4.36,3.87,6.27,0,3.44-1.85,4.93-2.01,5.87,.15-.13,.31-.27,.47-.4,2.88-2.22,7.91-3.13,10.78,1.02,0,0-1.79,1.22-4.75,1.79-2.13,.42-3.92,1.66-4.31,3.79,1.7-1.27,4.54-1.76,6.93-1.39,3.87,.59,7.06,5.22,5.09,7.83Zm-16.67-5.15s-.03-2.91-1.77-5.08c-1.77-2.2-5.22-2.12-6.45-1.71,0,0,3.5-.16,5.72,2.4,1.18,1.36,2.5,4.39,2.5,4.39Zm10.88-.29c-1.37-.39-4.99-.47-6.97,1.64-1.95,2.08-1.38,5.11-1.38,5.11,0,0,.87-3.13,2.19-4.44,2.48-2.46,6.15-2.31,6.15-2.31Z"/></g></svg>