<?xml version="1.0" encoding="UTF-8"?><svg id="b" xmlns="http://www.w3.org/2000/svg" viewBox="0 0 50 32.38"><defs><style>.d{fill:#966d8b;}</style></defs><g id="c"><path class="d" d="M30.66,11.56c.55,.9,.22,1.48-.4,1.85-.61,.37-1.28,.41-1.82-.5-.55-.9-.47-2.59-.16-2.77,.3-.18,1.84,.52,2.39,1.42Zm.63-.52c.88,.59,1.46,.28,1.86-.31,.4-.6,.46-1.26-.41-1.84-.88-.59-2.57-.58-2.76-.29-.2,.29,.44,1.86,1.31,2.45Zm-6.55,2.58c.13,1.05,.75,1.29,1.46,1.2,.71-.09,1.25-.48,1.12-1.53-.13-1.05-1.25-2.32-1.6-2.27-.35,.04-1.11,1.55-.98,2.6Zm-3.48-.04c.61,.38,1.27,.42,1.83-.48,.56-.9,.5-2.58,.2-2.77-.3-.19-1.84,.5-2.4,1.4-.56,.9-.23,1.47,.38,1.85Zm-.11-5.34c-.21-.29-1.89-.25-2.76,.36-.86,.61-.78,1.27-.37,1.86,.42,.59,1.01,.88,1.87,.26,.86-.61,1.45-2.19,1.25-2.48Zm-3.04-.84c1.06,.05,2.5-.83,2.51-1.18,.02-.35-1.34-1.36-2.39-1.41-1.06-.05-1.4,.52-1.43,1.24-.03,.72,.25,1.31,1.31,1.36Zm3.98,.26c.65-.08,1.43-.77,1.4-.99-.03-.22-.96-.68-1.61-.6-.65,.09-.79,.47-.74,.91,.06,.44,.3,.77,.94,.68Zm.2,1.75c.31,.31,.71,.43,1.17-.03,.46-.46,.65-1.49,.5-1.64-.16-.15-1.18,.05-1.64,.51-.46,.46-.34,.85-.03,1.17Zm5.03,1.11c.41-.16,.67-.48,.43-1.08-.24-.61-1.1-1.19-1.31-1.11-.2,.08-.42,1.1-.18,1.7,.24,.61,.65,.65,1.06,.49Zm-2.79,.23c.42,.12,.82,.04,1.01-.59,.18-.63-.13-1.62-.34-1.68-.21-.06-1.01,.6-1.2,1.23-.18,.63,.11,.91,.53,1.04Zm4.77-1.74c.28-.34,.36-.74-.15-1.16-.5-.41-1.54-.51-1.68-.34-.14,.17,.16,1.17,.67,1.58,.5,.41,.88,.26,1.16-.09Zm20.67,4.75l-.24,.78c-1,3.2-2.59,6.12-4.73,8.68-2.07,2.48-4.56,4.52-7.41,6.07-2.85,1.55-5.92,2.53-9.13,2.92-3.32,.4-6.65,.14-9.9-.77-3.25-.91-6.23-2.42-8.86-4.49-2.54-2-4.65-4.43-6.28-7.24C1.82,16.9,.76,13.86,.28,10.67-.21,7.37-.05,4.05,.76,.79l.2-.79,15.06,4.22-.08,.67c-.58,4.78,2.47,9.36,7.12,10.66,4.64,1.3,9.64-1.02,11.62-5.4l.28-.62,15.06,4.22Zm-2.54,.93l-11.91-3.34c-1.11,2.08-2.89,3.75-5.08,4.76-2.41,1.11-5.17,1.32-7.75,.59-2.58-.72-4.83-2.34-6.31-4.54-1.35-1.99-2-4.35-1.87-6.71L2.63,2.11C.13,13.91,7.28,24.5,19.25,27.86c11.97,3.36,24.69-3.09,28.22-13.17Z"/></g></svg>