<?xml version="1.0" encoding="UTF-8"?><svg id="b" xmlns="http://www.w3.org/2000/svg" viewBox="0 0 39.37 50"><defs><style>.d{fill:#977071;}</style></defs><g id="c"><path class="d" d="M18.89,12.96c-.51-4.4-3.06-5.98-2.73-8.82,.24-2.05,1.68-3.51,2.78-4.14-.45,.85-1.16,1.14-1.39,3.75-.29,3.33,2.8,5.18,3.19,8.85,.29,2.69-.78,3.96-4.17,5.59,1.47-1.56,2.58-3,2.33-5.24Zm1.3,5.47c2.67-1.11,3.53-2.03,3.47-4.11-.07-2.82-2.36-4.35-1.97-6.88,.31-1.99,.87-2.18,1.26-2.81-.88,.44-2.14,1.78-2.34,3.05-.35,2.16,1.47,3.46,1.63,6.84,.08,1.72-.85,2.78-2.05,3.91Zm-4.93-2.63c2.37-1.32,2.83-2.58,2.47-4.62-.49-2.79-3.3-3.87-3.49-6.41-.15-2,.36-2.29,.59-2.97-.76,.58-1.66,2.14-1.6,3.39,.1,2.18,2.22,3.14,3.15,6.43,.47,1.67-.2,2.87-1.12,4.18Zm24.07,7.93c-.24,.88-1.98,6.26-2.79,8.77-.25,.78-.87,1.6-1.32,2.03-.41,.39-6.94,5.71-8.24,6.76l-.36,1.95h8.18c-.46,2.67-4.73,4.93-10.66,5.92l-.32,.84H11.05s-.4-.84-.4-.84c-5.93-.99-10.2-3.24-10.66-5.92H8.11L3.73,18.62H31.16l-.37,1.99c2.71,.16,6.33,.39,6.98,.51,1.06,.2,1.8,1.68,1.55,2.59Zm-20.26,12.45c-.51-2.84-3.83-4.54-3.66-7.55,.17-3.01,1.37-3.57,2.14-4.28-2.71,.13-4.88,3.49-4.88,7.6s2.26,7.61,5.05,7.61c.57,0,1.03-.11,1.54-.38,.02-.2,.1-1.39-.19-3Zm3.7-4.23c0-3.84-1.89-7.02-4.35-7.53-.13,.22-1.96,2.1-1.56,5.19,.3,2.3,2.66,3.79,3.31,5.87,.46,1.46,.19,2.49-.02,3.14,1.56-1.3,2.62-3.79,2.62-6.67Zm13.35-8.95c-.47-.08-3.35-.21-5.69-.31l-2.73,14.79c2.22-1.53,5.33-3.68,5.75-4.01,.66-.51,1.43-1.47,1.67-2.24,.65-2.03,1.82-5.57,2.03-6.3,.29-1-.23-1.8-1.04-1.93Z"/></g></svg>