<?xml version="1.0" encoding="UTF-8"?><svg id="b" xmlns="http://www.w3.org/2000/svg" viewBox="0 0 39.06 50"><defs><style>.d{fill:#78a181;}</style></defs><g id="c"><path class="d" d="M34.63,15.14h-5.38l3.31-11.38,6.49-1.96-.17-1.8-8.51,2.29-3.75,12.85H10.61c-.19,0-.37,.1-.37,.21l1.31,34.65h22.23l1.21-34.66c0-.11-.15-.19-.35-.19Zm-7.57,18.4l3.64,6.87-7.01,3.71-3.64-6.87,7.01-3.71Zm-11.77-3.93l3.01-7.17,7.32,3.07-3.01,7.17-7.32-3.07Zm17.18,16.35H12.84l-1.15-30c0-.1,.16-.18,.33-.18h14.42l-1.44,4.93H13.49c-.15,0-.29,.07-.29,.15l1.02,23.84H31.03l.95-23.85c0-.08-.12-.13-.27-.13h-4.07l1.44-4.93h4.16c.18,0,.31,.07,.31,.17l-1.07,30.01ZM18.21,14.6c0-.25,.01-.33,0-.58-.27-5.02-4.56-9.04-9.59-8.77C3.6,5.51-.25,9.8,.01,14.82c.27,5.02,4.56,8.88,9.58,8.61,.13,0,.26-.02,.38-.03l-.47-8.76,8.7-.04ZM8.21,6.76l.38,7.11L3.38,9.19c1.21-1.39,2.91-2.32,4.83-2.42Zm-5.13,2.78l5.12,4.6-6.68,.36c-.1-1.82,.5-3.58,1.56-4.96Zm-1.54,5.3l6.68-.36-4.6,5.12c-1.2-1.26-1.98-2.94-2.08-4.76Zm2.41,5.11l4.69-5.21,.38,7.11c-1.93,.1-3.72-.64-5.06-1.89ZM8.79,6.87c1.82-.1,3.58,.5,4.96,1.56l-4.6,5.12-.36-6.68Zm5.42,1.9c1.34,1.26,2.2,3,2.22,4.93l-7.12,.09,4.89-5.02Z"/></g></svg>