<?xml version="1.0" encoding="UTF-8"?><svg id="b" xmlns="http://www.w3.org/2000/svg" viewBox="0 0 60 34.07"><defs><style>.d{fill:#85676e;}</style></defs><g id="c"><path class="d" d="M39.02,18.61c-.45-1.76-1.45-3.3-2.96-4.58-1.07-.91-2.67-1.28-3.94-1.5-.84-.15-1.74-.26-2.69-.38-1.03-.13-2.1-.26-3.18-.45-1.8-.32-4.45-.91-6.62-2.48-2.11-1.52-4.25-2.48-6.35-2.84-1.69-.29-3.34-.21-4.9,.26-1.44,.43-2.78,1.16-3.97,2.19C2.2,10.72,.63,13.49,.12,16.42c-.32,1.83-.01,3.75,.92,5.71,.83,1.77,2.18,3.55,3.9,5.15,1.66,1.55,3.68,2.95,5.84,4.04,2.22,1.12,4.59,1.93,6.87,2.32,4.66,.82,9.36,.44,13.22-1.06,1.99-.77,3.66-1.8,4.99-3.07,1.42-1.36,2.39-2.95,2.89-4.72,.64-2.31,.73-4.39,.27-6.19Zm-1.86,5.75c-.81,2.91-3.26,5.29-6.88,6.7-3.59,1.39-7.97,1.73-12.34,.97-4.23-.74-8.67-2.96-11.87-5.95-3.25-3.04-4.83-6.45-4.32-9.37,.89-5.09,5.34-9.73,11.25-8.7,1.86,.32,3.77,1.19,5.68,2.56,2.44,1.76,5.33,2.42,7.3,2.76,1.12,.2,2.21,.33,3.26,.46,.93,.12,1.81,.22,2.61,.36,1.58,.28,2.56,.63,3.15,1.14,2.55,2.17,3.26,5.14,2.17,9.07ZM13.87,12.16c.25,.21,.34,.5,.22,.91-.17,.62-1.02,.9-1.85,.76-.84-.15-1.66-.86-1.55-1.49,.11-.63,.8-1.24,1.67-.61,.5,.36,1.24,.21,1.5,.44Zm-4.14,8.4c.16,.62-.43,1.29-1.22,1.58-.8,.29-1.87,.08-2.09-.52-.22-.6,.08-1.47,1.14-1.37,.62,.06,1.18-.44,1.52-.38,.32,.06,.54,.27,.65,.68Zm13.2-.81c.21,.75-.48,1.58-1.43,1.97-.96,.38-2.26,.16-2.55-.56-.29-.72,.04-1.79,1.34-1.7,.75,.05,1.42-.57,1.83-.51,.39,.06,.67,.31,.81,.8Zm8.27-.8c.21,.18,.29,.43,.19,.78-.15,.53-.87,.77-1.58,.65-.71-.12-1.41-.74-1.32-1.27,.09-.54,.68-1.06,1.43-.52,.43,.31,1.06,.18,1.28,.37Zm-13.13,8.43c0,.47-.55,.83-1.17,.89-.62,.05-1.34-.3-1.38-.76-.04-.47,.33-1.03,1.07-.75,.42,.16,.92-.08,1.15,.03,.22,.1,.33,.29,.33,.6Zm10.69,1.25c0,.47-.55,.83-1.17,.89-.62,.05-1.34-.3-1.38-.76-.04-.47,.33-1.03,1.07-.75,.42,.16,.92-.08,1.15,.03,.22,.1,.33,.29,.33,.6ZM59.63,7.33c-.63-2.16-1.58-3.87-2.84-5.08-1.23-1.18-2.79-1.92-4.63-2.2-1.31-.2-2.77,.29-3.89,.75-.74,.3-1.52,.65-2.34,1.03-.89,.41-1.81,.83-2.76,1.21-1.6,.64-4.02,1.47-6.53,1.3-2.44-.17-4.63,.12-6.49,.87-1.49,.6-2.77,1.48-3.79,2.63-.63,.71-1.16,1.51-1.57,2.39,1.02,.31,2,.51,2.8,.65,1.08,.19,2.15,.32,3.18,.45,.44,.05,.86,.11,1.28,.16,.16-.27,.48-.46,.98-.42,.58,.04,1.1-.44,1.42-.39,.3,.05,.52,.24,.63,.62,.07,.24,.02,.5-.12,.74,.88,.24,1.77,.6,2.45,1.18,1.51,1.28,2.5,2.82,2.96,4.58,.46,1.8,.37,3.88-.27,6.19-.24,.88-.61,1.71-1.08,2.49,.49-.01,.99-.04,1.48-.08,2.33-.2,4.63-.73,6.64-1.54,4.14-1.66,7.71-4.28,10.07-7.39,1.21-1.6,2.04-3.25,2.47-4.92,.47-1.79,.46-3.54-.03-5.21Zm-15.11,10.31c-.58,.78-1.73,1.25-2.32,.81-.59-.44-.85-1.46,.23-2.02,.63-.33,.86-1.16,1.22-1.31,.34-.15,.69-.08,1.05,.24,.54,.49,.4,1.5-.18,2.28Zm6.42-7.71c-.63,.25-1.49,.11-1.69-.37-.19-.48,.03-1.18,.88-1.12,.49,.03,.94-.38,1.21-.34,.26,.04,.44,.2,.54,.53,.14,.49-.31,1.05-.94,1.3Z"/></g></svg>