<?xml version="1.0" encoding="UTF-8"?><svg id="b" xmlns="http://www.w3.org/2000/svg" viewBox="0 0 50 50"><defs><style>.d{fill:#8f8255;}</style></defs><g id="c"><path class="d" d="M0,36.58c.59-7.34,9.39-11.93,18.51-11.85,6.82,.06,14.19,3.25,16.64,7.25-1.55-.5-5.47-3.57-8.94-2.52-4.95,1.49-7.93,8.72-14.88,9.48-7.33,.8-10.81-2.04-11.33-2.36Zm35.61-3.41c-.62-.37-2.4-1.01-6.33-.42-9.26,1.39-12.06,11-19.37,11.34C3.35,44.4,1.21,40.31,0,38.06c.29,6.55,8.41,11.86,18.42,11.94,10.22,.09,18.54-5.3,18.58-12.04,0-1.38-.4-3.43-1.39-4.8ZM39.45,0c-1.3,1.66-2.7,7.05-1.92,12.89,.77,5.79,7.02,12.82,8.37,18.79,.95,4.2-1.72,8.96-2.15,10.84,3.5-2.99,6.25-11.95,6.25-20.2,0-11.04-4.1-21.68-10.55-22.33Zm-5.73,10.98c-.31-6.03,2.47-9.48,4.43-10.96-5.75,.4-10.36,10.27-10.36,22.39,0,.76,.02,1.52,.05,2.27,6.77,2.02,11.51,6.72,11.51,12.2,0,2.74-1.19,5.28-3.22,7.4,.76,.36,1.56,.55,2.37,.55,1.22,0,3.01-.51,4.21-1.72,.32-.75,.87-2.91,.32-7.67-1.29-11.21-8.83-14.97-9.32-24.45Z"/></g></svg>