<?xml version="1.0" encoding="UTF-8"?><svg id="b" xmlns="http://www.w3.org/2000/svg" viewBox="0 0 36.13 50"><defs><style>.d{fill:#6e9cbb;}</style></defs><g id="c"><path class="d" d="M13.04,12.32c.13-1.34,.76-2.2,1.69-2.68,.48-.25,1.03-.39,1.64-.45,.38-.04,.77,.17,1.18,.28,.1-1.1,.37-3.29,.86-4.72,.5-1.46,1.61-2.47,2.22-2.94-.02,0-.02,0-.02,0,.8-.42,.34-1.84,.44-1.81,.23,.19,1.35,.97,1.14,1.07-.34,.08-.66,.78-.7,.95,0,0,0,.01,0,.02,0,0,0,0,0,0-.08,.23-2.17,1.13-2.85,3.65-.47,1.75-.04,2.85-.03,3.78,.23-.04,.45-.06,.67,0,1.62,.49,2.78,1.53,2.83,3.27,0,.17,0,.36-.02,.55-.25,2.57-2.47,4.44-4.97,4.17-2.5-.27-4.32-2.57-4.07-5.14Zm22.07,15.14c-3.31,0-2.93-4.5-5.86-4.5s-3.09,4.56-5.39,4.56-3.21-4.13-5.77-4.13-2.84,4.08-6.15,4.08-2.93-4.5-5.86-4.5-3.06,4.32-5.33,4.32c-1.73,0-1.53-11.04,11.84-11.04,1.71,0,.86,2.33,4.97,2.33s3.17-2.39,4.87-2.39c12.96,0,15.45,11.29,12.68,11.29Zm-22.09-3.09c0-.62-.54-1.12-1.21-1.12s-1.21,.5-1.21,1.12,.54,1.12,1.21,1.12,1.21-.5,1.21-1.12Zm11.77,0c0-.62-.54-1.12-1.21-1.12s-1.21,.5-1.21,1.12,.54,1.12,1.21,1.12,1.21-.5,1.21-1.12Zm7.72,5.49l-2.4,16.32c-.28,2.17-1.91,3.82-4.25,3.82H10.4c-2.35,0-3.88-1.65-4.25-3.82L3.57,29.86c-.12-1.85,.8-4.17,2.43-4.17,2.13,0,3.2,4.31,5.75,4.31s2.84-4.08,6.15-4.08,2.93,4.5,5.86,4.5,3.37-4.67,5.64-4.67c2.08,0,3.33,2.71,3.11,4.1Zm-20.42,15.93l-2.24-12.57c-.12-.69-.79-1.16-1.48-1.03-.69,.12-1.16,.79-1.03,1.48l2.24,12.57c.12,.69,.79,1.16,1.48,1.03,.69-.12,1.16-.79,1.03-1.48Zm7.19,.22l-.04-12.77c0-.71-.58-1.27-1.28-1.27-.7,0-1.27,.58-1.27,1.28l.04,12.77c0,.7,.58,1.27,1.28,1.27,.71,0,1.27-.58,1.27-1.28Zm8.37-13.82c-.69-.12-1.36,.34-1.48,1.03l-2.24,12.57c-.12,.69,.34,1.36,1.03,1.48,.69,.12,1.36-.34,1.48-1.03l2.24-12.57c.12-.69-.34-1.36-1.03-1.48Z"/></g></svg>