<?xml version="1.0" encoding="UTF-8"?><svg id="b" xmlns="http://www.w3.org/2000/svg" viewBox="0 0 50 50"><defs><style>.d{fill:#c1a68f;}</style></defs><g id="c"><path class="d" d="M49.99,28.88c-.2-11.48-6.44-17.14-11.57-18.64-1.13-.33-5.85-.58-7.07-.3-1.44-.6-3.42-.96-4.34-4.11-.89-3.04-3.69-5.17-4.47-5.84-.25,.53-.9,.94-1.69,1.04,.61,.63,2.43,2.8,2.09,6.05-.17,1.7-2.87,3.87-3.38,4.26-.78,1.17,4.18,2.56,7.28,2.06,1.01-.16,2.7-.86,3.76-1.65-1.53,2.66-4.38,3.01-5.4,2.97-2.93-.12-4.79-.59-6.03-1.45-2.49-1.74,.8-2.85,.4-3.21-1.34-1.23-5.4-.52-9.08,.37C5.26,11.68,0,17.81,0,28.51s2.49,19.56,11.07,20.57c3.58,.42,5.27-.55,6.39-.55s2.49,1.47,7.48,1.47,5.47-1.38,7.38-1.38,2.77,.94,7.48,.55c8.88-.73,10.36-9.57,10.18-20.29ZM22.37,11.2c.55-1.03,1.65-1.41,1.56-4.32-.08-2.76-1.24-4.33-2.18-5.39,.07-.02,.25-.1,.32-.12,1.01,1.02,2.39,3.01,2.58,5.42,.21,2.65,.22,4.09,1.28,4.85-.87,.92-3.48,0-3.56-.44Zm6.22,.41c-1.4-.54-2.94-2.33-3.37-5.22-.37-2.46-2.19-4.55-2.84-5.17,.05-.02,.34-.25,.39-.28,.82,.68,2.79,2.96,3.26,5.09,.68,3.05,1.16,3.54,3.76,5.1-.27,.2-.8,.52-1.2,.48ZM9.38,22.91c-.39,3.52-.9,9.92-2,9.92s-2.42-3.16-2-9.64c.44-6.72,7.49-10.12,9.18-9.08,.59,.36-4.49,2.47-5.19,8.81Zm15.31,16.62c-1.46,0-2.64-4.73-2.64-10.56s1.18-10.56,2.64-10.56,2.64,4.73,2.64,10.56-1.18,10.56-2.64,10.56Zm15.98-10.5c-1.05,.33-1.66-5.4-2.83-8.99-1.42-4.36-3.5-7.32-3.03-7.54,.98-.47,3.53,1.24,5.69,7.27,1.14,3.19,1.05,9,.17,9.27Z"/></g></svg>