<?xml version="1.0" encoding="UTF-8"?><svg id="b" xmlns="http://www.w3.org/2000/svg" viewBox="0 0 50 37.9"><defs><style>.d{fill:#767fa2;}</style></defs><g id="c"><path class="d" d="M48.74,19.23c-.8-1.6-1.93-3.03-3.38-4.25-2.93-2.49-6.82-3.86-10.95-3.86-2.25,0-4.43,.42-6.42,1.2-.59-4.03-2.65-7.38-6.73-9.32,.05-.09,.09-.19,.12-.3,.22-.82-.26-1.66-1.07-1.88L17.56,.05c-.82-.22-1.66,.26-1.88,1.07-.03,.11-.05,.21-.05,.32C7.9,.75,3.17,6.57,.99,14.53-1.45,23.44,.31,31.68,9.68,34.25c4.92,1.35,8.82,.27,11.78-2.33,.59,.76,1.26,1.47,2.03,2.12,2.92,2.49,6.8,3.86,10.93,3.86s8.02-1.37,10.95-3.86c1.44-1.22,2.58-2.65,3.38-4.25,.83-1.67,1.26-3.45,1.26-5.28s-.42-3.61-1.26-5.28ZM11.18,10.3c-.62,1.43-3.29,4.07-4.56,3.73-1.28-.35-1.26-3.55-.07-5.79,1.19-2.25,5.37-4.7,6.59-3.8,1.24,.91-1.33,4.44-1.95,5.87Zm23.24,25.98c-4.98,0-9.35-2.18-11.85-5.45-1.39-1.83-2.21-3.99-2.21-6.32,0-4.61,3.18-8.6,7.79-10.53,1.89-.79,4.01-1.24,6.26-1.24,7.76,0,14.08,5.28,14.08,11.77s-6.32,11.77-14.08,11.77Zm2.53-17.39s-.48-.85-.25-1.62c.23-.77,.71-1.29,1.07-1.16,.36,.13,.48,.85,.25,1.62-.23,.77-1.07,1.16-1.07,1.16Zm3.6,3.09s.31-.94,1.01-1.23c.7-.29,1.37-.22,1.51,.16,.14,.38-.31,.93-1.01,1.23-.69,.29-1.51-.16-1.51-.16Zm-5.45,9.91c0,.81-.31,1.46-.69,1.46s-.69-.65-.69-1.46,.69-1.46,.69-1.46c0,0,.69,.65,.69,1.46Zm7.21-8.38c-.51,0-.94,.34-1.17,.56-.12-1.42-.8-2.73-1.96-3.74,.09-.01,.92-.13,1.33-.74,.44-.65,.54-1.38,.23-1.62-.31-.24-.92,.09-1.35,.75-.41,.61-.26,1.48-.23,1.6-.01,0-.02-.02-.03-.03-1.26-1.07-2.93-1.66-4.7-1.66,.09-.09,.67-.7,.67-1.44,0-.81-.31-1.46-.69-1.46s-.69,.65-.69,1.46c0,.75,.59,1.36,.68,1.44-.9,0-1.78,.16-2.59,.46,.07-.15,.42-.91,.2-1.59-.24-.76-.73-1.27-1.09-1.14s-.46,.86-.21,1.62c.22,.69,.93,1.06,1.07,1.12-.74,.28-1.43,.67-2.02,1.17,0-.27-.05-.99-.49-1.44-.47-.5-1.03-.72-1.34-.57-.04,.02-.08,.05-.11,.08-.15,.16-.14,.44-.03,.76,.1,.26,.27,.54,.51,.8,.42,.44,1.06,.49,1.33,.49-.62,.56-1.11,1.2-1.43,1.9-.09-.26-.34-.88-.85-1.17,0,0-.02-.01-.03-.02-.67-.35-1.35-.34-1.51,.04-.17,.37,.24,.96,.91,1.31,.08,.04,.16,.07,.25,.1,.47,.13,.96-.01,1.16-.09-.26,.62-.41,1.29-.42,1.98-.21-.21-.65-.58-1.16-.6-.02,0-.03,0-.05,0-.74,0-1.35,.34-1.35,.75,0,.31,.35,.58,.84,.69,.16,.03,.32,.06,.5,.06,.54,0,1.01-.39,1.22-.61,.03,.75,.21,1.47,.53,2.13-.05-.03-.83-.44-1.5-.16-.69,.29-1.14,.84-1,1.23,.14,.39,.81,.46,1.51,.16,.68-.29,.99-1.18,1-1.22,.3,.61,.72,1.17,1.25,1.66-.27,.05-.88,.23-1.21,.72-.44,.65-.54,1.38-.23,1.62,.31,.24,.91-.09,1.35-.75,.32-.48,.29-1.13,.26-1.44,.02,.02,.05,.05,.07,.07,.61,.52,1.32,.92,2.09,1.21-.09,.04-.84,.43-1.05,1.16-.23,.77-.11,1.49,.25,1.62,.36,.13,.84-.4,1.07-1.16,.21-.72-.18-1.5-.24-1.6,.81,.29,1.68,.44,2.58,.44s1.79-.16,2.61-.46c-.1,.22-.38,.91-.18,1.55,.24,.76,.73,1.27,1.1,1.14,.36-.13,.46-.86,.21-1.62-.2-.64-.82-1-1.03-1.1,.73-.28,1.4-.67,1.99-1.16,.03-.03,.06-.06,.09-.09,0,.25,.04,1,.49,1.47,.54,.56,1.19,.78,1.45,.48,.27-.3,.05-.99-.49-1.55-.44-.46-1.11-.49-1.36-.48,1.19-1.1,1.85-2.52,1.85-4.05,0-.02,0-.03,0-.05,.24,.22,.66,.54,1.15,.54,.75,0,1.35-.34,1.35-.75s-.61-.75-1.35-.75Zm-4.12,3.96c-1,.85-2.34,1.32-3.77,1.32s-2.77-.47-3.77-1.32c-.94-.8-1.47-1.85-1.47-2.96s.52-2.15,1.47-2.96c1-.85,2.34-1.32,3.77-1.32s2.77,.47,3.77,1.32c.95,.8,1.47,1.85,1.47,2.96s-.52,2.15-1.47,2.96Zm5.03,.35c-.17,.37-.85,.39-1.52,.04-.67-.35-.91-1.31-.91-1.31,0,0,.85-.39,1.52-.04,.67,.35,1.08,.94,.91,1.31Z"/></g></svg>