<?xml version="1.0" encoding="UTF-8"?><svg id="b" xmlns="http://www.w3.org/2000/svg" viewBox="0 0 42.21 50"><defs><style>.d{fill:#7195bc;}</style></defs><g id="c"><path class="d" d="M36.31,11.87c-3.81-1.63-7.79,1.5-13.61,1.07-1.4-1.82-3.49-5.51-3.74-6.68,2.33,2.63,6.06,3.78,9.68,3.37,2.14-.25,4.96-2.63,5.77-4.33C31.03,3.63,30.42,.38,24.54,.01c-4.13-.26-6.04,3.57-6.31,4.41,0,0-.18-1.59-.51-1.51,0,0-1.52,.63-1.52,.63-1.09,.51,1.91,6.94,4.18,9.2-5.46,.48-8.39-3.06-14.31-.89C-.61,14.32-.74,22.16,.82,29.49c2.28,10.7,6.75,17.07,12.47,19.58,1.61,.71,6.06-2.33,7.91-2.33s6.29,2.96,7.93,2.32c6.61-2.57,10.03-9.66,12.23-19.97,1.57-7.36,1.52-14.42-5.05-17.23ZM15.66,15.88c-1.71-.12-4.1-.31-4.84,1.41-.67,1.56,1.06,3.78,1.53,5.88,.49,2.2,.43,6.49-3.67,6.68-4.1,.18-5.73-5.34-5.27-10.04,.43-4.35,4.78-6.37,7.41-6.37s3.5,.94,5.02,1.1c1.72,.18,4.9-.49,4.9-.49-.67,.86-3.37,1.96-5.08,1.84Zm8.47,33.44c.56,.88-6.07,.96-5.6,0,.47-.96,1.65-1.51,2.79-1.51s2.24,.61,2.81,1.51Z"/></g></svg>