<?xml version="1.0" encoding="UTF-8"?><svg id="b" xmlns="http://www.w3.org/2000/svg" viewBox="0 0 23.72 60"><defs><style>.d{fill:#b37b8d;}</style></defs><g id="c"><path class="d" d="M8.11,55.82c3.05-.65,5.12-3.66,5.66-6.49,1.11-5.74-2.29-8.02-1.77-13.93,.43-4.86,1.99-7.42,2.8-8.07-.34-.08-.93,.18-1.43,.46,1.47-3.16,3.82-6.69,6.75-10.64,2.6-3.5,4-8.34,3.47-8.6-.53-.26-2.98,4.68-4.96,7.21-1.96,2.51-3.97,5.05-5.47,7.6,.03-.15,.07-.28,.1-.41C15.6,14.52,17.82,3.1,12.23,0c2.75,3.34,1.39,12.46-.76,22.11-.27-1.89-.49-3.94-.67-6.13-.36-4.34-2.52-8.9-3.09-8.74-.57,.16,.86,5.48,1.05,8.69,.2,3.32,.37,6.7,1.01,9.7-.02,4.55-.67,8.03-1.12,9.13-2.13,5.26-5.66,5.56-6.86,11.75-.53,2.74-.64,6.96,3.23,8.66-.15,.13-.3,.29-.43,.5-.94,1.41-1.5,2.93-1.31,3.01,.19,.08,.57-1.07,1.35-2.24,.14-.21,.38-.53,.63-.83,0,.22,.09,.39,.22,.41,.12,.02,.24-.07,.33-.24,.02,.18,.1,.32,.22,.34,.12,.02,.24-.07,.33-.24,.02,.18,.1,.32,.22,.34,.08,.02,.17-.03,.25-.12,.04,.57,.08,1.33,.08,1.73-.03,1.52-.58,2.07-.39,2.16,.19,.1,.8-.88,.82-2.71,0-.37-.05-.69-.12-.96,.06-.02,.12-.06,.17-.13,.02,.04,.04,.08,.06,.11,.54,1.13,.25,2.82,.46,2.73,.17-.07,.32-1.39,.04-2.61,.21,.19,.41,.38,.53,.52,.72,.86,.71,1.71,.91,1.55,.2-.16,.04-1.31-.83-2.34-.13-.16-.28-.26-.43-.33,0,0,0,0,0,0h0Zm-.81-13.16c-.99,1.25-2.29,2.31-2.83,4.57-.55,2.25-.24,4.13,.59,6.78-2.54-3.16-2.59-6.73-1.87-8.5,.69-1.69,2.16-3.2,3.23-3.87,1.3-.82,2.26-.72,.89,1.02Zm10.96,10.8s0,0,0,0c0,0,0,0,0,0,.12,0,.25,.02,.39,.08,.9,.41,1.64,1.73,1.57,1.9-.07,.17-.61-.98-1.36-1.33-.12-.06-.31-.12-.51-.18,.58,.74,.92,1.69,.84,1.79-.1,.13-.48-1.12-1.2-1.71-.02-.02-.05-.04-.07-.06-.01,.06-.04,.11-.07,.15,.14,.16,.28,.36,.4,.61,.59,1.26,.39,1.56-.1,.52-.13-.28-.41-.78-.62-1.15-.02,.09-.06,.15-.12,.16-.08,.02-.18-.04-.25-.16,0,.14-.05,.25-.13,.27-.08,.02-.18-.04-.25-.16,0,.14-.05,.25-.13,.27-.09,.03-.2-.06-.28-.21-.06,.29-.11,.58-.13,.77-.11,1.05,.42,2.22,.27,2.23-.15,0-.68-1.47-.55-2.74,.02-.19,.06-.35,.12-.48-1.12,.04-2-.17-2.69-.56,.89-1.15,1.49-2.54,1.75-3.89,1.09-5.67-2.2-7.96-1.79-13.71,.12,.73,.32,1.54,.65,2.4,1.63,4.2,5.29,5.16,6.49,9.44,.59,2.11,.75,4.33-2.22,5.75ZM2.92,25.53C.87,22.94-.32,19.3,.08,19.09c.4-.21,2.37,3.47,3.94,5.35,1.03,1.23,2.08,2.48,3.02,3.73-.51-2.84-1.47-6.08-2.69-9.69-1.31-3.86-1.16-8.57-.6-8.64,.55-.07,1.31,5.02,2.34,7.84,.97,2.65,1.98,5.34,2.59,7.92-.07,3.54-.51,6.35-.9,7.76-.3-.73-.65-1.51-1.05-2.32,.05-.03,.13-.02,.23,.02-1.09-1.72-2.46-3.56-4.03-5.53Z"/></g></svg>