<?xml version="1.0" encoding="UTF-8"?><svg id="b" xmlns="http://www.w3.org/2000/svg" viewBox="0 0 50 50"><defs><style>.d{fill:#8f6887;}</style></defs><g id="c"><path class="d" d="M26.17,8.98C25.35,6.46,25.06-.41,24.56,.02c-.5,.43-1.99,.79-2.96,1.02,0,0,2.76,6.75,2.11,7.9-14.14-6.73-17.87,0-23.71,.17,3.45,4.58,10.62,1.22,12.62,2.52-2.65,.95-.55,5.38-3.12,7.9,3.12,.06,4.54-4.15,6.7-6.17,1.47-1.37,5.49-1.94,6.88-1.96-.98,.5-1.77,.97-2.45,1.73-.69,.76-1.82,4.56,1.22,9.93,.35-3.32,3.74-4.17,4.8-6.7,.94-2.24,.05-4.92,.05-4.92,0,0,3.91-.22,6.68,3.37,1.32,1.7,1.15,8.05,6.73,7.43-2.34-1.76,4.81-7.25-4.59-10.95,1.24-.99,11.45,1.35,14.49-2.02-4.67,.17-10.75-5.89-23.83-.29Zm-18.07,.07c2.49-2.03,9.16-1.73,11.45,.17-2.96,1.79-7.36-1.34-11.45-.17Zm14.76,8.79c-1.32-2.84-1.4-4.85,1.74-5.94,.76,1.99-2.24,2.8-1.74,5.94Zm16.45-5.83c8.12,3.66,.47,10.69,2.8,12.45-8.88,.29-9.64-5.66-10.4-7.53-.99-2.44-2.8-3.07-2.8-3.07,0,0,.18,2.3-.76,4.54-1.06,2.53-5.2,2.99-5.26,7.27-6.02-3.36-5.13-10.42-4.44-11.18-.24,.05-2.04,1.56-3.21,3.15-1.65,2.25-2.63,3.66-9.4,3.62,4.03-2.99,1.75-7.69,4.69-8.73-5.39,.49-9.23,2.37-9.75,6.19-.86,6.33,8.45,17.57,12.07,22.7,1.46,2.07,6.62,8.58,12.31,8.58s9.66-6.12,11.45-8.58c4.99-6.84,11.56-18.05,10.67-22.7-.78-4.06-3.41-6.21-7.96-6.71ZM15.5,41.67c-.62,0-2.26-1.43-2.26-2.51s1.01-1.4,2.26-1.4,2.26,.32,2.26,1.4-1.64,2.51-2.26,2.51Zm7.11-10.1c1.42,0,2.57,.37,2.57,1.6s-1.87,2.86-2.57,2.86-2.57-1.63-2.57-2.86,1.15-1.6,2.57-1.6Zm.93,16.78c-.62,0-2.29-1.45-2.29-2.54s1.02-1.42,2.29-1.42,2.29,.33,2.29,1.42-1.66,2.54-2.29,2.54Zm6.68-6.18c-.7,0-2.57-1.63-2.57-2.86s1.15-1.6,2.57-1.6,2.57,.37,2.57,1.6-1.87,2.86-2.57,2.86Zm.39-11.65c-.7,0-2.57-1.63-2.57-2.86s1.15-1.6,2.57-1.6,2.57,.37,2.57,1.6-1.87,2.86-2.57,2.86Zm7.59,4.24c-.64,0-2.34-1.48-2.34-2.6s1.05-1.45,2.34-1.45,2.34,.33,2.34,1.45-1.7,2.6-2.34,2.6Z"/></g></svg>