<?xml version="1.0" encoding="UTF-8"?><svg id="b" xmlns="http://www.w3.org/2000/svg" viewBox="0 0 60 34.12"><defs><style>.d{fill:#788993;}</style></defs><g id="c"><path class="d" d="M20.29,21.95l-.36-.93,22.32-1.28c1.23-2.67,1.55-5.76,.59-9.28-.76-2.8-3.2-5.2-5.08-5.55-.12-1.32-.56-2.12-1.32-2.68-3.81-2.82-8.31-2.67-13.9-1.15-6.13,1.66-12.48,5.79-14.99,12.83-1.92,5.39-5.15,7.31-7.55,7.55,.36,3.96,3.96,7.19,7.91,8.87,4.9,2.08,13.6,1.65,19.76,0-2.96-1.95-6.11-5.05-7.39-8.36Zm-11.31,1.15c-2.34,1.35-6.2-.14-5.75-.18,3.96-.36,4.8-3.18,6.11-4.23,1.21-.96,3.31-.72,3.24,.36-.07,1.08-1.26,2.7-3.6,4.05Zm2.95-7.77c-.54-.6,2.04-5.04,5.32-8.15,1.43-1.36,5.41-3.78,8.54-4.32,3.21-.55,5.92,.24,6.02,1.26,.09,.9-4.12,2.9-6.82,3.71-2.7,.81-5.1,3-7.19,5.04-1.74,1.69-5.33,3.06-5.87,2.46ZM38.44,3.93c.02-.55-.22-.8,.53-2.22,.75-1.43,1.76-1.5,2.12-1.4,1.34,.37,3.05,1.57,2.95,2.56-.1,.99-1.44,1.07-2.24,1.38-.63,.25-1.06,.44-1.47,.93-.4-.62-1.26-1.07-1.89-1.24Zm21.53,16.57l-.04-.65-37.42,2.15,.32,.83c1.33,3.45,4.91,6.62,7.87,8.24,2.7,1.48,8.19,3.06,13.02,3.06h0c.93,0,1.81-.06,2.61-.18,4.32-.63,7.5-1.8,9.73-3.6,2.82-2.27,4.14-5.59,3.91-9.85Zm-5,8.45c-2.02,1.64-4.98,2.73-9.02,3.32-.73,.11-1.54,.16-2.4,.16h0c-4.58,0-9.75-1.49-12.29-2.9-2.4-1.33-5.42-3.93-6.84-6.74l33.97-1.97c.05,3.55-1.07,6.21-3.42,8.12Z"/></g></svg>