<?xml version="1.0" encoding="UTF-8"?><svg id="b" xmlns="http://www.w3.org/2000/svg" viewBox="0 0 50 50"><defs><style>.d{fill:#71b079;}</style></defs><g id="c"><path class="d" d="M49.73,30.77l-29.16,6.96c1.78,8.41,9.6,13.66,17.58,11.76,7.98-1.9,13.12-10.25,11.58-18.71Zm-5.97,3.95c.1-.23,1.19-.4,1.81-.08,.62,.33,.64,.8,.44,1.26-.2,.46-.55,.74-1.17,.41-.62-.33-1.17-1.37-1.07-1.6Zm-2.84,3.19c.18-.16,1.23,.19,1.66,.78,.43,.59,.27,1.02-.09,1.35-.36,.32-.79,.41-1.22-.17-.43-.59-.53-1.79-.35-1.95Zm-3.1-2c.19-.15,1.21,.28,1.61,.9,.39,.62,.2,1.04-.18,1.34-.38,.3-.81,.35-1.2-.27-.4-.62-.41-1.83-.23-1.97Zm-1.07,4.16c.22-.06,1.03,.77,1.18,1.51,.15,.74-.17,1.05-.63,1.16-.46,.11-.87-.01-1.02-.75-.15-.74,.25-1.86,.47-1.92Zm-2.68-3.35c.23,0,.84,1.01,.84,1.76,0,.76-.38,.98-.85,.98-.47,0-.84-.23-.84-.99,0-.76,.62-1.76,.85-1.75Zm-3.03,4.92c.16-.74,.97-1.56,1.19-1.5,.22,.06,.61,1.19,.46,1.92-.16,.74-.57,.86-1.03,.74-.45-.12-.78-.43-.62-1.17Zm-4.42-1.94c.25-.7,1.16-1.39,1.37-1.29,.21,.09,.45,1.27,.2,1.98-.25,.7-.68,.76-1.11,.57-.43-.19-.71-.55-.46-1.26Zm11.06,7.46c-7.36,1.76-14.46-2.6-15.74-8.12-.06-.24,.27-.33,.39-.01,1.69,4.58,8.03,7.42,14.88,5.78,6.66-1.59,11.33-6.82,11.44-11.7,.01-.5,.43-.79,.46-.31,.33,6.25-4.6,12.74-11.43,14.37Zm-14.52-3.15s.06,.08,.1,.12c-.03-.04-.06-.08-.1-.12Zm-1.79-2.85c.51,1.02,1.11,1.98,1.79,2.85-.07-.09-.14-.18-.21-.28-.07,.2-.13,.41-.2,.61-.44,1.38-.86,2.69-1.96,3.35-.93,.57-1.67,.85-2.26,1.02,.63-.55,1.2-1.15,1.66-2.06,.35-.69,.43-1.4,.53-2.22,.1-.8,.2-1.7,.58-2.84,.03-.1,.08-.21,.12-.3-.02-.04-.04-.09-.06-.13Zm1.89,2.98c.04,.05,.08,.1,.12,.16-.03,.09-.06,.18-.09,.27-.46,1.44-.94,2.92-2.22,3.7-1.71,1.03-3.86,1.06-3.86,1.06,0,0,1.95-1.91,2.49-2.97,.3-.59,.37-1.21,.47-2,.1-.83,.21-1.77,.61-2.98,.09-.27,.21-.51,.34-.75,.06,.13,.12,.25,.18,.38-.61-1.25-1.08-2.6-1.38-4.04l5.5-1.51c.4-1.57-.27-2.62-1.05-3.83-.6-.94-1.22-1.9-1.34-3.18-.09-.96,.38-1.82,.83-2.66,.51-.93,.98-1.81,.7-2.75-.26-.85-1.13-1.32-1.97-1.78-.83-.45-1.61-.88-1.8-1.66-.13-.54-.17-1.01-.2-1.47-.05-.74-.09-1.38-.58-2.09-.53-.77-2.12-2.04-2.97-2.7-.26-.2-.46-.35-.53-.4,.07,.1,.22,.34,.39,.63,.37,.63,.84,1.53,.87,2.08,.06,.89-.58,2.73-.23,4.07,.35,1.33,1.85,2.1,1.85,3.62,0,1.78-1.33,2.6-1.33,4.57s2.08,3.49,2.02,5.97c-.05,2.35-2.19,3.81-2.37,5.72-.17,1.91,.98,3.62,.29,6.1-.34,1.21-1.42,2.88-1.59,3.14h-.02c-.17-.26-1.25-1.93-1.59-3.14-.69-2.48,.46-4.19,.29-6.1-.17-1.91-2.31-3.37-2.37-5.72-.06-2.48,2.02-4,2.02-5.97s-1.33-2.79-1.33-4.57c0-1.52,1.5-2.29,1.85-3.62,.3-1.14-.13-2.66-.22-3.63-.02-.16-.02-.31-.01-.44,.05-.81,1.06-2.41,1.26-2.72-.31,.18-.68,.4-1.06,.63-1,.6-2.15,1.37-2.77,2.28-.85,1.24-.48,2.29-.82,3.67-.35,1.38-3.21,1.6-3.77,3.43-.6,1.99,1.69,3.62,1.51,5.48-.27,2.79-3.16,4.13-2.38,7.15,.72,2.79,3.87,3.6,4.65,5.94,.78,2.33,.45,3.73,1.1,5.02,.65,1.29,1.54,1.92,2.52,2.75-.71-.11-1.77-.23-3.51-1.27-1.73-1.05-1.9-3.54-2.77-5.35-.87-1.81-4.29-1.04-5.59-5.56-1.34-4.67,1.61-7.02,1.86-9.15,.14-1.19-1.86-4.51-.52-6.86,1.07-1.87,4.33-1.94,5.28-2.95,.48-.52,.12-2.1,.98-3.05,.99-1.09,3.34-1.86,4.63-2.14,.34-.07,.61-.11,.75-.11,.16,0,.47,.03,.87,.09,1.31,.21,3.58,.79,4.62,1.93,.56,.62,.67,1.45,.75,2.12,.05,.4,.1,.79,.23,.93,.33,.36,1.08,.61,1.87,.87,1.29,.43,2.76,.92,3.45,2.14,.97,1.7,.34,3.81-.12,5.36-.2,.67-.39,1.31-.35,1.63,.07,.62,.42,1.29,.81,2.07,.44,.86,.93,1.83,1.2,3,.1,.42,.15,.84,.17,1.27l2.34-.64c.14-1.01,.19-1.59,.19-2.64,0-9.95-6.48-18.11-14.76-18.97,.44-1.24,.6-2.74,.15-4.69-.23-1.03-.97-2.61-2.28-3.87-1.22-1.17-3.04-1.42-4.36-1.1-.78-.86-1.8-1.46-3.05-1.93-1.79-.67-2.7-.31-2.62,.1,.03,.15,1.21,0,2.31,.5,.68,.3,1.54,.73,2.5,1.65-1.98,.97-3.47,3-2.7,5.49,.29,.92,1.77,2.5,3.59,1.8,.72-.27,1.41-1.07,1.75-1.92,.46-1.15,.61-3.06-.82-4.56,.82-.06,1.5,.15,2.22,.65,1.04,.71,1.73,1.92,2.08,3.37,.45,1.87,.23,3.29-.25,4.44C7.25,11.91,0,20.43,0,30.94s7.26,19.06,16.22,19.06c3.48,0,6.71-1.29,9.35-3.49-.84-.7-1.61-1.5-2.3-2.37ZM12.45,7.65c-.21,.69-.82,1.34-1.38,1.55-1.49,.57-3.27-1.06-2.33-3.34,.45-1.08,1.75-2.05,2.62-2.31,1.12,1.11,1.48,2.8,1.09,4.09Zm13.59,27.64c.3-1.68-.45-2.88-1.19-4.03-.56-.87-1.13-1.77-1.24-2.88-.07-.74,.33-1.48,.75-2.26,.55-1.01,1.12-2.06,.75-3.28-.33-1.1-1.36-1.66-2.26-2.15-.71-.39-1.37-.75-1.5-1.26-.12-.48-.15-.92-.18-1.35-.05-.77-.1-1.57-.69-2.43-.46-.67-1.25-1.35-1.98-1.97,1.02,.38,2.36,.93,2.99,1.62,.43,.47,.51,1.15,.58,1.75,.06,.52,.12,1,.4,1.3,.43,.46,1.21,.72,2.11,1.02,1.2,.4,2.55,.85,3.13,1.87,.83,1.45,.27,3.32-.18,4.82-.24,.81-.43,1.44-.37,1.91,.09,.74,.45,1.46,.88,2.29,.57,1.12,1.22,2.43,1.31,4.12l-3.29,.9Z"/></g></svg>