<?xml version="1.0" encoding="UTF-8"?><svg id="b" xmlns="http://www.w3.org/2000/svg" viewBox="0 0 50 37.41"><defs><style>.d{fill:#8e8680;}</style></defs><g id="c"><path class="d" d="M49.4,18.21c-1.36-5.33-4.48-9.06-8.28-9.35-.6-.05-.62,1.12-1.97,1.46-1.53,.38-1.99-.78-2.58-.39-3.19,2.1-4.23,6.74-2.91,11.96,1.57,6.18,6.11,10.18,10.95,9.18,4.84-1,6.36-6.68,4.79-12.86Zm-8.91-3.9c-.56,.19-1.7,.02-2.04,.82-.3,.73,.54,1.23,.55,2.74,0,1.11-.2,2.27-1.98,2.16-1.78-.1-2.24-3.18-1.53-5.29,.96-2.85,1.59-1.31,2.46-1.2,.78,.1,1.5,0,2.73-.33,.71-.19,.51,.86-.19,1.1Zm7.05,12.36c-1.07,2.39-1.91,.78-1.28-.71,.63-1.49,1.12-4.03,1.45-3.9,.74,.29,.45,3.24-.16,4.6Zm-19.01-8.78c-.47-.34-1.09,.58-2.37,.15-1.44-.48-1.22-1.63-1.9-1.62-3.7,.04-6.98,3.19-8.64,8-1.96,5.7-.44,12.03,4.09,12.86,4.53,.83,8.68-2.05,10.64-7.75,1.7-4.92,1.11-9.46-1.83-11.64Zm-6.6,5.33c.02-.08,.04-.18,.08-.31-.11,.2-.23,.39-.34,.57-.57,.88-2.06,2.27-2.94,1.6-.88-.67,.82-4.07,1.67-5.05,.87-.99,2-.8,2.3-.48,.3,.32,.26,.95,.06,1.64,.36-.55,.8-.95,1.3-.77,1.12,.41,.67,2.43-.31,3.62-1.32,1.6-1.94-.22-1.82-.82Zm2.48,12.07c-2.12,1.35-1.97-.35-.67-1.21,1.29-.86,3.02-2.62,3.22-2.35,.44,.61-1.34,2.8-2.55,3.57Zm-9.89-11.22c-1.19,3.03-1.37,6.3-.57,8.82-2.22,.42-4.34-.09-6.07-1.52-3.14-2.6-1.58-8.13,2.39-11.68,3.29-2.94,7.1-3.96,9.95-2.52-2.37,1.15-4.41,3.61-5.7,6.9ZM0,7.48C-.22,4.53,5.54,2.89,12.74,2c6.48-.8,11.2,.54,13.13,1.53,.69,.35,4.32,.15,6.46,.43C33.82,1.88,35.29,.04,35.55,0c.33-.05,1.15,.77,1.02,1.01-.06,.12-.53,.71-1.19,1.56,.79,.52,1.91,1.44,2.54,2.38,1.13,1.69,2.02,4.09,1.74,4.51-.28,.42-.96,.72-1.49,.26-.05-1.13-.41-2.46-1.49-4.15-.59-.93-1.39-1.59-2.04-2.04-1.3,1.73-2.95,4.06-3.94,6.04-1.68,3.38-1.1,5.37-1.96,6.84,0,0-.9,1.22-1.84,1.13-1.06-.11-1.3-.93-1.3-.93,.18-.83,2.54-5.86,3.79-8.17,.35-.64,.84-1.44,1.39-2.28-1.13,.68-2.19,1.32-2.36,1.57-.94,1.39-3.42,4.23-8.11,6.32-5.08,2.28-9.51,3.49-10.5,1.45-.99-2.03,2.82-4.52,7.9-6.79,4.58-2.05,8.44-2.18,10.15-1.93,.62,.09,2.58-1.45,3.61-1.97-1.03-.43-4.89-.28-5.4,.11-.36,.28-.82,.6-1.38,.96-2.05,.18-4.8,.7-7.75,2.02-1.29,.58-2.97,1.39-3.83,1.83C5.94,10.64,.23,10.43,0,7.48Z"/></g></svg>