<?xml version="1.0" encoding="UTF-8"?><svg id="b" xmlns="http://www.w3.org/2000/svg" viewBox="0 0 38.06 60"><defs><style>.d{fill:#8b8ca2;}</style></defs><g id="c"><path class="d" d="M17.25,52.24c-.1-.69,1.77-.42,2.67-.94,.09-.05,.17-.1,.25-.15,.08-2.24,.09-4.77,.03-7.44-.13,.11-.27,.22-.42,.31-.9,.52-3.43,.22-3.47-.11-.1-.69,1.77-.42,2.67-.94,.5-.29,.89-.6,1.18-.79-.07-2.27-.19-4.62-.35-6.96-.2,.25-.45,.48-.75,.65-.9,.52-3.43,.22-3.47-.11-.1-.69,1.77-.42,2.67-.94,.67-.39,1.15-.82,1.46-.93-.08-1-.16-1.99-.25-2.97-.13-1.32-.23-2.63-.33-3.89-.2,.27-.49,.52-.8,.71-.9,.52-3.43,.22-3.47-.11-.1-.69,1.77-.42,2.67-.94,.71-.41,1.19-.86,1.5-.95-.21-2.53-.46-4.86-.91-6.81-.2,.28-.51,.54-.83,.73-.9,.52-3.43,.22-3.47-.11-.1-.69,1.77-.42,2.67-.94,.56-.32,1.01-.68,1.32-.86-.26-.85-.58-1.62-.98-2.26-.58-.94-2.33-1.33-4.44-1.28-.27-.52-.76-.93-1.38-1.18,.06-.6,.06-1.23-.07-1.83-.87-4.03,.92-9.47,.92-9.47l-3.03,.11s-1.17,5.13,.51,9.29c.19,.47,.26,1.02,.27,1.6-.05,0-.1,0-.16,0-.14-.69-.35-1.38-.67-2.01C6.59,6.49,6.1,0,6.1,0L3.22,.92s1.59,6.78,3.76,10.37c.31,.51,.51,1.14,.64,1.8-.05,.02-.1,.04-.16,.07-.6-2.26-4.87-7.59-4.87-7.59L0,7.12s4.3,3.54,5.9,7.32c-.23,.35-.36,.74-.38,1.13-2.05,.8-3.66,1.89-4.03,3.16-1.06,3.62,4.14,14.01,5.48,16.83,6.09,12.8,8.82,24.98,11.45,24.41,.9-.2,1.45-3.12,1.68-7.43-1.11,.2-2.81-.05-2.85-.31Zm-2.08-.65c-.73-.12-5.64-15.07-8.63-22.6-1.21-3.03-4.09-8.1-1.76-8.79,2.91-.86,3.16,3.56,5.01,9.18,2.5,7.62,6.12,22.32,5.38,22.2Zm21.35-29.27s.03,0,.04,0l-.22,1.15s-.02,.01-.03,.02c-.42,1.9-1.19,4.04-2.07,6.34,0,0,.02,0,.03,0l-.45,1.16s-.02,.01-.04,.02c-.44,1.15-.9,2.33-1.35,3.54-.33,.89-.67,1.8-1.03,2.7,.01,0,.02,0,.04,0l-.46,1.18s-.03,.02-.05,.03c-.84,2.11-1.73,4.22-2.62,6.24,.01,0,.03,0,.04,0l-.61,1.35s-.03,0-.04,.01c-1.07,2.36-2.15,4.58-3.16,6.5,.01,0,.03,0,.04,0l-.65,1.22s-.02,0-.04,0c-1.6,2.91-3,4.98-3.95,5.62,1.7-2.62,2.45-16.02,1.98-27.61-.21-5.17-.09-10.03-1.06-13.33,.27-.79,.59-1.43,.98-1.87,.86-.96,2.73-1.27,4.86-1.14,.19-.33,.47-.61,.82-.83,.19-3.97-2.08-8.81-2.08-8.81l2.92-.32s1.49,6.41,1.07,8.63c.05,0,.11,0,.16,0,.16-.63,.25-1.26,.2-1.83-.38-4.02,1.08-10.61,1.08-10.61l2.92,.36s-2.31,5.89-2.19,10.47c.02,.68-.09,1.37-.26,2.03,.05,.02,.09,.04,.14,.07,.23-.51,.4-1.03,.43-1.51,.28-4.33,3.47-8.35,3.47-8.35l2.7,1.13s-3.86,4.04-4.8,7.93c-.14,.57-.4,1.12-.71,1.63,.43,.47,.69,1.03,.71,1.59,1.87,.82,3.24,1.87,3.35,2.93,.08,.73,.04,1.52-.09,2.38Z"/></g></svg>