<?xml version="1.0" encoding="UTF-8"?><svg id="b" xmlns="http://www.w3.org/2000/svg" viewBox="0 0 37.73 50"><defs><style>.d{fill:#ac7aa0;}</style></defs><g id="c"><path class="d" d="M37.57,9.24c-.39,.05-2.08-1.24-2.21-1.36,.17-.1,.27-.19,.33-.46-.4-.05-.96-.49-1.17-.7-2.1-2.17-5.05-5.1-8.7-6.23-5.18-1.6-6.25,1.23-6.74,2.17-.12,.23-.43,.67-.86,1.04,0-.15-.44-.33-.58-.24-.21,.14-1.39,2.56-1.63,3.86-.11,.58-.12,2.07-.17,2.82-.05,.67-.14,1.28-.02,1.73-.26-.08-.5-.14-.76-.07-6.04,1.55-5.68,11.56-6.25,13.04-1.4,3.62-12.73,9.62-7.37,21.03,2.82,6.01,12.2,3.56,14.51,3.56,2.13,0,11.37,2.47,14-2.84,5.21-10.53-4.48-16.67-6.25-21.66-.36-1.01,.23-11.59-5.48-13.14-.24-.06-.51,.01-.79,.1,.18-.95-1.1-1.73-.91-3.79,.09-.96,.51-2,.92-2.84,.14,.08,1.01-.26,1.43,.08,.6,.49,.35,6.57,8.04,7.43,2.33,.26,6.21-1.53,8.38-2.33,.13-.05,.92,.11,1.04,.07-.14-.11-.3-.41-.56-.57,1.4,.15,2.37-.79,1.81-.72ZM9.45,37.82c-1.24,3.24-1.13,5.95-2.77,5.32-1.64-.63-2.85-3.82-1.61-7.05,1.24-3.24,4.46-5.29,6.1-4.67,1.64,.63-.48,3.16-1.72,6.4Z"/></g></svg>