<?xml version="1.0" encoding="UTF-8"?><svg id="b" xmlns="http://www.w3.org/2000/svg" viewBox="0 0 40 50"><defs><style>.d{fill:#a3625e;}</style></defs><g id="c"><path class="d" d="M30.94,42.14c3.23-6.46,3.56-16.86,2.7-21.25-1.15-5.85-9.26-1.88-12.49-1.88s-12-4.03-13.95,1.88c-1.88,5.72,1.25,16.32,3.45,21.25,1.14,2.56,2.61,5.86,5.58,6.59,2.48,.6,5.12-.57,6.15-.48,.84,.07,1.59,1.1,2.91,.97,2.48-.25,4.1-3.98,5.64-7.07ZM12.99,29.82c-1.37,.22-2.98-.99-3.41-2.45-.55-1.83-.37-5.32,.63-6.54,1-1.23,3.34,0,3.34,0-1.63,.14-1.67,1.4-1.6,2.23,.19,2.09,2.3,2.27,2.71,3.23,.73,1.7-.26,3.32-1.67,3.54Zm7.24-5.99c-.28,.73-1.24,1.14-1.98,.91-.93-.29-2.35-1.43-2.59-2.28-.24-.85,1.05-.38,1.42-.17,.94,.54,1.6-.42,2.11-.33,.92,.16,1.33,1.13,1.04,1.88Zm-4.76,25.15s.02,0,.03,0c-1.36,.56-3.1,1.23-4.68,.89-3.08-.67-4.71-4.18-5.97-6.9C2.43,37.73-1.52,26.25,.6,20.13c1.72-4.96,5.93-4.25,9.51-3.29-2.18,.26-4.07,1.23-4.82,3.8-1.76,5.97,1.8,16.77,4.22,21.77,1.26,2.59,2.88,5.94,5.96,6.57Zm18.97-5.77c-1.96,3.1-4.08,6.87-6.65,6.78-.39-.01-.88-.2-1.41-.46,2.47-.36,4.16-4.07,5.76-7.15,3.44-6.59,3.96-17.31,3.14-21.85-.47-2.63-2.48-3.53-4.88-3.71,3.99-.91,8.58-1.48,9.43,3.89,.76,4.8-1.29,16.01-5.39,22.49ZM12.9,4.41c.02-2.3-1.31-2.08-.89-4.11,.22-.37,3.31-.57,5.32,.43,2,1,3.15,3.75,4.16,6.86,1,3.11,.74,5.15,1.21,6.53,.66,1.95,4.25,1.01,4.03,1.88-.22,.87-4.1,1.59-6.26,1.48-3.09-.15-6.56-1.9-5.45-1.77,1.11,.12,4-2.21,4-5.08s-1.2-6.25-3.34-7.1c-.89-.35-2.51,.51-2.78,.87Z"/></g></svg>