<?xml version="1.0" encoding="UTF-8"?><svg id="b" xmlns="http://www.w3.org/2000/svg" viewBox="0 0 50 30.92"><defs><style>.d{fill:#8166b0;}</style></defs><g id="c"><path class="d" d="M45.44,7.18c.71-1.94,4.99-6.34,4.53-6.35-.46,0-1.23-.5-1.73-.83,0,0-3.8,4.02-4.76,4.31-1.09-2.63-3.19-3.37-6.02-2.64-1.54,.4-3.08,2.1-6.2,2.05,1.6,2.17,5.33,.54,7.4,.49,1.41-.03,3.02,1.11,3.55,1.74-.68-.19-1.26-.31-2-.24-.73,.07-2.97,.62-5.26,4.73,2.23-1.53,3.42,.46,5.41-.35,1.76-.71,3.14-2.48,3.14-2.48,0,0,1.57,1.67,.31,4.77-.6,1.47-4.69,4.62-2.25,6.85,.26-1.96,5.23-4.45,5.79-7.09,.56-2.64-.75-4.7-1.91-4.97Zm-7.68,1.59c1.32-2.05,2.56-3.11,4.41-2.23-.98,1.36-2.6,.4-4.41,2.23Zm.18-6.35c2.43-.21,4.02,.13,4.46,2.12-1.07-.71-1.9-1.81-4.46-2.12Zm4.22,10.57c1.24-3.04,.87-3.44,.87-3.44,0,0-1.68,1.44-3.51,1.8-2.08,.41-3.78-1-5.97,.5,1.6-4.92,3.07-5.46,3.69-5.84,.59-.36,1.35-.74,2.13-.71-.5-.41-1.03-.3-2.41-.11-1.64,.23-2.9,1.38-4.56,.46-2.67,.71-4.85,1.54-6.5,1.97C18.12,9.64-.99,3.16,.04,18.15c.03,.75,.12,1.55,.27,2.41,2.29,12.92,14.95,12.05,26.01,6.64,5.59-2.66,10.21-5.98,13.46-9.78-.41-2.33,2-3.52,2.37-4.42ZM9.46,15.84c-2.69-.41-3.67-1.25-3.78-2.71-.11-1.46,1.53-2.78,3.67-2.95,.83-.06,4.64,1.02,8.16,1.01,5.58-.03,13.06-2.06,13.13-1.16,.11,1.46-18.42,6.24-21.18,5.81Z"/></g></svg>