<?xml version="1.0" encoding="UTF-8"?><svg id="b" xmlns="http://www.w3.org/2000/svg" viewBox="0 0 50 50"><defs><style>.d{fill:#ac6e8b;}</style></defs><g id="c"><path class="d" d="M26.21,38.42c-.45,4.47-1.17,7.14-1.9,8.85-.91,2.13-3.47,3.1-6.4,2.59-2.33-.4-4.04-3.82-4.17-6.4-.19-3.77,2.01-7.01,2.51-9.22,.83-3.72-1.24-9.53,1.54-11.69,.93-.72,3.79-.73,4.7-.04,2.81,2.13,4.43,8.92,3.73,15.91ZM11.59,21.12C4.48,23.2,.07,24,0,20.52-.14,13.37,7.85,.67,19.53,.03c11.67-.65,22.07,10.3,22.39,17.45,.21,4.68-4.64,4.78-10.95,4.15-3.32-.33-6.83-1.45-10.44-1.62-3.17-.15-6.39,.37-8.93,1.11ZM17.78,3.43c-.02-.38-4.03,.27-7.24,3.19-3.21,2.92-5.58,5.58-5.82,9.03-.1,1.46,.84,3,1.96,3.2,.97,.18,3.88,.27,4.8-1.08,1.19-1.73-.58-5.36-.12-7.57,.83-3.98,6.42-6.39,6.4-6.77Zm23.64,33.57c-.44-.34-1.8-.35-2.23-.02-1.33,1.01-2.1,4.23-1.77,7.53,.21,2.12,.56,3.38,.9,4.19,.43,1.01,1.65,1.47,3.04,1.23,1.11-.19,1.92-1.81,1.98-3.03,.09-1.79-.95-3.32-1.19-4.37-.39-1.76,.59-4.51-.73-5.54Zm8.58-.61c-.03,1.65-2.12,1.27-5.49,.28-1.21-.35-2.73-.6-4.24-.53-1.71,.08-3.38,.61-4.95,.76-2.99,.3-5.29,.25-5.19-1.96,.15-3.38,5.07-8.57,10.61-8.26,5.54,.31,9.32,6.32,9.25,9.71Zm-11.26-8.09c0-.21-1.87,.25-3.43,1.51-1.59,1.28-2.74,2.57-2.85,4.21-.05,.69,.08,1.59,1.02,1.59,.9,0,1.85-2.41,2.22-4.1,.42-1.88,3.04-2.99,3.04-3.21Z"/></g></svg>