<?xml version="1.0" encoding="UTF-8"?><svg id="b" xmlns="http://www.w3.org/2000/svg" viewBox="0 0 50 50"><defs><style>.d{fill:#6d7eb9;}</style></defs><g id="c"><path class="d" d="M15.19,30.47c2.57-1,3.6-3.41,2.3-5.39-1.3-1.97-4.44-2.76-7.01-1.76-2.57,1-3.6,3.41-2.3,5.39,1.3,1.98,4.44,2.76,7.01,1.76Zm-4.02-2.29c-.68-1.03-.14-2.28,1.19-2.8,1.34-.52,2.97-.11,3.64,.92,.68,1.03,.14,2.28-1.19,2.8-1.33,.52-2.97,.11-3.64-.92Zm8.64,.66c-2.57,1-3.6,3.41-2.3,5.39,1.3,1.98,4.44,2.76,7.01,1.76,2.57-1,3.6-3.41,2.3-5.39-1.3-1.98-4.44-2.76-7.01-1.76Zm4.34,5.78c-1.34,.52-2.97,.11-3.64-.92s-.14-2.28,1.19-2.8c1.34-.52,2.97-.11,3.64,.92,.68,1.03,.14,2.28-1.19,2.8Zm15.26-7.24c-2.74,1.07-6.08,.23-7.47-1.88-1.39-2.1-.29-4.67,2.45-5.74,2.74-1.07,6.08-.22,7.47,1.88,1.39,2.1,.29,4.67-2.44,5.74Zm-4.37,1.18c1,1.51,.21,3.36-1.76,4.13-1.97,.77-4.38,.16-5.37-1.35-1-1.51-.21-3.36,1.76-4.13,1.97-.77,4.38-.16,5.37,1.35ZM.46,23.14c-1.07-1.62-.23-3.6,1.88-4.42,2.11-.82,4.68-.17,5.75,1.45,1.07,1.62,.23,3.6-1.88,4.42-2.11,.82-4.68,.17-5.75-1.45Zm.44-7.08c-1-1.51-.21-3.36,1.76-4.13,1.97-.77,4.38-.16,5.37,1.35,1,1.51,.21,3.36-1.76,4.13-1.97,.77-4.38,.16-5.37-1.35Zm15.31,16.88c-.91-1.38-3.12-1.94-4.92-1.24-1.8,.7-2.52,2.39-1.61,3.78,.91,1.39,3.12,1.94,4.92,1.24,1.8-.7,2.52-2.39,1.61-3.78Zm-4.43,2.17c-.47-.72-.1-1.6,.84-1.96,.94-.36,2.08-.08,2.55,.64,.47,.72,.1,1.6-.84,1.96-.94,.36-2.08,.08-2.56-.64Zm8.3,9.57c-1.8,.7-2.52,2.39-1.61,3.78,.91,1.39,3.12,1.94,4.92,1.24,1.8-.7,2.52-2.39,1.61-3.78-.91-1.38-3.12-1.94-4.92-1.24Zm3.05,4.05c-.94,.36-2.08,.08-2.56-.64-.48-.72-.1-1.6,.84-1.96,.94-.37,2.08-.08,2.56,.64,.47,.72,.1,1.6-.84,1.96Zm-1.96-4.83c2.52-.98,3.53-3.35,2.25-5.28-1.28-1.94-4.36-2.71-6.88-1.73-2.52,.98-3.53,3.35-2.25,5.28,1.28,1.94,4.36,2.71,6.88,1.73Zm-3.94-2.24c-.66-1.01-.14-2.23,1.17-2.74,1.31-.51,2.91-.11,3.57,.9,.66,1.01,.14,2.23-1.17,2.74-1.31,.51-2.91,.11-3.57-.9Zm-7.55-21.05c-1.8-1.98-1.17-4.7,1.41-6.08,2.57-1.38,6.12-.9,7.91,1.08,1.8,1.98,1.17,4.7-1.41,6.08-2.57,1.38-6.11,.9-7.91-1.08Zm17.73,7.19c-3.15,1.23-6.99,.26-8.59-2.16-1.59-2.42-.34-5.37,2.81-6.6,3.15-1.23,6.99-.26,8.59,2.16,1.6,2.42,.34,5.37-2.81,6.6Zm6.04,8.12c1.02,1.54,.21,3.43-1.79,4.21-2.01,.78-4.46,.17-5.48-1.38-1.02-1.54-.22-3.43,1.79-4.21,2.01-.78,4.46-.17,5.48,1.38ZM5.16,29.39c-1.27,.49-1.78,1.68-1.13,2.66,.64,.97,2.19,1.36,3.46,.87,1.27-.49,1.77-1.68,1.13-2.66-.64-.97-2.19-1.36-3.46-.87Zm.89,2.42c-.63,.24-1.39,.05-1.71-.43-.32-.48-.07-1.07,.56-1.31,.63-.24,1.39-.05,1.71,.43,.32,.48,.07,1.07-.56,1.31Zm23.27,10.3c.74,1.12,.16,2.48-1.3,3.04-1.45,.57-3.23,.12-3.96-1-.74-1.12-.16-2.48,1.3-3.04,1.45-.57,3.23-.12,3.96,1ZM19.39,10.42c-.05-.56-.03-1.28,.01-1.87,.92,.18,2.33,.15,2.82,.47,.47,.32,.84,1.2,1.32,.85,.5-.37-.82-.82-1.13-1.14-1.22-1.27-2.24-2.88-.55-4.7,1.08,.03,2.15-.75,3.08-1.3,.41,.65,.56,1.51,1.88,2.04,.13,.05-1.06,2.76,.65,2.26,.92-.27,.07-1.68,.3-2.78,.28-1.32,1.22-3.36,2.64-4.23,2.41,.32,5.23-.15,6.07,.02,.78,1.79,.64,3.46,1.61,4.7-.69,.55-3.69,1.28-2.96,1.97,.67,.63,1.14-.14,2.34-.72,2.2-1.07,2.74-1.41,4.49-1.21,.91,.46,1.61,1.62,2.89,1.43-.34,1.02-.51,2.11-.22,3.28-1.4,.93-2.82,1.36-5.16,1.41-1.47,.03-2.55-.83-2.8-.25-.26,.61,2.58,.62,2.69,.65,1.11,.36,2.75,.65,3.28,1.25,.32,.74,.7,2.21,1.95,2.94-.84,1.02-5.1,2.59-7.8,1.77-1.05-.32-3.71-3.66-4.72-2.93-1.01,.73,2.15,1.35,2.99,1.95-.11,.95,.52,1.91,1.08,2.62-1.11-.32-2.81,.38-3.73,.6-2.17-.43-3.59-1.18-4.5-2.78-.36-.64-.13-1.28-.81-1.42-.68-.13-.02,.76-.06,.81-.61,.76-1.08,.67-1.81,1.34-.56-.47-1.31-.95-1.92-1.59-.5-.97-.63-2.24-.66-2.81,.73-.37,1.62-.82,2.51-1.25,.8,.22,2.21,.91,3.06,1.52,1.62,1.15,2.74,3.75,2.74,3.75,0,0-.58-2.61-2.08-3.9-1.01-.87-2.7-1.73-2.83-1.79,1.11-.51,2.12-.92,2.68-1.04,4.3,1.02,6,3.01,8.88,3.58-2.37-.87-5.17-3.13-8.16-3.84,4.04-1.45,7.42-.61,9.49-1.9-2.56,.61-6.22,.11-9.76,1.55,1.4-2.03,1.46-4.59,2.36-6.21-1.79,1.36-1.03,3.69-3.08,6.38-.85,.31-1.75,.67-2.63,1.04,.06-.22,.21-.92-.12-1.86-.39-1.13-2.09-3.03-2.09-3.03,0,0,1.38,2.38,1.52,3.32,.14,.92-.11,1.62-.41,2.04-.93,.41-1.79,.8-2.51,1.15-.63-.32-1.87-1.03-2.85-2.16Zm30.54,21.02c-.08-.18-.22-.33-.38-.47-.16-.14-.33-.28-.53-.39-.43-.24-.9-.37-1.43-.4-.44-.02-.9,.05-1.3,.18-.25-.15-.53-.27-.83-.35-.38-.1-.79-.09-1.17-.03-.79,.12-1.52,.52-1.98,1.02-.23,.25-.36,.53-.4,.84-.04,.3,.09,.62,.32,.86,.13,.14,.39,.3,.48,.35,.18,.09,.38,.18,.57,.24,.2,.07,.46,.12,.7,.14,.18,.02,.55-.06,.69-.13,.21-.1,.37-.25,.43-.44,.04-.14,.01-.28-.02-.43-.01-.07-.02-.29,.01-.39,.03-.1,.1-.23,.23-.41,.13-.18,.35-.35,.49-.44,.13-.08,.23-.13,.38-.21,.19,.17,.28,.27,.4,.5,.12,.24,.16,.44,.17,.61,.01,.18,0,.43-.06,.65-.06,.22-.12,.41-.26,.65-.14,.25-.5,.7-.73,.92-.23,.21-.7,.55-1.04,.68-.34,.13-.77,.26-1.2,.29-.43,.03-1.06-.06-1.42-.16-.36-.1-.88-.31-1.2-.55-.31-.24-.57-.46-.82-.85-.21-.33-.28-.51-.36-.82-.08-.3-.14-.75-.09-1.12,.05-.37,.18-.79,.31-1.06,.13-.27,.23-.44,.69-.98,.46-.54,1.69-1.5,2.47-2.11,.39-.3,.77-.61,1.12-.94,.39-.36,.77-.74,1.06-1.16,.27-.39,.45-.81,.52-1.24,.08-.47,.08-.77,.07-1.3,0-.34-.22-1.4-.62-2.09-.38-.66-.88-1.43-1.83-1.71-.17-.05-.37,.07-.41,.2-.05,.15,.08,.27,.25,.32-.11-.03,.27,.13,.47,.29,.41,.36,.74,.8,.95,1.2,.32,.61,.41,1.26,.43,1.61,0,.24,.03,1.01,.03,1.28,0,.27-.14,.62-.29,.91-.15,.28-.81,1.04-1.2,1.39-.35,.33-.74,.63-1.13,.94-1.44,1.12-3.06,2.28-3.49,3.9-.33,1.26,.04,2.67,1.23,3.61,.61,.48,1.43,.79,2.28,.91,.73,.1,1.46,.07,2.14-.16,1.28-.44,2.2-1.36,2.6-2.37,.33-.82,.26-1.77-.41-2.46,.31-.05,.54-.07,.69-.07s.49,.05,.63,.1c.14,.04,.35,.14,.54,.24,.19,.11,.37,.23,.49,.41,.13,.18,.14,.3,.13,.37-.02,.1-.11,.23-.26,.41-.1,.12-.02,.29,.14,.36,.18,.07,.36,.01,.47-.1,.28-.31,.45-.68,.29-1.05Zm-5.54,1.33s0,0,0,0c0,0,0,0,0-.01,0,0,0,0,0,0Zm0-.82c-.05,.16-.05,.33-.02,.49,.01,.06,.02,.12,.03,.19,0,.03,.02,.17-.1,.23-.12,.06-.35,.08-.59,.03-.14-.03-.4-.13-.68-.28-.27-.14-.42-.37-.45-.59-.01-.13,.02-.31,.08-.45,.06-.14,.23-.32,.23-.32,.11-.11,.32-.28,.54-.41,.22-.13,.39-.19,.55-.24,.17-.05,.38-.09,.53-.12,.15-.03,.39-.03,.54,0,.29,.05,.51,.15,.56,.17-.59,.32-1.04,.77-1.22,1.31Z"/></g></svg>