<?xml version="1.0" encoding="UTF-8"?><svg id="b" xmlns="http://www.w3.org/2000/svg" viewBox="0 0 47.69 50"><defs><style>.d{fill:#afb1a9;}</style></defs><g id="c"><path class="d" d="M28.58,34.24c1.06,.74,1.94,2.16,3.42,1.74,.25-.07-1.21-1.34-.67-2.16,.25-.38,1.78-.67,2.88-.35,1.1,.32,3.03,.92,3.49-.01-.83-.35-1.45-1.32-2.7-2.07-1.27-.76-3.3-.88-3.58-1.14-.89-.82,.81-1.5,.59-1.79-.79-1.07-2.7,1-3.34,1.09-.64,.09-2.43-.48-5.8,.81-1.33,.51-1.64-2.97-1.21-4.57,.37-1.37,1.43-2.31,1.84-2.44,.95-.28,2.18,.59,3.07,.05,.39-.23-1.04-.88-.33-1.4,.26-.19,1.98,1.52,2.73,.62,.16-.19-.98-.9-.11-1.68,.36-.32,2.96,1.78,3.35,.46,.08-.28-1.72-1.26-1.67-2.21,.06-1.02,2.5-1.24,3.34-3.59-.64-.24-.94-.53-2.16-.25-1.28,.28-2.46,1.35-2.63,1.35-.9,0-.69-2.04-.85-2.08-1.14-.29-1.21,2.48-1.42,2.61-.81,.5-.9-2.09-1.36-1.92-1.08,.4-.51,3.11-.7,3.15-.71,.16-.6-1.27-.79-1.15-.79,.5-1.08,2.89-1.88,3.15-.79,.26-1.46-.52-1.65-.91-.21-.41-.37-1.45,.88-2.3,.6-.4,1.67-1.95,1.35-2.33-.29-.34-1.54-.25-1.64-.79-.18-1.02,1.02-1.8,1.37-1.99,.39-.21,.62-.24,1.03-.18,.41,.06,1.23-.38,1.27-.6,.04-.21-1.08-.32-1.13-.73-.06-.41,3.18-2.66,2.61-3.52-.58-.87-3.28,2.14-3.55,2.23-.26,.1-.21-1.84-.44-1.69-.23,.15-.56,1.83-.76,1.86-.2,.03-.3-.85-.4-.83-.1,.01-.25,.18-.19,.56,.05,.38-.94,2.43-1.76,2.59-.71,.13-1.11-.42-1.15-1.1-.06-.93,2.15-2.03,2.35-2.21,.2-.18,.09-.82-.42-.96-.82-.21-1.96,.95-2.21,1.28-.25,.33-1.17,.48-1.43,.03-.26-.45,.27-1.27,.54-1.69,.57-.87,.66-3.06,.4-3.26-.25-.2-.56,1.03-.88,.9-.32-.13,.17-1.55-.33-1.97-.15-.13-.68,.72-.76,.32-.08-.4,.39-.94,.3-1.59-.07-.52-.62-1.5-.93-1.58h0s-.02,0-.03,0c0,0-.02,0-.03,0h0c-.28,.16-.54,1.25-.47,1.78,.08,.64,.68,1.04,.71,1.45,.03,.41-.7-.27-.82-.1-.37,.54,.47,1.78,.2,1.99-.27,.21-.89-.89-1.08-.63-.19,.26,.47,2.34,1.25,3.03,.37,.33,1.11,.98,.97,1.48-.13,.5-1.05,.61-1.39,.35-.33-.25-1.74-1.07-2.48-.65-.46,.26-.4,.92-.16,1.04,.24,.12,2.67,.59,2.86,1.5,.14,.67-.09,1.31-.82,1.37-.83,.07-2.34-1.65-2.39-2.03-.05-.38-.24-.5-.34-.49-.1,.01,.04,.88-.16,.91-.2,.03-.97-1.51-1.23-1.59-.26-.09,.3,1.77,.02,1.74-.28-.02-3.69-2.2-4.02-1.21-.33,.99,3.4,2.3,3.45,2.7,.05,.41-1,.81-.9,1,.1,.19,1,.41,1.39,.24,.38-.17,.61-.2,1.04-.1,.39,.09,1.76,.52,1.85,1.56,.05,.55-1.18,.79-1.37,1.2-.21,.45,1.23,1.66,1.92,1.89,1.44,.48,1.55,1.53,1.46,1.98-.09,.43-.52,1.36-1.36,1.32-.83-.04-1.75-2.27-2.65-2.54-.21-.06,.27,1.29-.46,1.32-.2,.01-.36-2.76-1.51-2.85-.49-.04,.11,2.48-.8,2.21-.24-.07-1.04-2.73-2.07-2.14-.15,.09,.6,2-.27,2.23-.16,.04-1.58-.67-2.89-.61-1.25,.06-1.46,.42-2.02,.82,1.43,2.04,3.85,1.61,4.17,2.58,.3,.91-1.18,2.33-1.02,2.58,.72,1.17,2.68-1.54,3.1-1.33,1.04,.52,.13,1.5,.33,1.65,.96,.67,2.18-1.43,2.48-1.32,.83,.32-.39,1.32,.05,1.44,1.01,.28,1.96-.89,2.95-.87,.44,0,1.7,.63,2.43,1.86,.84,1.42,1.47,4.86,.04,4.73-3.6-.35-5.18,.68-5.82,.76-.64,.08-3.03-1.4-3.51-.16-.13,.34,1.68,.55,1.04,1.57-.2,.32-2.13,.98-3.15,2.05-1.01,1.05-1.35,2.15-2.05,2.71,.7,.78,2.39-.31,3.37-.91,.98-.6,2.52-.72,2.87-.42,.74,.65-.33,2.26-.07,2.26,1.54,.02,2.01-1.59,2.84-2.58,.83-.99,2.81-2.94,5.7-1.26,1.48,.86,2.48,5.33,2.63,6.91,.15,1.58,1.46,6.85,2.84,6.66,1.39-.19,1.1-5.6,.83-7.16-.27-1.56-.49-6.13,.71-7.36,2.34-2.38,4.76-1.03,5.82-.29Zm-7.62,12.71c-.24,.03-2.11-11.06-2.11-11.06,0,0-.82-1.34-2.48-2.05-1.17-.5-2.52-.57-4.07-.26-1.07,.22-2.02,1.05-4.09,1.25,1.44-.45,2.88-1.49,4.08-1.88,1.31-.42,2.62-.38,3.97,.05,1.69,.54,2.55,1.75,2.55,1.75,0,0-1.31-10.28-1.73-14.4-.17-1.63,.15-3.93,.81-5.15,.57-1.05,2-2.56,2.01-2.39,.01,.16-1.2,1.68-1.71,2.77-.51,1.09-.8,3.52-.62,4.79,.7,4.78,3.62,26.55,3.38,26.58Zm23.92-13.81c-.28,.6,.45,1.69,.33,1.85-.56,.75-1.44-1.27-1.72-1.15-.68,.28-.24,1.03-.38,1.11-.65,.39-1.15-1.15-1.34-1.1-.53,.16,.09,.94-.19,.99-.64,.11-1.08-.76-1.68-.82-.26-.03-1.09,.31-1.66,1.1-.66,.92-1.42,3.24-.55,3.25,2.2,.03,3.03,.86,3.41,.96,.38,.1,1.98-.74,2.13,.15,.04,.25-1.07,.25-.8,1.01,.08,.24,1.17,.84,1.66,1.65,.49,.8,.57,1.59,.93,2.02-.51,.48-1.4-.4-1.92-.88-.52-.49-1.44-.69-1.68-.51-.52,.39-.05,1.58-.21,1.57-.93-.1-1.03-1.25-1.42-2-.39-.75-1.36-2.24-3.28-1.3-.99,.48-2.08,3.48-2.35,4.56-.26,1.08-1.54,4.64-2.36,4.4-.82-.23-.14-3.97,.2-5.02,.34-1.06,.98-4.19,.39-5.12-1.14-1.81-2.75-1.07-3.47-.64-.72,.43-1.41,1.34-2.25,.94-.14-.07,.88-.83,.64-1.44-.11-.28-.99-.6-1.69-.46-.7,.13-1.92,.41-2.09-.27,.53-.18,1.02-.8,1.85-1.22,.84-.42,2.08-.36,2.27-.52,.62-.49-.32-1.09-.15-1.28,.59-.68,1.57,1.24,1.95,1.35,.37,.11,1.51-.15,3.4,1,.75,.45,1.26-2.21,1.18-3.34,.77,.06,1.71,.66,2.67,.47,.96-.18,1.43-.6,1.67-1.09-.86-.36-1.51-1.4-2.79-2.21-1.74-1.1-3.45-.9-3.72-1.2-.67-.74,1.06-1.22,.71-1.74-.71-1.05-2.59-.27-3.5,.62,.18-.18,.17-.53,.19-.74,.08-.71-1.1-.58-1.34-2.26,.41-.12,.62-.29,1.33-.01,.74,.29,1.33,1.12,1.43,1.13,.54,.07,.64-1.35,.74-1.37,.72-.12,.45,1.8,.57,1.91,.43,.41,.77-1.37,1.03-1.22,.61,.35-.04,2.18,.07,2.23,.41,.16,.5-.83,.6-.74,.42,.4,.33,2.07,.78,2.31,.45,.24,.8-.11,.97-.36,.17-.27,.39-.97-.28-1.65-.32-.32-.79-1.47-.56-1.71,.21-.21,.95-.06,1.07-.42,.22-.69-.41-1.32-.6-1.48-.21-.18-.35-.21-.6-.2-.25,0-.69-.36-.7-.51,0-.15,.68-.14,.76-.41,.08-.28-1.62-2.07-1.18-2.62,.44-.55,1.74,1.72,1.89,1.81,.15,.09,.33-1.25,.45-1.13,.12,.12,.14,1.31,.25,1.34,.11,.03,.27-.56,.33-.54,.06,.02,.13,.15,.05,.4-.07,.26,.3,1.75,.77,1.92,.41,.15,.71-.21,.81-.67,.14-.64-1.07-1.56-1.17-1.7-.1-.14,.04-.57,.36-.63,.52-.08,1.08,.8,1.19,1.05,.12,.25,.65,.42,.86,.13,.21-.29-.02-.9-.14-1.2-.25-.64-.06-2.16,.12-2.27,.18-.12,.22,.75,.43,.69,.21-.07,.07-1.08,.42-1.33,.11-.08,.33,.55,.42,.28,.09-.27-.13-.68,0-1.12,.1-.35,.54-.99,.73-1.02h0s0,0,.01,0c0,0,.01,0,.02,0h0c.15,.13,.19,.9,.09,1.26-.12,.44-.53,.66-.59,.95-.06,.28,.45-.13,.5-.01,.16,.4-.48,1.19-.34,1.35,.14,.17,.63-.55,.72-.35,.09,.19-.54,1.58-1.09,2-.26,.2-.77,.59-.75,.95,.02,.36,.57,.5,.79,.35,.23-.15,1.17-.6,1.56-.26,.25,.22,.14,.66-.02,.73-.16,.06-1.67,.21-1.88,.82-.16,.45-.09,.91,.34,1,.49,.11,1.59-.96,1.66-1.22,.07-.26,.2-.33,.26-.31,.06,.02-.12,.61,0,.64,.12,.03,.75-.96,.91-1,.17-.04-.37,1.2-.2,1.2,.17,0,2.46-1.24,2.55-.53,.09,.71-2.3,1.33-2.37,1.6-.08,.28,.51,.63,.43,.76-.08,.13-.65,.2-.86,.06-.21-.14-.34-.19-.61-.15-.24,.03-1.11,.23-1.28,.93-.09,.37,.62,.64,.69,.93,.08,.32-.93,1.05-1.36,1.15-.92,.22-1.1,.94-1.1,1.25,0,.31,.16,.98,.67,1.01,.51,.03,1.3-1.43,1.87-1.55,.13-.03-.31,.87,.13,.95,.12,.02,.53-1.87,1.23-1.85,.3,0-.34,1.7,.24,1.58,.15-.03,.93-1.8,1.48-1.32,.08,.07-.58,1.33-.09,1.56,.09,.04,1.02-.34,1.8-.2,.74,.14,.83,.4,1.12,.72-1.09,1.3-2.49,.82-2.79,1.46Z"/></g></svg>