<?xml version="1.0" encoding="UTF-8"?><svg id="b" xmlns="http://www.w3.org/2000/svg" viewBox="0 0 50 40"><defs><style>.d{fill:#85676e;}</style></defs><g id="c"><path class="d" d="M32.52,21.85c-.38-2.07-1.21-3.88-2.46-5.38-.89-1.07-2.22-1.5-3.28-1.77-.7-.17-1.45-.3-2.24-.44-.86-.15-1.75-.31-2.65-.53-1.5-.37-3.71-1.07-5.52-2.91-1.76-1.78-3.54-2.91-5.29-3.34-1.41-.35-2.78-.24-4.09,.3-1.2,.5-2.32,1.37-3.31,2.57C1.83,12.58,.53,15.83,.1,19.28c-.27,2.15,0,4.4,.76,6.71,.69,2.07,1.82,4.16,3.25,6.05,1.39,1.82,3.07,3.46,4.87,4.75,1.85,1.32,3.83,2.26,5.73,2.73,3.88,.96,7.8,.52,11.02-1.24,1.65-.9,3.05-2.11,4.16-3.6,1.18-1.6,2-3.46,2.41-5.55,.54-2.71,.61-5.16,.23-7.27Zm-1.55,6.75c-.68,3.42-2.71,6.21-5.74,7.86-2.99,1.63-6.64,2.04-10.28,1.14-3.53-.87-7.22-3.48-9.89-6.98-2.71-3.56-4.02-7.57-3.6-11,.74-5.97,4.45-11.42,9.37-10.21,1.55,.38,3.14,1.39,4.73,3,2.04,2.06,4.44,2.84,6.08,3.24,.93,.23,1.84,.39,2.71,.54,.78,.14,1.51,.26,2.18,.43,1.32,.32,2.13,.74,2.63,1.33,2.13,2.55,2.72,6.03,1.8,10.65ZM11.56,14.28c.21,.25,.28,.59,.19,1.07-.14,.72-.85,1.06-1.54,.89-.7-.17-1.38-1.01-1.29-1.75,.09-.74,.67-1.45,1.39-.72,.42,.42,1.04,.25,1.25,.51Zm-3.45,9.86c.13,.73-.36,1.52-1.02,1.86-.66,.34-1.56,.1-1.74-.61-.18-.71,.06-1.73,.95-1.61,.51,.07,.99-.51,1.27-.44,.27,.07,.45,.31,.54,.79Zm11-.95c.18,.88-.4,1.86-1.19,2.31-.8,.45-1.89,.19-2.12-.66-.24-.85,.04-2.11,1.12-2,.62,.06,1.18-.67,1.53-.59,.33,.07,.56,.36,.67,.94Zm6.89-.94c.18,.21,.24,.5,.16,.91-.12,.62-.72,.9-1.32,.76-.59-.15-1.18-.86-1.1-1.5,.08-.63,.57-1.24,1.19-.61,.36,.36,.88,.21,1.07,.44Zm-10.94,9.9c0,.55-.46,.98-.97,1.04-.51,.06-1.11-.35-1.15-.9-.03-.55,.28-1.21,.89-.88,.35,.19,.77-.1,.95,.03,.18,.12,.28,.34,.27,.71Zm8.91,1.47c0,.55-.46,.98-.97,1.04-.52,.06-1.11-.35-1.15-.9-.03-.55,.28-1.21,.89-.88,.35,.19,.77-.1,.96,.03,.18,.12,.28,.34,.27,.71ZM49.69,8.61c-.52-2.54-1.32-4.55-2.37-5.97-1.03-1.39-2.33-2.26-3.86-2.59-1.09-.23-2.31,.35-3.25,.87-.62,.35-1.27,.77-1.95,1.21-.74,.48-1.51,.97-2.3,1.42-1.33,.75-3.35,1.73-5.44,1.52-2.04-.2-3.86,.14-5.41,1.02-1.25,.7-2.31,1.74-3.16,3.08-.53,.84-.97,1.77-1.31,2.81,.85,.37,1.66,.6,2.34,.77,.9,.22,1.79,.38,2.65,.53,.37,.06,.72,.13,1.07,.19,.13-.31,.4-.54,.82-.5,.48,.05,.92-.52,1.18-.46,.25,.05,.43,.28,.52,.73,.06,.29,.01,.59-.1,.86,.74,.29,1.48,.71,2.04,1.39,1.26,1.5,2.09,3.32,2.46,5.38,.39,2.11,.31,4.56-.23,7.27-.2,1.03-.51,2.01-.9,2.93,.41-.01,.83-.05,1.24-.1,1.94-.23,3.85-.86,5.54-1.81,3.45-1.95,6.43-5.03,8.39-8.67,1.01-1.87,1.7-3.82,2.06-5.78,.39-2.1,.38-4.16-.02-6.11Zm-12.59,12.1c-.48,.91-1.44,1.47-1.93,.96-.49-.51-.71-1.71,.19-2.38,.52-.39,.71-1.36,1.02-1.54,.29-.17,.57-.1,.87,.28,.45,.58,.33,1.76-.15,2.68Zm5.35-9.05c-.53,.3-1.25,.13-1.4-.43-.16-.56,.02-1.39,.74-1.32,.41,.04,.78-.44,1.01-.39,.22,.05,.37,.24,.45,.62,.12,.58-.26,1.23-.79,1.52Z"/></g></svg>