<?xml version="1.0" encoding="UTF-8"?><svg id="b" xmlns="http://www.w3.org/2000/svg" viewBox="0 0 60 34.01"><defs><style>.d{fill:#9b7797;}</style></defs><g id="c"><path class="d" d="M57.94,27.06h-5.04c-.22-11.95-9.31-21.74-20.97-23.04,.15-.35,.23-.73,.23-1.14,0-1.59-1.29-2.88-2.88-2.88s-2.89,1.29-2.89,2.88c0,.4,.08,.79,.23,1.14C14.97,5.32,5.87,15.11,5.65,27.06H2.06c-1.14,0-2.06,.92-2.06,2.06v2.82c0,1.14,.92,2.06,2.06,2.06H57.94c1.14,0,2.06-.92,2.06-2.06v-2.82c0-1.14-.92-2.06-2.06-2.06Zm-40.09-.57l-6.59-.04c.41-11.94,11.53-17.57,11.53-17.57,0,0-7.28,10.16-4.94,17.61Z"/></g></svg>