<?xml version="1.0" encoding="UTF-8"?><svg id="b" xmlns="http://www.w3.org/2000/svg" viewBox="0 0 50 44.54"><defs><style>.d{fill:#786daf;}</style></defs><g id="c"><path class="d" d="M48.41,16.75c-.39-.26-.81-.43-1.24-.52-.11-.46-.27-.91-.46-1.34,.27-.14,.51-.35,.69-.62,.6-.91,.3-2.17-.67-2.81-.42-.28-.9-.4-1.36-.37-.12-.96-.66-1.88-1.56-2.48-1.57-1.04-3.63-.69-4.6,.77-.06,.09-.11,.18-.16,.27-.8-.46-1.7-.59-2.51-.41,.05,.05,.1,.1,.14,.16,.82,1.05,.63,2.66-.42,3.6-.39,.35-.84,.56-1.3,.62-.43,1.69-1.31,3.29-2.6,4.58,.19,1.51,.76,2.22,1.59,3.16-.39,1.53-3.57,1.18-5.86,4.81,.07-4.32,.7-5.76,1.27-7.06,.45-.28,.89-.61,1.31-.99,1.51-1.36,2.52-3.1,3-4.96,.46-.07,.91-.28,1.3-.62,1.05-.94,1.29-1.98,.81-3.23-.11-.29-.86-1.62-1.52-1.62,.4-.86-.35-1.92-.86-2.17,1-1.51,.29-2.55-.81-3.94-1.32-1.69-4.45-1.97-5.52-1.07-.43,.37-.76,.82-1,1.31-.55-.03-1.11,0-1.67,.08-.07-.38-.23-.74-.47-1.05-.6-.78-2.72-.88-3.38-.2-.43,.44-.75,.94-.87,1.5-1.11-.2-2.33,.12-3.31,.99-1.69,1.52-1.99,4.12-.67,5.81,.08,.1,.16,.2,.25,.29-1.82,1.1-2.13,4.02-.86,5.65,.54,.7,1.65,1.12,2.45,1.28,.22,.39,.47,.77,.75,1.14,.61,.78,1.33,1.42,2.11,1.92,1.65,2.93,2.24,3.76,1.6,6.96-1.95-4.53-7.18-3.65-5.02-7.77-.1-.11-.2-.23-.29-.36-.28-.36-.53-.74-.75-1.14-.79-.16-1.53-.6-2.07-1.29-1.13-1.45-1.07-3.55,.02-5.08-.56,.02-1.06,.29-1.41,.71-.62-.27-1.29-.45-1.99-.53-.4-1.19-2.17-1.5-3.33-1.35-.9,.12-2.78,.86-2.91,2.29-.04,.47,.09,.92,.25,1.33-.32,.35-.61,.72-.87,1.13-.27-.15-.58-.23-.9-.23-1.09,0-1.97,.95-1.97,2.11,0,.51,.17,.97,.45,1.34-.73,.63-1.2,1.59-1.2,2.67,0,1.88,1.43,3.41,3.19,3.41,.1,0,.21,0,.31-.02,.1,1.79,1.49,3.2,3.18,3.2,.72,0,1.39-.26,1.93-.69,.36,.06,.73,.09,1.11,.09,.83,0,1.63-.15,2.37-.42,0,0,6,.14,7.48,6.38-1.78-1.88-4.66-.74-7.16-1.73,4.1,4.93,5.25,4.48,7.66,4.7,.41,4.45-.35,6.59-.35,6.59,0,1.68,1.36,3.03,3.03,3.03h5.58c1.68,0,3.03-1.36,3.03-3.03,0,0-1.29-5.45-.83-7.42,2.43,1.37,5.61-1.97,6.14-4.47-2.05,1.67-3.79,.15-5.91,1.82,1.48-4.86,7.9-6.29,9.58-6.42,.16,.36,.44,.68,.79,.92,.61,.41,2.13,.26,2.73-.65,.32-.49,.5-.9,.34-1.45,.57-.37,1.09-.83,1.54-1.37,1.4,.47,2.95,.02,3.75-1.19,.97-1.47,.48-3.5-1.09-4.54Zm-41.28,1.22c-.27,0-.52-.09-.72-.23-.25,.33-.63,.56-1.06,.59,.02,.08,.03,.16,.03,.25,0,.67-.54,1.21-1.21,1.21s-1.21-.54-1.21-1.21c0-.56,.38-1.03,.89-1.17-.07-.17-.11-.36-.11-.56,0-.82,.66-1.48,1.48-1.48,.44,0,.83,.19,1.1,.49,.21-.19,.5-.31,.81-.31,.67,0,1.21,.54,1.21,1.21s-.54,1.21-1.21,1.21ZM17.52,7.89c0-.64,.48-1.17,1.1-1.24-.08-.2-.12-.42-.12-.65,0-1.03,.83-1.86,1.86-1.86,.55,0,1.04,.24,1.38,.61,.27-.24,.62-.39,1.01-.39,.48,0,.9,.22,1.18,.56,.13-.42,.52-.72,.98-.72,.57,0,1.03,.46,1.03,1.03s-.46,1.03-1.03,1.03c-.25,0-.47-.09-.65-.23-.07,.77-.72,1.37-1.51,1.37-.34,0-.65-.11-.9-.29-.34,.45-.88,.75-1.49,.75-.12,0-.23-.01-.34-.03,0,.02,0,.05,0,.07,0,.69-.56,1.25-1.25,1.25s-1.25-.56-1.25-1.25Zm5.27,5.57c-.45,0-.82-.28-.97-.68-.19,.17-.43,.27-.7,.27-.03,0-.07,0-.1,0,.01,.07,.02,.14,.02,.21,0,.57-.46,1.03-1.03,1.03-.35,0-.66-.18-.85-.45-.1,.18-.29,.3-.51,.3-.33,0-.59-.26-.59-.59s.26-.59,.59-.59c.13,0,.25,.04,.35,.12,.09-.48,.51-.84,1.01-.84,.03,0,.05,0,.08,0-.02-.08-.03-.15-.03-.23,0-.58,.47-1.05,1.05-1.05,.46,0,.85,.3,1,.71,.18-.16,.41-.25,.67-.25,.57,0,1.03,.46,1.03,1.03s-.46,1.03-1.03,1.03Zm2.36,8.52c0,.38-.61-1.59-1.52-3.11h2.81s-1.29,2.73-1.29,3.11Zm1.86-12.48c-.14,.2-.37,.32-.63,.3-.39-.03-.67-.36-.65-.75s.36-.67,.75-.65c.16,.01,.3,.07,.41,.17,.15-.55,.67-.94,1.26-.9,.03,0,.06,0,.09,.01-.01-.09-.02-.18-.01-.28,.05-.69,.65-1.2,1.34-1.15,.55,.04,.98,.43,1.11,.93,.23-.17,.51-.26,.82-.24,.67,.05,1.17,.63,1.12,1.3-.05,.67-.63,1.17-1.3,1.12-.53-.04-.95-.41-1.08-.89-.23,.18-.53,.28-.85,.26-.04,0-.08,0-.12-.01,.01,.08,.01,.17,0,.25-.05,.67-.63,1.17-1.3,1.12-.42-.03-.77-.27-.96-.61Zm7.19,15.15c-.16,.14,1.58-1.41,1.9-2.34l1.01,1.19s-2.75,1.01-2.91,1.15Zm10.41-10.53c-.24,.27-.66,.3-.93,.06-.12-.1-.19-.24-.22-.39-.36,.34-.93,.36-1.31,.02-.16-.14-.27-.33-.31-.52-.36,.08-.74-.01-1.04-.27-.06-.05-.11-.1-.15-.16,0,.01-.02,.02-.03,.03-.29,.33-.8,.37-1.14,.08-.33-.29-.37-.8-.08-1.14,.27-.31,.73-.36,1.06-.13,.05-.13,.12-.26,.22-.37,.44-.5,1.19-.55,1.69-.11,.26,.23,.4,.56,.41,.88,.23,0,.46,.08,.65,.24,.23,.2,.34,.49,.33,.77,.24-.15,.56-.13,.78,.07,.27,.24,.3,.66,.06,.93Z"/></g></svg>