<?xml version="1.0" encoding="UTF-8"?><svg id="b" xmlns="http://www.w3.org/2000/svg" viewBox="0 0 50 50"><defs><style>.d{fill:#b5ad8a;}</style></defs><g id="c"><path class="d" d="M22.15,4.39c0-.66,.82-1.2,1.82-1.2s1.82,.54,1.82,1.2-.82,1.2-1.82,1.2-1.82-.54-1.82-1.2Zm8.03-.28c0,.66,.82,1.2,1.82,1.2s1.82-.54,1.82-1.2-.82-1.2-1.82-1.2-1.82,.54-1.82,1.2Zm-2.23,.13c1.01,0,1.82-.54,1.82-1.2s-.82-1.2-1.82-1.2-1.82,.54-1.82,1.2,.82,1.2,1.82,1.2Zm-3.24-1.95c.91,0,1.65-.49,1.65-1.09s-.74-1.09-1.65-1.09-1.65,.49-1.65,1.09,.74,1.09,1.65,1.09Zm6.21-.16c.89,0,1.62-.48,1.62-1.06s-.73-1.07-1.62-1.07-1.62,.48-1.62,1.07,.73,1.06,1.62,1.06Zm-7.03,6.72c1.06,0,1.92-.57,1.92-1.26s-.86-1.26-1.92-1.26-1.92,.56-1.92,1.26,.86,1.26,1.92,1.26Zm6.54-1.56c0,.7,.86,1.26,1.92,1.26s1.92-.56,1.92-1.26-.86-1.26-1.92-1.26-1.92,.57-1.92,1.26Zm-2.35,.14c1.06,0,1.92-.56,1.92-1.26s-.86-1.26-1.92-1.26-1.92,.57-1.92,1.26,.86,1.26,1.92,1.26Zm-4.55,5.02c1.15,0,2.08-.61,2.08-1.37s-.93-1.37-2.08-1.37-2.08,.61-2.08,1.37,.93,1.37,2.08,1.37Zm7.09-1.69c0,.76,.93,1.37,2.08,1.37s2.08-.61,2.08-1.37-.93-1.37-2.08-1.37-2.08,.61-2.08,1.37Zm-2.54,.15c1.15,0,2.08-.61,2.08-1.37s-.93-1.37-2.08-1.37-2.08,.61-2.08,1.37,.93,1.37,2.08,1.37Zm-4.55,5c1.15,0,2.08-.61,2.08-1.37s-.93-1.37-2.08-1.37-2.08,.61-2.08,1.37,.93,1.37,2.08,1.37Zm9.17-.33c1.15,0,2.08-.61,2.08-1.37s-.93-1.37-2.08-1.37-2.08,.61-2.08,1.37,.93,1.37,2.08,1.37Zm-4.63-1.22c1.15,0,2.08-.61,2.08-1.37s-.93-1.37-2.08-1.37-2.08,.61-2.08,1.37,.93,1.37,2.08,1.37Zm-4.55,5c1.15,0,2.08-.61,2.08-1.37s-.93-1.37-2.08-1.37-2.08,.61-2.08,1.37,.93,1.37,2.08,1.37Zm9.17-.33c1.15,0,2.08-.61,2.08-1.37s-.93-1.37-2.08-1.37-2.08,.61-2.08,1.37,.93,1.37,2.08,1.37Zm-4.63-1.22c1.15,0,2.08-.61,2.08-1.37s-.93-1.37-2.08-1.37-2.08,.61-2.08,1.37,.93,1.37,2.08,1.37Zm-4.9,5.27c1.24,0,2.24-.66,2.24-1.47s-1-1.47-2.24-1.47-2.24,.66-2.24,1.47,1,1.47,2.24,1.47Zm7.43-1.68c0,.89,1.1,1.62,2.46,1.62s2.46-.72,2.46-1.62-1.1-1.62-2.46-1.62-2.46,.72-2.46,1.62Zm-2.53,.02c1.24,0,2.24-.66,2.24-1.47s-1-1.47-2.24-1.47-2.24,.66-2.24,1.47,1,1.47,2.24,1.47Zm-4.9,5.32c1.24,0,2.24-.66,2.24-1.47s-1-1.47-2.24-1.47-2.24,.66-2.24,1.47,1,1.47,2.24,1.47Zm9.89-3.3c-1.41,0-2.56,.75-2.56,1.68s1.15,1.68,2.56,1.68,2.56-.75,2.56-1.68-1.15-1.68-2.56-1.68Zm-4.99,1.97c1.38,0,2.49-.73,2.49-1.64s-1.12-1.64-2.49-1.64-2.49,.73-2.49,1.64,1.12,1.64,2.49,1.64Zm-5.19,5.26c1.31,0,2.37-.7,2.37-1.56s-1.06-1.56-2.37-1.56-2.37,.7-2.37,1.56,1.06,1.56,2.37,1.56Zm-.43,4.26c1.42,0,2.57-.76,2.57-1.69s-1.15-1.69-2.57-1.69-2.57,.76-2.57,1.69,1.15,1.69,2.57,1.69Zm-.29,4.39c1.49,0,2.7-.79,2.7-1.77s-1.21-1.77-2.7-1.77-2.7,.79-2.7,1.77,1.21,1.77,2.7,1.77Zm27.82-16.15s-6.69,.49-9.49,3.44c-2.8,2.96-3.65,12.84-7.13,15.58-3.48,2.73-5.09,2-6.63,3.15-.35,.26-.85,.51-.99,1.21,0,0-4.86-.33-7.11-2.42-1.65-1.53-2.77-4.2-3.05-6.1-.27-1.84-1.01-4.88-2.75-7.96-.96-1.71-4-4.88-6.63-5.35,2.43-.6,6.05-.37,8.21,.38,3.46,1.21,4.42,5.02,5.15,6.2,0,0-1.6-5.95-4.54-7.39-6.53-3.19-15.05,1.45-15.05,1.45,3.39-.98,9.78,2,11.67,5.35,1.63,2.89,2.3,6.26,2.56,8.01,.32,2.18,1.36,5.15,3.2,6.89,2.22,2.11,5.46,3.05,8.19,2.15,.67-.22,.34,2.22,.34,2.22h2.23s-.23-2.05,.45-2.31c.88-.33,1.6,2.04,6.66,.8,5.06-1.24,7.85-5.15,7.52-8.96-.34-3.81,.44-13.68,7.19-16.35Zm-19.25,4.65c.02-.08,.03-.17,.03-.26,0-.98-1.21-1.77-2.7-1.77s-2.7,.79-2.7,1.77,1.21,1.77,2.7,1.77c.83,0,1.58-.25,2.07-.64-.03,.12-.05,.24-.05,.36,0,1,1.11,1.83,2.57,1.98-.64,.11-1.21,.33-1.65,.64,0-.03,0-.06,0-.09,0-1.07-1.32-1.94-2.95-1.94s-2.95,.87-2.95,1.94,1.32,1.94,2.95,1.94c.79,0,1.51-.21,2.04-.54-.01,.07-.02,.15-.02,.23,0,.91-.26,.7-1.81,.7-1.9,0-3.44,1.01-3.44,2.26,0,.65,.42,1.24,1.1,1.65,.16,.1,.19,.38,.03,.45-.87,.41-1.47,1.04-1.61,1.77-.53-.21-1.16-.34-1.83-.34-1.95,0-3.51,1.04-3.52,2.32-.02,1.65,3.64,2.87,6.41,3.23,.07-.5,.37-.96,.71-1.23,1.52-1.23,3.77-.36,7.25-3.1,1.25-.98,3.57-7.95,3.21-8.53-.35-.86-1.26-1.3-2.62-1.43,1.29-.23,2.24-1.01,2.24-1.94,0-1.11-1.37-2.01-3.06-2.01-.98,0-1.85,.3-2.41,.77Zm-10.08-1.37s.46-9.15-1.75-10.2c-3.29-1.56-5.85,1.46-5.85,1.46,5.18,.4,7.61,8.74,7.61,8.74Zm20.3-9.51c-1.38,.03-3.27,2.76-3.58,3.86-.3,1.1-.24,4.16-.24,4.16,0,0,2.6-6.92,5.8-7.79,0,0-1.94-2.19-5.16-1.66-.61,.1-1.35,1.23-1.35,1.23,0,0,2.29-1.06,4.52,.2Z"/></g></svg>