<?xml version="1.0" encoding="UTF-8"?><svg id="b" xmlns="http://www.w3.org/2000/svg" viewBox="0 0 50 50"><defs><style>.d{fill:#7e8b95;}</style></defs><g id="c"><path class="d" d="M38.36,26.38c-.14,.14-.27,.27-.41,.39-.48-2.52-1.47-8.16-2.83-10.32-1.26-2-4.85-4.45-6.6-5.71-1.8-1.29-3.33-4.25-3.33-4.25,.25-.97,.64-2.51,1.59-2.66,.56-.22-2.85-3.2-3.41-3.82-.24-.13,.34,4.64-1.33,5.36-.97,.42-4.45,3.87-6.12,7.91-1.68,4.04-3.21,10.47-3.79,13.57-.17-.14-.33-.3-.49-.46C7.62,22.22,.17,25.49,0,34.17c-.14,7.29,3.21,14.07,9.73,15.57,6.53,1.5,11.82-3.73,13.99-11.22,2-6.9-2.98-12.05-7.29-10.89-.28,.08-.55,.13-.81,.17,.58-2.74-.26-5.93,1.56-11.29,1.78-5.24,4.48-8.12,6.34-9.28,.27,.6,2.05,3.83,4.3,5.47,1.97,1.44,4.7,2.76,5.95,5.65,1.07,2.46,.99,6.4,1.29,9.53-.46-.01-.96-.09-1.51-.24-4.3-1.16-9.29,3.99-7.29,10.89,2.17,7.49,7.46,12.72,13.99,11.22,6.53-1.5,9.87-8.29,9.73-15.57-.17-8.68-7.61-11.94-11.63-7.79Zm-30.73,3.19c-.69,.38-2.1,1.66-2.63,3.16-.95,2.7-.08,5.52-1.11,5.75-.25,.06-2.54-1.09-1.01-6.79,.49-1.81,3.74-6.33,6.2-3.15,.36,.46-.4,.46-1.46,1.04Zm24.85,2.45c-.56,.6-1.57,2.31-1.69,3.92-.21,2.9,1.36,5.29,.43,5.87-.23,.14-2.65-.71-2.73-6.13-.03-1.89,1.92-7.32,5.1-5.14,.46,.32-.26,.57-1.12,1.49Z"/></g></svg>