<?xml version="1.0" encoding="UTF-8"?><svg id="b" xmlns="http://www.w3.org/2000/svg" viewBox="0 0 60 54.51"><defs><style>.d{fill:#80aab4;}</style></defs><g id="c"><path class="d" d="M59.67,33.55l-35,7.58c2.14,9.16,11.52,14.89,21.1,12.82,9.57-2.07,15.75-11.17,13.9-20.4Zm-7.16,4.31c.12-.25,1.42-.44,2.17-.08,.74,.36,.77,.87,.53,1.38-.24,.51-.66,.81-1.4,.45-.74-.36-1.41-1.5-1.29-1.75Zm-3.4,3.48c.21-.17,1.48,.21,2,.85,.52,.64,.32,1.12-.11,1.47-.43,.35-.94,.45-1.46-.19-.52-.64-.64-1.95-.42-2.13Zm-3.72-2.18c.23-.16,1.46,.31,1.93,.99,.47,.68,.24,1.14-.21,1.46-.46,.32-.97,.38-1.45-.29-.47-.68-.5-1.99-.27-2.15Zm-1.29,4.54c.27-.06,1.23,.84,1.41,1.64,.18,.8-.21,1.15-.75,1.27-.55,.12-1.04-.01-1.23-.82-.18-.8,.29-2.03,.56-2.09Zm-3.21-3.65c.28,0,1.01,1.1,1.01,1.92,0,.83-.46,1.07-1.02,1.07-.56,0-1.01-.25-1.01-1.08,0-.83,.75-1.91,1.02-1.91Zm-3.63,5.36c.19-.8,1.16-1.7,1.43-1.63,.27,.06,.74,1.3,.55,2.1-.19,.8-.69,.94-1.23,.81-.55-.13-.93-.47-.74-1.28Zm-5.31-2.11c.3-.77,1.39-1.51,1.65-1.41,.26,.1,.54,1.39,.24,2.16-.3,.77-.82,.83-1.34,.62-.52-.21-.85-.6-.55-1.37Zm13.27,8.14c-8.83,1.91-17.35-2.83-18.88-8.86-.07-.26,.33-.36,.47-.01,2.03,4.99,9.63,8.09,17.86,6.31,7.99-1.73,13.6-7.43,13.72-12.76,.01-.54,.52-.86,.55-.34,.39,6.82-5.52,13.89-13.72,15.66Zm-17.42-3.43s.08,.09,.11,.13c-.04-.04-.08-.09-.11-.13Zm-2.15-3.11c.61,1.12,1.33,2.16,2.15,3.11-.09-.1-.17-.2-.26-.3-.08,.22-.16,.44-.24,.66-.53,1.51-1.04,2.93-2.35,3.66-1.12,.62-2,.93-2.71,1.11,.75-.6,1.44-1.25,2-2.25,.42-.76,.52-1.53,.64-2.42,.11-.87,.24-1.86,.7-3.1,.04-.11,.09-.22,.14-.33-.03-.05-.05-.09-.07-.14Zm2.26,3.25c.05,.06,.1,.11,.15,.17-.03,.1-.07,.19-.1,.29-.55,1.56-1.12,3.18-2.67,4.03-2.05,1.13-4.64,1.16-4.64,1.16,0,0,2.34-2.09,2.98-3.24,.36-.64,.45-1.32,.56-2.18,.12-.91,.25-1.93,.74-3.24,.11-.29,.25-.56,.41-.81,.07,.14,.14,.27,.22,.41-.73-1.37-1.29-2.84-1.66-4.41l6.6-1.65c.48-1.72-.32-2.86-1.26-4.18-.72-1.02-1.46-2.08-1.61-3.47-.11-1.04,.45-1.98,1-2.9,.61-1.02,1.18-1.97,.84-3-.31-.92-1.35-1.44-2.36-1.94-.99-.49-1.93-.96-2.16-1.81-.16-.58-.2-1.1-.24-1.6-.06-.81-.11-1.51-.69-2.28-.63-.84-2.54-2.23-3.57-2.94-.31-.22-.55-.38-.63-.44,.08,.11,.26,.37,.47,.69,.44,.68,1.01,1.67,1.05,2.27,.07,.97-.69,2.98-.28,4.43,.42,1.45,2.22,2.29,2.22,3.95,0,1.94-1.59,2.84-1.59,4.99s2.49,3.81,2.42,6.51c-.07,2.56-2.63,4.15-2.84,6.23-.21,2.08,1.18,3.95,.35,6.65-.41,1.32-1.71,3.14-1.91,3.42h-.03c-.21-.28-1.51-2.11-1.91-3.42-.83-2.7,.55-4.57,.35-6.65-.21-2.08-2.77-3.67-2.84-6.23-.07-2.7,2.42-4.36,2.42-6.51s-1.59-3.05-1.59-4.99c0-1.66,1.8-2.49,2.22-3.95,.36-1.25-.15-2.9-.26-3.96-.02-.18-.03-.34-.02-.48,.06-.88,1.27-2.63,1.51-2.96-.37,.2-.81,.43-1.28,.69-1.21,.66-2.57,1.49-3.32,2.48-1.02,1.35-.57,2.49-.99,4-.42,1.51-3.86,1.75-4.52,3.74-.72,2.17,2.03,3.94,1.82,5.97-.32,3.04-3.79,4.5-2.86,7.79,.86,3.04,4.64,3.93,5.58,6.47,.93,2.54,.54,4.07,1.32,5.47,.78,1.4,1.85,2.09,3.02,3-.85-.12-2.13-.25-4.21-1.39-2.08-1.14-2.28-3.86-3.32-5.84-1.04-1.97-5.15-1.14-6.7-6.06-1.61-5.09,1.93-7.65,2.23-9.97,.17-1.3-2.23-4.92-.62-7.48,1.28-2.04,5.19-2.11,6.34-3.22,.58-.56,.14-2.29,1.18-3.32,1.19-1.19,4.01-2.03,5.55-2.33,.41-.08,.73-.12,.91-.12,.2,0,.57,.03,1.04,.1,1.58,.23,4.3,.86,5.54,2.11,.68,.68,.8,1.58,.9,2.31,.06,.44,.12,.86,.28,1.01,.4,.39,1.3,.66,2.25,.95,1.55,.47,3.31,1.01,4.14,2.33,1.16,1.85,.41,4.16-.15,5.84-.24,.73-.47,1.42-.42,1.78,.09,.68,.5,1.41,.97,2.25,.52,.93,1.11,1.99,1.44,3.27,.12,.46,.18,.92,.21,1.38l2.8-.7c.17-1.1,.23-1.73,.23-2.88,0-10.84-7.78-19.74-17.71-20.69,.52-1.35,.72-2.99,.18-5.11-.28-1.12-1.17-2.85-2.74-4.22-1.46-1.28-3.65-1.55-5.23-1.2-.93-.94-2.16-1.6-3.66-2.11-2.15-.74-3.24-.34-3.15,.1,.03,.17,1.45,0,2.78,.54,.82,.33,1.84,.8,3,1.8-2.38,1.06-4.17,3.27-3.24,5.99,.34,1.01,2.13,2.72,4.3,1.97,.86-.3,1.69-1.17,2.09-2.09,.56-1.26,.73-3.33-.98-4.98,.99-.07,1.8,.17,2.67,.71,1.25,.78,2.08,2.1,2.5,3.67,.54,2.04,.28,3.59-.3,4.84-10.73,.02-19.43,9.31-19.43,20.77s8.71,20.77,19.46,20.77c4.18,0,8.05-1.41,11.22-3.8-1-.77-1.93-1.63-2.76-2.59ZM14.94,8.34c-.25,.75-.98,1.46-1.66,1.7-1.79,.62-3.92-1.15-2.8-3.64,.54-1.18,2.1-2.23,3.14-2.52,1.34,1.21,1.78,3.06,1.31,4.46Zm16.31,30.13c.35-1.83-.55-3.13-1.43-4.39-.67-.95-1.36-1.93-1.49-3.14-.09-.81,.39-1.62,.9-2.47,.66-1.1,1.34-2.25,.9-3.58-.4-1.19-1.63-1.81-2.71-2.34-.85-.42-1.65-.82-1.8-1.38-.14-.52-.18-1-.21-1.47-.06-.84-.13-1.71-.83-2.65-.55-.73-1.5-1.47-2.38-2.15,1.22,.42,2.83,1.02,3.58,1.77,.51,.51,.61,1.25,.7,1.91,.08,.56,.15,1.09,.48,1.42,.52,.51,1.45,.79,2.53,1.12,1.44,.44,3.06,.93,3.76,2.04,.99,1.58,.32,3.62-.22,5.26-.29,.88-.52,1.57-.45,2.08,.11,.81,.55,1.59,1.05,2.5,.68,1.22,1.47,2.65,1.57,4.49l-3.95,.98Z"/></g></svg>