<?xml version="1.0" encoding="UTF-8"?><svg id="b" xmlns="http://www.w3.org/2000/svg" viewBox="0 0 38.72 60"><defs><style>.d{fill:#8fb16a;}</style></defs><g id="c"><path class="d" d="M38.28,13.45c-1.19-2.19-3.2-.79-3.84-.96-1-.27-.95-1.71-2.39-1.51-2.17,.3-1.79,2.54-2.44,2.9-.75,.41-2.09-2.21-3.89-.49,.06-.23,.1-.49,.1-.76,.01-2.72-3.37-1.88-3.66-2.73-.24-.73,2.63-1.71,1.66-3.74-.65-1.38-2.31-.74-3.3-1.26-.63-.33,.56-1.86-.1-3.32-.38-.85-1.64-1.67-2.88-1.56-1.23,.1-2.27,1.31-2.42,2.05-.24,1.22,.82,2.45,.41,2.95-.6,.73-2.21,.1-2.34,2.14-.05,.69,.51,1.17,1.21,1.55-1.22,.14-2.35,1.13-2.87,.75-.69-.51,1.03-2.96-1.05-4.36-2.19-1.48-3.25,1.4-4.4,1.07-1.31-.37-.2-1.67-1.88-3.04-.8-.65-2.48-.7-3.47,.13C-.27,4.08-.06,5.85,.3,6.61c.6,1.25,2.37,1.48,2.76,2.06,.4,.59-2.87,2.21-.56,4.69,1.4,1.5,3.61-1.21,4.76,.1,.63,.72-2.11,3.26-.53,4.92,1.58,1.66,5-1.85,5.95-.57,.95,1.28-.35,3.26,1.24,4.39,1.18,.83,2,.51,3.44,1.67,.25,1.04,.37,1.93,.29,2.5-9.29,.71-12.57,5.26-12.72,11.5-.15,6.35,5.36,10.72,12.96,13.38,.54,.38,.47,1.05,.67,1.66,.3,.92,2.59,1.88,2.72,3.05,.08,.67-.91,1.28-1.19,2.03-.31,.81,.74,1.78,1.02,2.02-.21-.31-.7-.9-.27-1.93,.24-.58,1.42-1.43,1.41-1.85-.04-2.11-1.66-2.78-1.54-3.61,.14-.97,1.22-1.46,1.5-1.54,7.06-2.05,12.23-5.62,12.37-11.81,.15-6.53-2.34-11.96-12.16-12.85-.16-.45-.15-.98-.01-1.55,1.31-.75,1.97-.39,3.06-.95,1.52-.79,.67-2.7,1.65-3.7,.99-1,2.75,1.32,4.62,.58,2.15-.85,.86-3.45,2.01-3.73,1.08-.27,.6,1.72,1.98,1.65,1.35-.06,4.04-2.48,2.54-5.25ZM19.21,5.7s-.31,3.92-.48,6.88c-.09,1.57,.57,7.18,.57,7.18,0,0-1.42-4.67-1.62-7.07-.2-2.44,.45-6.55,1.52-6.98Zm-4.71,10.13c-2.69-3.11-7.05-4.62-7.05-4.62,1.49-.5,5.78,1.12,7.93,3.79,2.11,2.62,3.57,7.8,3.57,7.8,0,0-3.02-5.31-4.45-6.96Zm3.15,15.5c-1.24-.09-2.98-.22-3.51,1.02-.48,1.13,.77,2.74,1.11,4.26,.36,1.6,.31,4.71-2.66,4.84-2.98,.13-4.16-3.87-3.82-7.28,.31-3.15,3.46-4.62,5.37-4.62s2.54,.68,3.64,.8c1.24,.13,3.55-.36,3.55-.36-.49,.62-2.44,1.42-3.69,1.33Zm5.32-11.68c-1.19,1.37-2.83,5.82-2.83,5.82,0,0,.34-4.34,2.1-6.52,1.78-2.21,5.35-3.56,6.58-3.14,0,0-3.62,1.26-5.85,3.84Z"/></g></svg>