<?xml version="1.0" encoding="UTF-8"?><svg id="b" xmlns="http://www.w3.org/2000/svg" viewBox="0 0 41.07 60"><defs><style>.d{fill:#79819a;}</style></defs><g id="c"><path class="d" d="M19.35,39.96c-4.16-.37-7.9,3.43-8.35,8.49-.4,4.57,2.01,8.6,5.55,9.61,.38-.47,.95-.75,1.56-.7,.56,.05,1.04,.37,1.34,.84,3.44-.63,6.26-4.06,6.65-8.41,.45-5.06-2.57-9.46-6.74-9.83Zm-1.48,7.29c-.96,2.43-3.59,2.55-4.44,2.32-.85-.23,.91-8.33,3.92-6.99,1.06,.47,1.47,2.24,.51,4.67Zm4.44,7.34c-1.8,1.99-3.65,1.26-3.65,1.26,0,0,1.4-.71,2.39-1.81,.99-1.1,1.56-3.21,2-2.95,.45,.26,1.06,1.5-.74,3.49Zm-3.33,4.49c-.05,.56-.53,.97-1.07,.92-.54-.05-.94-.54-.89-1.1,.05-.56,.53-.97,1.07-.92,.54,.05,.94,.54,.9,1.1Zm7.8-22.21c-1.63,.81-2.77,2.24-3.37,3.98,.58,.35,1.11,.78,1.59,1.29,.15-1.1,.65-1.95,1.73-2.12,1.24-.2,2.13,1.08,2.52,3.68,.31,2.08-.72,3.5-1.78,4.13,.05,.56,.07,1.14,.03,1.72-.05,.91-.21,1.78-.46,2.6,2.05,1.61,4.55,2.25,6.81,1.63,.08-.6,.42-1.14,.96-1.41,.5-.25,1.08-.23,1.58,.01,2.6-2.34,3.23-6.74,1.28-10.65-2.26-4.55-7.14-6.73-10.89-4.86Zm10.17,10.93c-.5,2.64-2.46,2.98-2.46,2.98,0,0,.82-1.34,1.1-2.79,.27-1.45-.35-3.55,.17-3.56,.52-.01,1.69,.73,1.19,3.37Zm-.5,5.57c.25,.5,.05,1.1-.44,1.35-.49,.24-1.09,.03-1.34-.47-.25-.5-.05-1.1,.44-1.35,.49-.24,1.09-.03,1.34,.47Zm-22.83-12.02c.26-1.8-.2-3.57-1.42-4.83-2.35-2.44-6.66-2.1-9.62,.76-2.67,2.58-3.33,6.32-1.7,8.82,.48-.09,.98,.04,1.32,.4,.32,.33,.44,.78,.37,1.22,2.05,1.21,4.88,.98,7.24-.58,.61-2.49,2.02-4.54,3.8-5.79Zm-7.36,5.68c-2.16,.26-2.9-1.17-2.9-1.17,0,0,1.23,.31,2.42,.16,1.19-.14,2.66-1.13,2.79-.74,.13,.4-.15,1.48-2.31,1.74Zm1.39-6.62c-1.91,.94-3.71-.52-4.15-1.16-.44-.64,4.98-4.6,6.27-2.02,.45,.91-.2,2.24-2.12,3.17Zm-5.78,6.44c.31,.32,.29,.83-.03,1.15-.33,.31-.84,.31-1.15,0-.31-.32-.29-.83,.03-1.15,.33-.31,.84-.31,1.15,0Zm17.86-7.71c2.6-.72,4.55-3.55,4.55-6.94,0-3.93-2.62-7.11-5.86-7.11s-5.85,3.19-5.85,7.11c0,3.55,2.13,6.49,4.92,7.03,.26-.39,.68-.64,1.15-.64,.44,0,.82,.21,1.09,.55Zm-2.01-8.44c-.63,1.94-2.2,2.21-2.92,2.09-.73-.12,.15-6.48,2.77-5.65,.92,.29,.78,1.63,.16,3.56Zm1.25,6.68s1.03-.64,1.72-1.55c.69-.91,.98-2.58,1.34-2.41,.36,.17,.92,1.09-.33,2.74-1.25,1.66-2.73,1.22-2.73,1.22Zm-.32,1.46c.42,0,.76,.35,.76,.78-.53-.14-1.05-.09-1.53,0,0-.43,.34-.78,.76-.78Zm-3.51-13.46c.77-.64,1.68-1.06,2.67-1.18,.34-.14,.76-.34,1.13-.61,.79-.58,1.45-1.87,1.7-1.64,.25,.23,.48,1.12-.96,2.17-.08,.06-.16,.11-.23,.16,.45,.1,.88,.26,1.29,.47,.91-.79,1.64-1.9,2.04-3.22,.98-3.22-.38-6.49-3.03-7.29-2.65-.81-5.59,1.15-6.57,4.37-.84,2.75,.03,5.54,1.96,6.79Zm3.16-9.67c.68,.47,.74,1.68-.25,3.12-1,1.43-2.86,1.11-3.42,.82-.57-.28,1.73-5.27,3.68-3.94Zm5.82,6.5c-1.22,.7-2.04,1.85-2.42,3.22,.46,.24,.89,.55,1.28,.92,.07-.85,.41-1.54,1.24-1.72,.95-.21,2.02,.72,2.44,2.71,.33,1.59-.73,2.75-1.52,3.29,.07,.43,.1,.87,.1,1.33,0,.71-.09,1.39-.24,2.03,1.65,1.15,3.61,1.54,5.33,.96,.03-.47,.27-.89,.68-1.13,.38-.22,.82-.22,1.22-.06,1.91-1.92,2.19-5.34,.52-8.28-1.95-3.41-5.81-4.88-8.62-3.27Zm7.27,5.44c.4-.03,1.34,.49,1.07,2.55-.27,2.06-1.77,2.41-1.77,2.41,0,0,.58-1.07,.72-2.2,.15-1.13-.42-2.73-.02-2.76Zm.93,6.87c.21,.38,.09,.85-.28,1.06-.37,.21-.84,.07-1.05-.3-.21-.38-.09-.85,.28-1.06,.37-.21,.84-.07,1.05,.3Zm-26.69-2.68c.29,.21,.44,.53,.45,.88,1.72,.64,3.85,.08,5.43-1.43,.13-1.98,.92-3.73,2.1-4.93-.04-1.09-.4-2.1-1.07-2.87-.55-1.57-1.3-3.34-.98-4.87,.32-1.54,1-2.52,1.84-3.95l-.45-.38c-.66,1.02-1.47,2.33-1.93,4.47-.25,1.14-.07,2.48,.17,3.73-2.09-.94-4.85-.02-6.52,2.28-1.68,2.33-1.67,5.27-.09,6.95,.35-.13,.75-.1,1.06,.12Zm3.16-.14c-1.61,.49-2.37-.49-2.37-.49,0,0,.98,.07,1.86-.21,.88-.27,1.87-1.23,2.02-.94,.16,.28,.09,1.15-1.52,1.64Zm1.33-7.93c.47,.63,.15,1.73-1.18,2.71-1.33,.97-2.9,.11-3.32-.31-.42-.43,3.17-4.18,4.5-2.39Zm-4.7,8.4c.28,.2,.34,.59,.13,.88-.2,.28-.6,.35-.87,.15-.28-.2-.34-.59-.13-.88,.21-.28,.6-.35,.87-.15ZM23.26,11.71c2.11-.9,4.77,.57,5.94,3.3,.87,2.05,.63,4.38-.42,5.71-1.27-.27-2.74-.41-3.87,.23-.21,.12-.4,.25-.58,.39-.32-.15-.45-.2-.75-.42,.07-.17,.13-.35,.18-.53,.88-2.89-.31-5.7-2.43-6.86,.38-.77,1.16-1.48,1.93-1.82Zm11.5,16.5c.7-.5,1.71-.78,2.56-.72,2.29,.17,3.79,2.7,3.75,5.66-.03,2.21-1.99,5.54-3.55,6.24-.72-1.55-2.43-2.64-3.7-2.87-.22-.28-.43-.93-.6-1.27,.14-.12,.28-.25,.41-.39,1.61-1.79,1.87-4.53,1.13-6.66ZM18.36,4.12c-.61-1.87-.84-3.97-.85-4.12l.59,.05s.26,1.59,.64,2.99c.45-1.14,.92-1.97,.96-2.07l.46,.33s-.68,1.27-1.13,2.69c.05,.15,.11,.29,.16,.42,1.13,2.65,5.34,3.79,5.29,5.9-.48-.21-1.36,.02-1.36,.02-.4-1.18-3.31-2.93-4.37-5.21-.06,.31-.1,.62-.1,.92-.03,2.21,2.03,5.35,1.51,7.48-.65-.34-1.83-.31-1.83-.31,.77-2.14-.64-4.13-.43-6.92,.05-.73,.23-1.48,.45-2.18Z"/></g></svg>