<?xml version="1.0" encoding="UTF-8"?><svg id="b" xmlns="http://www.w3.org/2000/svg" viewBox="0 0 22.8 50"><defs><style>.d{fill:#827d64;}</style></defs><g id="c"><path class="d" d="M16.52,8.35v-3.67h1.28V0H4.96V4.68h1.32v3.67c0,1.57-6.28,9.38-6.28,11.24v28.59c0,1.15,1.43,1.83,1.43,1.83H21.48s1.32-.49,1.32-1.35V19.65c0-1.93-6.28-9.3-6.28-11.31ZM5.69,3.99V.65h11.41V3.99H5.69ZM21.8,46.5c0,.79-1.2,1.24-1.2,1.24H2.31s-1.31-.62-1.31-1.67V19.98c0-1,4.9-8.55,4.9-8.55,.78-1.27,1.33-2.29,1.33-2.72V4.63H15.45v4.09c0,.56,.6,1.68,1.43,3.02,0,0,4.91,7.23,4.91,8.31v26.45ZM1.98,20.88v23.64c0,.95,1.18,1.51,1.18,1.51H19.73s1.09-.41,1.09-1.12V20.94c0-.98-2.15-3.97-3.82-6.54H5.62c-1.62,2.55-3.64,5.56-3.64,6.48Zm3.37,22.47h-1.35V20.29h1.35v23.05Z"/></g></svg>