<?xml version="1.0" encoding="UTF-8"?><svg id="b" xmlns="http://www.w3.org/2000/svg" viewBox="0 0 50 40"><defs><style>.d{fill:#87b79a;}</style></defs><g id="c"><path class="d" d="M48.83,20.78c-2.57-6.66-7.91-10.57-17.55-6.15-3.42,1.56-8.13,7.96-11.28,11.39-4.12,4.49-7.54,6.98-6.08,10.75,1.37,3.57,5.03,2.93,10.44,3.05,4.69,.11,12.37,.69,16.22-1.07,9.64-4.42,10.82-11.31,8.25-17.97Zm-9.95,16.64c-3.28,1.5-9.81,1-13.8,.91-4.6-.1-7.71,.44-8.88-2.6-1.24-3.22,1.67-5.33,5.18-9.15,2.68-2.92,6.53-8.29,9.6-9.69,8.2-3.76,12.75-.43,14.93,5.24,2.19,5.67,1.18,11.54-7.02,15.29Zm-5.6-15c-1.56,.71-7.35,5.98-6.47,8.25,.88,2.28,8.27,1.5,9.93,.74,3.59-1.65,4.03-4.22,3.08-6.7-.96-2.48-2.95-3.94-6.54-2.29Zm2.62,7.5c-1.38,.55-6.06,.5-6.21,.1-.29-.74,5.11-1.43,5.73-1.69,.6-.25,1.74-.91,2.02-.23,.34,.83-.7,1.49-1.53,1.82Zm-22.63,.49C4.97,30.05,1.24,24.79,.24,17.94-.97,9.71,2.22,2.3,14.54,.16c4.92-.86,13.65,2.05,19.05,3.53,6.22,1.72,10.62,2.07,11.26,6.48,.16,1.11,.03,2.06-.36,2.91-3.06-2.92-7.62-3.76-14.16-.76-3.42,1.56-8.13,7.96-11.28,11.39-2.5,2.73-4.74,4.71-5.79,6.7Z"/></g></svg>