<?xml version="1.0" encoding="UTF-8"?><svg id="b" xmlns="http://www.w3.org/2000/svg" viewBox="0 0 30.07 50"><defs><style>.d{fill:#72b4ba;}</style></defs><g id="c"><path class="d" d="M30.07,31.28c0-8.24-9.69-9.36-11.89-17.62-.48-1.8,.58-8.85,1.27-12.1-1.55-.04-2.7,3.82-2.7,3.82,0,0-.68-4.51-1.4-5.38-.72,1.03-1.31,5.34-1.31,5.34,0,0-1.96-3.98-3.36-3.78,1.39,4.56,2.14,10.16,1.61,11.85C9.83,21.27,0,22.39,0,31.28c0,3.93,2.32,9.96,11.59,11.27-.27,.22-.53,.48-.75,.8-1.47,2.2-1.11,5.12-.65,5.18,.46,.06-.14-2.29,1.07-4.12,.22-.33,.62-.83,1.03-1.32,.11,.3,.37,.51,.67,.51,.27,0,.5-.17,.62-.42,.13,.25,.36,.42,.62,.42s.5-.17,.62-.42c.13,.25,.36,.42,.62,.42,.19,0,.37-.09,.5-.23,.33,.78,.75,1.82,.91,2.38,.59,2.11-.71,4.17-.26,4.25,.45,.09,1.69-2.58,.97-5.13-.14-.51-.4-.94-.69-1.3,.13-.04,.24-.12,.33-.23,.06,.05,.12,.1,.17,.14,1.67,1.42,1.75,3.84,2.18,3.66,.34-.15,.11-2.01-1.02-3.63,.54,.21,1.06,.42,1.38,.58,1.95,1,2.59,3.34,2.95,3.07,.37-.27-.75-3-3.11-4.19-.36-.18-.74-.29-1.1-.34,0,0,0,0,0,0,0,0,0,0,0,0,10.09-1.06,11.4-7.29,11.4-11.36Zm-18.68,3.82c-.07,1.37,.18,4.31,1.17,5.97-2.22-2.03-3.57-5.36-3.14-7.26,.49-2.17,4.06-8.06,4.06-8.06,0,0-1.97,6.96-2.09,9.36Zm-.12-10.47c-1.64,2-4.06,3.82-4.31,7.08-.25,3.26,1.23,5.79,4.19,9.23-6.96-3.69-8.59-8.63-7.76-11.27,.8-2.52,3.4-5,5.48-6.22,2.52-1.48,5.23-8.19,5.23-8.19,0,0-.55,6.59-2.83,9.36Zm6.1-5.87s1.79,5.54,4.25,7.96c1.88,1.85,3.8,3.06,4.12,5.73,.44,3.65-1.04,7.39-6.85,9.23,3.19-2.22,5.36-5.59,5.16-8.21-.2-2.62-1.52-4.21-2.91-5.75-2.97-3.27-3.77-8.97-3.77-8.97Z"/></g></svg>