<?xml version="1.0" encoding="UTF-8"?><svg id="b" xmlns="http://www.w3.org/2000/svg" viewBox="0 0 44.3 50"><defs><style>.d{fill:#97aa77;}</style></defs><g id="c"><path class="d" d="M17.1,11.75V6.88l2.69-.06c0-.95-.77-1.71-1.71-1.71H8.7c-.95,0-1.71,.77-1.71,1.71l2.69,.06v4.9c-1.23,.32-6.62,1.9-7.11,5.47L0,47.73c0,1.25,1.02,2.27,2.27,2.27H24.51c1.25,0,2.27-1.02,2.27-2.27l-2.42-30.48c-.46-3.73-6.25-5.26-7.26-5.5Zm-2.95,32.62V25.6h6.74l1.51,18.77H14.14Zm29.24-4.39c-1.2-2.22-3.18-3.51-4.55-3.05-.16-.27-.34-.64-.5-1.12-.22-.67-.32-1.53-.27-1.89,0,0,0,0,0,0,0,0,0-.02,0-.02,.01-.08,.03-.13,.05-.14-.02-.03-.1-.02-.19-.02-.05-.05-.09-.11-.11-.15-.01,0-.03,.02-.06,.05-.07-.15-.06-.36-.08-.43-.11-.46-1.19-1.83-3.66-1.54-2.47,.29-3.07,1.14-3.26,1.38-.03,.25,.47,1.75,2.89,1.95,2.78,.23,3.26-1.03,3.73-1.07,.03,0,.07,0,.11,0-.36,.41-.93,1.1-1.22,1.57-.19,.31-.61,1.13-.83,1.55-.07,.13-.13,.25-.19,.37-.03-.01-.05-.02-.08-.03-2.01-.7-4.61,1.52-5.82,4.97-1.21,3.45-.56,6.81,1.45,7.52,2.01,.7,4.61-1.52,5.82-4.97,1.13-3.24,.63-6.4-1.09-7.36,.13-.41,.33-.93,.67-1.53,.46-.82,1.22-1.69,1.63-1.99,.04,.4,.14,1.08,.26,1.49,.07,.26,.32,.89,.43,1.22,.04,.1,.07,.2,.11,.29-.02,0-.04,.02-.05,.03-1.38,.75-1.46,3.27-.17,5.64,1.28,2.37,3.44,3.68,4.82,2.94,1.38-.75,1.46-3.27,.17-5.64Zm-12.86,2.86c-.46-.19-.17-1.43,.19-2.23,.46-1.03,1.89-1.98,2.39-1.95,.5,.03-.84,.72-.91,1.85-.11,1.93-1.21,2.53-1.67,2.34Zm5.22,2.43c-.15,1.17-.71,2.19-1.33,2.84-.88,.92-2.55,1.92-3.63,1,1.19,.26,2.5-.42,3.38-1.35,.79-.83,1.11-1.4,1.59-2.49Zm3.5-2.99c-.33,.16-.86-.62-1.12-1.21-.34-.76-.14-2.01,.12-2.27,.26-.26-.02,.81,.56,1.41,1,1.02,.78,1.91,.45,2.07Zm3.54,2.97c.73-.52,1.01-1.57,.94-2.51-.06-.85-.21-1.3-.57-2.1,.56,.66,.84,1.47,.89,2.13,.06,.94-.22,2.34-1.25,2.48ZM9.96,3.12l-.59-1.87c0-.69,.95-1.25,2.12-1.25h3.71c1.17,0,2.12,.56,2.12,1.25l-.59,1.87c-.59,1.26-.95,1.25-2.12,1.25h-2.53c-1.17,0-1.52-.02-2.12-1.25Z"/></g></svg>