<?xml version="1.0" encoding="UTF-8"?><svg id="b" xmlns="http://www.w3.org/2000/svg" viewBox="0 0 50 44.69"><defs><style>.d{fill:#ac6e8b;}</style></defs><g id="c"><path class="d" d="M26.21,34.34c-.45,4-1.17,6.38-1.9,7.91-.91,1.91-3.47,2.77-6.4,2.32-2.33-.36-4.04-3.41-4.17-5.72-.19-3.37,2.01-6.27,2.51-8.24,.83-3.32-1.24-8.52,1.54-10.45,.93-.64,3.79-.66,4.7-.04,2.81,1.91,4.43,7.97,3.73,14.22Zm-14.62-15.47C4.48,20.73,.07,21.45,0,18.34-.14,11.95,7.85,.6,19.53,.02c11.67-.58,22.07,9.21,22.39,15.59,.21,4.18-4.64,4.27-10.95,3.71-3.32-.3-6.83-1.29-10.44-1.44-3.17-.13-6.39,.33-8.93,.99ZM17.78,3.07c-.02-.34-4.03,.24-7.24,2.85-3.21,2.61-5.58,4.99-5.82,8.07-.1,1.3,.84,2.68,1.96,2.86,.97,.16,3.88,.24,4.8-.96,1.19-1.54-.58-4.79-.12-6.77,.83-3.56,6.42-5.71,6.4-6.05Zm23.64,30c-.44-.3-1.8-.31-2.23-.02-1.33,.9-2.1,3.78-1.77,6.73,.21,1.89,.56,3.02,.9,3.75,.43,.9,1.65,1.31,3.04,1.1,1.11-.17,1.92-1.62,1.98-2.71,.09-1.6-.95-2.97-1.19-3.9-.39-1.57,.59-4.03-.73-4.95Zm8.58-.55c-.03,1.47-2.12,1.13-5.49,.25-1.21-.31-2.73-.53-4.24-.47-1.71,.07-3.38,.54-4.95,.68-2.99,.27-5.29,.23-5.19-1.76,.15-3.02,5.07-7.66,10.61-7.39,5.54,.27,9.32,5.65,9.25,8.68Zm-11.26-7.23c0-.19-1.87,.22-3.43,1.35-1.59,1.14-2.74,2.3-2.85,3.76-.05,.62,.08,1.42,1.02,1.42,.9,0,1.85-2.15,2.22-3.66,.42-1.68,3.04-2.68,3.04-2.87Z"/></g></svg>