<?xml version="1.0" encoding="UTF-8"?><svg id="b" xmlns="http://www.w3.org/2000/svg" viewBox="0 0 50 43.48"><defs><style>.d{fill:#838db8;}</style></defs><g id="c"><path class="d" d="M38.36,22.94c-.14,.12-.27,.23-.41,.34-.48-2.19-1.47-7.09-2.83-8.98-1.26-1.74-4.85-3.87-6.6-4.97-1.8-1.12-3.33-3.69-3.33-3.69,.25-.84,.64-2.19,1.59-2.31,.56-.19-2.85-2.78-3.41-3.32-.24-.11,.34,4.04-1.33,4.66-.97,.36-4.45,3.37-6.12,6.88-1.68,3.52-3.21,9.11-3.79,11.8-.17-.12-.33-.26-.49-.4C7.62,19.33,.17,22.16,0,29.71c-.14,6.33,3.21,12.24,9.73,13.54,6.53,1.31,11.82-3.24,13.99-9.75,2-6-2.98-10.48-7.29-9.47-.28,.07-.55,.11-.81,.15,.58-2.39-.26-5.16,1.56-9.82,1.78-4.55,4.48-7.06,6.34-8.07,.27,.52,2.05,3.33,4.3,4.76,1.97,1.25,4.7,2.4,5.95,4.91,1.07,2.14,.99,5.56,1.29,8.28-.46-.01-.96-.08-1.51-.21-4.3-1.01-9.29,3.47-7.29,9.47,2.17,6.51,7.46,11.06,13.99,9.75,6.53-1.31,9.87-7.21,9.73-13.54-.17-7.55-7.61-10.38-11.63-6.77Zm-30.73,2.77c-.69,.33-2.1,1.44-2.63,2.75-.95,2.34-.08,4.8-1.11,5-.25,.05-2.54-.95-1.01-5.9,.49-1.57,3.74-5.5,6.2-2.74,.36,.4-.4,.4-1.46,.9Zm24.85,2.13c-.56,.52-1.57,2-1.69,3.41-.21,2.52,1.36,4.6,.43,5.1-.23,.12-2.65-.62-2.73-5.33-.03-1.64,1.92-6.37,5.1-4.47,.46,.28-.26,.5-1.12,1.3Z"/></g></svg>