<?xml version="1.0" encoding="UTF-8"?><svg id="b" xmlns="http://www.w3.org/2000/svg" viewBox="0 0 60 27.73"><defs><style>.d{fill:#6e7fa0;}</style></defs><g id="c"><path class="d" d="M54.63,7.86c.04,.4-5.26,2.14-10.49,3.21,1.1-1.3,2.27-2.66,3.41-3.79,2.23-.13,6.98-.46,7.07,.59ZM10.01,12.88c.17-.05-.64-1.02-.62-1.78,.01-.3,.7-.5,.73-.79,.03-.3-1-1-.93-1.38,.05-.3,1.49-1.44,1.2-2.38-.09-.3-1.26,.07-1.27-.45,0-.32,.46-1.25,.06-1.95,.32-.89,.99-1.51,2.36-1.55,2.84-.09,5.51,.85,7.72,.84,2.21-.01,9.49,.76,11.01,.98,1.18,.17,3,.69,4.97,1.24-.31,.18-.6,.36-.88,.54-2.62,1.67-8.25,4.52-11.65,6.13-2.17,.19-3.96,.39-4.61,.51-1.68,.31-5.33,1.32-6.91,1.03-.49-.09-.9-.45-1.22-.99,0,0,.02,0,.03,0Zm3.09-6.55c.8,.5,1.88-1.23,4.94-.68,.38,.07,6.63,.28,9.27,.61,.57,.07,5.33,1.25,5.37,.56,.01-.2-4.43-1.06-5.65-1.35-.77-.18-7.03-.78-8.17-.79-1.13-.02-5.34-.7-5.77-.56-.6,.2-.85,1.69,0,2.21Zm-3.71,3.99c.03-.3-1.03-1.03-.96-1.41,.05-.3,1.46-1.49,1.24-2.02-.12-.29-1.26,.1-1.27-.42,0-.33,.47-1.65,.04-2.34-1.11,.76-.63,3.24-1.59,3.59-.68,.25-1.68,0-3.21,.52S.91,9.36,.43,10.4C-.05,11.44-.08,13.04,.1,13.15c1,.21,.89-.48,2.02-.47-.18-.14-.61-.98-.45-1.44,.4-1.11,2.07-1.74,3.48-1.75,.58,0,1.81,.07,2.2,.93,.76,1.68,1.43,2.53,1.92,2.46,.17-.05-.64-1.02-.62-1.78,.01-.3,.7-.5,.73-.79Zm10.08,13.97c-.14-.62-2.14-.93-2.38-1.18-.3-.32,.18-1.64-.03-1.9-.22-.26-.95-.04-1.15-.32-.5-.7-.39-2.09-.57-2.04-.48,.22-.54,1.43-.16,3.46,.2,1.04-.37,1.62-.89,1.96-1.26,.82-1.46-.26-2.52-1.07-.44-.34-.07,1.82-1.24,2.2,1.08,.7,2.64,1.27,3.83,1.02,1.19-.25,1.31-1.09,2.07-1.25,1.07-.23,2.21,2.39,3.68,2.46-.05-.91-1.31-1.87-1.52-2.19-.32-.5,.94-.8,.86-1.15ZM60,.79c-.6,2.15-6.42,.54-7.84,1.5-1.84,1.24-3.73,2.19-4.19,2.53-2.93,2.2-6.47,7.73-8.58,9.65-1.21,1.1-7.21,6.12-9.19,7.41-1.98,1.29-3.77,3.75-6.35,5.34-1.25,.77-2.23,.58-3.08-.08-.08-.89-1.09-1.5-1.29-1.81-.32-.5,.95-.84,.84-1.18-.33-1.06-2.34-1.29-2.57-1.54-.3-.32,.17-1.59-.04-1.85-.22-.26-.95-.04-1.15-.32-.5-.7-.39-2.09-.57-2.04,0,0-.02,0-.03,.01-.05-.69,.08-1.28,.46-1.65,1.23-1.2,5.12-2.39,6.81-3.09,1.69-.7,10.46-5.36,13.89-7.72C40.66,3.53,46.95,.49,52,.02c1.9-.18,5.48,1.03,8,.77Zm-22.56,6.61c-.48-.63-3.76,2.29-5.05,3.08-3.15,1.92-5.46,3.77-6.85,4.64-2.83,1.75-5.51,2.17-5.92,3.11-.43,1,.72,2.27,1.38,2.1,.48-.12,4.15-2.58,5.15-3.27s5.54-5.03,6.11-5.65c.9-.99,5.32-3.83,5.18-4.01Zm8.41-4.3c-.17-.16-2.17,.48-2.78,.88-.61,.4-1.78,1.1-1.6,1.45,.2,.41,4.56-2.17,4.39-2.33Z"/></g></svg>