<?xml version="1.0" encoding="UTF-8"?><svg id="b" xmlns="http://www.w3.org/2000/svg" viewBox="0 0 35.99 50"><defs><style>.d{fill:#8f6887;}</style></defs><g id="c"><path class="d" d="M18.84,8.98c-.59-2.52-.8-9.39-1.16-8.96-.36,.43-1.43,.79-2.13,1.02,0,0,1.99,6.75,1.52,7.9-10.17-6.73-12.87,0-17.07,.17,2.48,4.58,7.65,1.22,9.08,2.52-1.91,.95-.39,5.38-2.24,7.9,2.24,.06,3.27-4.15,4.82-6.17,1.06-1.37,3.95-1.94,4.95-1.96-.71,.5-1.27,.97-1.77,1.73-.49,.76-1.31,4.56,.88,9.93,.25-3.32,2.69-4.17,3.45-6.7,.67-2.24,.04-4.92,.04-4.92,0,0,2.81-.22,4.81,3.37,.95,1.7,.83,8.05,4.85,7.43-1.68-1.76,3.46-7.25-3.31-10.95,.89-.99,8.24,1.35,10.43-2.02-3.36,.17-7.74-5.89-17.15-.29Zm-13.01,.07c1.79-2.03,6.6-1.73,8.24,.17-2.13,1.79-5.3-1.34-8.24-.17Zm10.63,8.79c-.95-2.84-1.01-4.85,1.25-5.94,.55,1.99-1.61,2.8-1.25,5.94Zm11.84-5.83c5.84,3.66,.34,10.69,2.02,12.45-6.39,.29-6.94-5.66-7.48-7.53-.71-2.44-2.02-3.07-2.02-3.07,0,0,.13,2.3-.55,4.54-.76,2.53-3.74,2.99-3.78,7.27-4.33-3.36-3.69-10.42-3.2-11.18-.18,.05-1.47,1.56-2.31,3.15-1.19,2.25-1.89,3.66-6.77,3.62,2.9-2.99,1.26-7.69,3.37-8.73-3.88,.49-6.64,2.37-7.02,6.19C-.06,25.05,6.65,36.29,9.25,41.42c1.05,2.07,4.77,8.58,8.86,8.58s6.95-6.12,8.24-8.58c3.6-6.84,8.32-18.05,7.68-22.7-.56-4.06-2.45-6.21-5.73-6.71ZM11.16,41.67c-.44,0-1.63-1.43-1.63-2.51s.73-1.4,1.63-1.4,1.63,.32,1.63,1.4-1.18,2.51-1.63,2.51Zm5.12-10.1c1.02,0,1.85,.37,1.85,1.6s-1.35,2.86-1.85,2.86-1.85-1.63-1.85-2.86,.83-1.6,1.85-1.6Zm.67,16.78c-.45,0-1.65-1.45-1.65-2.54s.74-1.42,1.65-1.42,1.65,.33,1.65,1.42-1.2,2.54-1.65,2.54Zm4.81-6.18c-.5,0-1.85-1.63-1.85-2.86s.83-1.6,1.85-1.6,1.85,.37,1.85,1.6-1.35,2.86-1.85,2.86Zm.28-11.65c-.5,0-1.85-1.63-1.85-2.86s.83-1.6,1.85-1.6,1.85,.37,1.85,1.6-1.34,2.86-1.85,2.86Zm5.47,4.24c-.46,0-1.68-1.48-1.68-2.6s.75-1.45,1.68-1.45,1.68,.33,1.68,1.45-1.22,2.6-1.68,2.6Z"/></g></svg>