<?xml version="1.0" encoding="UTF-8"?><svg id="b" xmlns="http://www.w3.org/2000/svg" viewBox="0 0 44.75 50"><defs><style>.d{fill:#80bb73;}</style></defs><g id="c"><path class="d" d="M34.62,42.14c3.61-6.46,3.98-16.86,3.02-21.25-1.29-5.85-10.35-1.88-13.98-1.88s-13.43-4.03-15.6,1.88c-2.1,5.72,1.4,16.32,3.86,21.25,1.28,2.56,2.92,5.86,6.25,6.59,2.77,.6,5.73-.57,6.88-.48,.94,.07,1.77,1.1,3.26,.97,2.78-.25,4.59-3.98,6.31-7.07ZM14.54,29.82c-1.54,.22-3.33-.99-3.82-2.45-.61-1.83-.41-5.32,.71-6.54,1.12-1.23,3.74,0,3.74,0-1.83,.14-1.87,1.4-1.78,2.23,.21,2.09,2.57,2.27,3.03,3.23,.81,1.7-.29,3.32-1.87,3.54Zm8.1-5.99c-.32,.73-1.39,1.14-2.21,.91-1.04-.29-2.63-1.43-2.9-2.28-.27-.85,1.18-.38,1.59-.17,1.05,.54,1.78-.42,2.36-.33,1.03,.16,1.49,1.13,1.16,1.88Zm-5.32,25.15s.02,0,.03,0c-1.52,.56-3.47,1.23-5.24,.89-3.45-.67-5.27-4.18-6.68-6.9C2.72,37.73-1.7,26.25,.68,20.13c1.92-4.96,6.63-4.25,10.64-3.29-2.44,.26-4.55,1.23-5.39,3.8-1.96,5.97,2.02,16.77,4.72,21.77,1.41,2.59,3.22,5.94,6.67,6.57Zm21.23-5.77c-2.19,3.1-4.56,6.87-7.44,6.78-.43-.01-.98-.2-1.57-.46,2.76-.36,4.65-4.07,6.45-7.15,3.85-6.59,4.43-17.31,3.51-21.85-.53-2.63-2.78-3.53-5.46-3.71,4.47-.91,9.6-1.48,10.55,3.89,.85,4.8-1.44,16.01-6.03,22.49ZM14.43,4.41c.03-2.3-1.47-2.08-1-4.11,.25-.37,3.71-.57,5.95,.43,2.24,1,3.53,3.75,4.65,6.86,1.12,3.11,.83,5.15,1.36,6.53,.74,1.95,4.76,1.01,4.51,1.88-.25,.87-4.59,1.59-7,1.48-3.46-.15-7.34-1.9-6.1-1.77,1.24,.12,4.48-2.21,4.48-5.08s-1.34-6.25-3.74-7.1c-1-.35-2.81,.51-3.11,.87Z"/></g></svg>