<?xml version="1.0" encoding="UTF-8"?><svg id="b" xmlns="http://www.w3.org/2000/svg" viewBox="0 0 36.76 60"><defs><style>.d{fill:#6b759c;}</style></defs><g id="c"><path class="d" d="M14.08,17.15V3.25h.72V0H5.65V3.25h.69v13.9c0,2.82-6.34,2.88-6.34,10.1v31.61c0,.72,.5,1.14,1.12,1.14H19.44c.79,0,1.12-.7,1.12-1.26V27.25c0-7.4-6.47-7.4-6.47-10.1ZM7.62,5.03c0-.51,.21-.79,.75-.79h3.79c.51,0,.78,.33,.78,.84V13.62c0,.51-.19,1.06-.78,1.06h-3.79c-.62,0-.75-.7-.75-1.27V5.03Zm10.28,49.95c0,.92-.41,1.94-1.64,1.94H4.54c-1.16,0-1.88-.95-1.88-2.22V28.65c0-.88,.43-1.39,1.28-1.39h1.62c.36-1.39,2.33-2.46,4.71-2.46s4.36,1.07,4.71,2.46h1.63c.72,0,1.28,.5,1.28,1.35v26.37Zm16.33,4.25s-2.42-.53-2.42-.57c0-.42-.43-1.04-.79-1.26,.01-.04,.02-.08,.02-.12,0-.11-.04-.22-.12-.31v-9.1c.22-.27,.26-1.04,.26-1.5,.32-.15,.54-.39,.59-.65,3-1.58,4.99-4.29,4.99-9.83,0-3.15-.68-6.68-1.46-9.23h-10.33c-.69,2.76-1.41,5.99-1.41,9.23,0,5.54,1.95,8.58,4.87,9.86,.06,.25,.27,.47,.56,.61,.02,.48,.08,1.26,.3,1.51v9.09c-.08,.09-.13,.2-.13,.32,0,.04,0,.09,.02,.13-.36,.22-.77,.83-.77,1.24,0,.04-2.44,.59-2.44,.59,0,0-1.52,.17-1.52,.76h11.3c0-.68-1.53-.76-1.53-.76Zm-9.56-21.25c-.52-4.04,.79-9.3,1.13-10.55h8.71c.33,1.25,1.71,6.8,1.18,10.5-.47,3.3-2.97,6.63-5.55,6.63s-5.05-3.36-5.47-6.59Zm9.91,.05c-.24,2.69-2.54,5.3-4.44,5.3s-4.03-2.65-4.37-5.27c-.15-1.15-.06-2.47-.06-2.47h8.89s.07,1.46-.02,2.44Zm-19.13-4.43v5.36c0,3.06-.84,4.73-3.48,4.73h-3.48c-2.65,0-3.38-1.67-3.38-4.73v-5.36c0-3.06,.73-4.41,3.38-4.41h3.48c2.65,0,3.48,1.35,3.48,4.41Z"/></g></svg>