<?xml version="1.0" encoding="UTF-8"?><svg id="b" xmlns="http://www.w3.org/2000/svg" viewBox="0 0 60 33.51"><defs><style>.d{fill:#838778;}</style></defs><g id="c"><path class="d" d="M56.18,12.48c-.46-.98-1.04-6.35-3.41-7.89-4.26-2.75-9.77-3.28-14.88-.86-5.91,2.8-9.33,8.71-9.17,14.76,.05,2.08,1.78,3.54,2.72,5.53,.83,1.76,.71,3.92,2.05,5.19,4.58,4.35,11.63,5.65,17.78,2.73,5.33-2.53,8.4-7.53,8.73-12.9,.16-2.63-3.35-5.59-3.82-6.57Zm-8.52,16.57c-4.75,2.25-10.23,1.08-13.56-2.53-.75-.82-.71-2.08-1.21-3.14-.58-1.23-1.61-2.18-1.73-3.46-.43-4.68,2.11-9.39,6.68-11.56,5.24-2.49,11.88-2.04,14.06,3.28,.75,1.76-2.22,3.48-2.81,3.46-2.73-.09-6.33-1.82-10.06-.05-2.83,1.34-3.56,7.13-3.56,7.13,0,0,4.03,3.27,7.67,1.54,3.08-1.46,4.47-5.53,6.34-7.72,.49-.58,3.67-2.1,4.6-.33,2.93,5.43-.93,10.76-6.42,13.37Zm-8.47-11.49s1.58-1.12,3.09-1.28c.98-.11,3.95,.71,3.95,.71-1.73,0-2.55,1.6-3.49,1.01-1.17-.73-3.55-.43-3.55-.43Zm2.86,1.38c-.68-.04-.97,.62-1.34,.36-.47-.33-1.4-.25-1.4-.25,0,0,.6-.44,1.18-.48,.38-.03,1.55,.37,1.55,.37Zm-13.56,5.08c.17,.36,.3,.74,.41,1.12-1.93,1.76-4.33,2.8-6.93,2.8-1.66,0-4.66-1.19-4.66-1.19,0,0-1.56,.73-2.43,.93-6.2,1.46-12.66-3.44-14.43-10.95C-1.32,9.23,2.28,1.96,8.48,.5c1.52-.36,4.52-.93,4.52,.02S4.68,4.29,6.08,12.53c.42,2.45,2.81,6.33,6.03,6.33,5.12,0-.5-5.63-.6-9.24C11.42,6.29,13.12,.02,21.97,.02c3.92,0,7.38,2.36,9.46,5.97-3.73,3.14-5.79,7.78-5.67,12.51,.05,2.08,1.78,3.54,2.72,5.53Z"/></g></svg>