<?xml version="1.0" encoding="UTF-8"?><svg id="b" xmlns="http://www.w3.org/2000/svg" viewBox="0 0 50 53.2"><defs><style>.d{fill:#777273;}</style></defs><g id="c"><path class="d" d="M50,12.8l-.25-.71c-.75,1.41-2.28,.72-2.81,1.56-.77-.76-2.74,.04-4.42,1.42-.98,.8-2.99,.94-3.58,.79-.86-.23-1.54-1.14-1.54-1.14,0,0-.16,1.24,.12,1.98-4.83-1.45-9.53,1.2-12.86-2.5-.4-.44-.73-.92-1.02-1.43h.02s-.04-.04-.06-.06c-.74-1.33-1.08-2.85-.97-4.41,.16-2.17,1.17-4.17,2.86-5.61,1.33-1.14,3.02-1.71,4.77-1.61s3.35,.86,4.5,2.14c1.86,2.07,1.63,5.25-.51,7.1-.81,.69-1.84,1.04-2.91,.98-1.07-.06-2.04-.53-2.75-1.31-1.12-1.25-.98-3.16,.31-4.27,.48-.41,1.09-.62,1.72-.58,.63,.04,1.21,.31,1.62,.77,.65,.72,.57,1.82-.18,2.46-.55,.47-1.39,.42-1.86-.11-.17-.19-.25-.42-.23-.67,.02-.25,.13-.47,.32-.64l-.71-.79c-.41,.35-.66,.84-.7,1.37-.04,.53,.14,1.04,.49,1.44,.87,.97,2.39,1.06,3.4,.2,1.2-1.03,1.33-2.81,.29-3.96-.61-.67-1.45-1.07-2.37-1.13-.92-.05-1.81,.25-2.51,.85-1.21,1.03-1.67,2.59-1.34,4.01,.15,.63,.45,1.24,.92,1.76,.89,.99,2.13,1.58,3.49,1.66,1.36,.08,2.67-.36,3.7-1.25,2.6-2.23,2.88-6.09,.62-8.6-2.77-3.08-7.61-3.36-10.8-.62-1.9,1.63-3.05,3.88-3.23,6.34-.8-1.72-2.12-3.43-5.17-4.39-1.07-.34-2.14-.49-3.16-.34-.6,.08-1.19,.26-1.73,.53-1.46,.71-2.46,1.99-2.83,3.59-.61,2.68,.65,5.25,3.49,6.25,2.31,.81,4.6-.31,5.1-2.49,.2-.86-.09-2-.64-2.81-.71-1.03-1.96-1.38-2.62-1.38-.6,0-1.06,.64-.16,.69,.77,.04,1.7,.35,2.15,1,.45,.63,.7,1.57,.54,2.25-.41,1.8-2.3,2.73-4.21,2.05-1-.35-1.65-.82-2.3-1.9-.65-1.08-.87-2.29-.62-3.4,.32-1.42,1.21-2.54,2.5-3.17,1.29-.63,2.8-.63,4.32-.16,4.7,1.46,4.92,5.22,5.81,7.32,.39,1.11,.99,2.14,1.8,3.04,3.93,4.38,9.04,1.06,15.23,3.05-2.14,.54-4.31,.43-8.41,.41-7.07-.03-15.73,2.08-22.09,8.23-14.61,14.15-6.14,26.62-6.14,26.62,0,0,2.27-4.44,5.59-5.7,1.96-.75,8.72-4.6,15.24-9.29,7.94-5.71,12.56-11.54,14-14.43,.61-1.23,1.81-2.19,2.83-3.61-.02,.24-.03,.48,0,.71,.1,.68,1.52,2.06,1.52,2.06,0,0-.28-.93,.2-1.97,.56-1.22,2.01-2.49,2.76-2.87,1.81-.91,3.14-2.53,2.82-3.73,.59-.61,2.07-.56,2.6-1.58ZM19.08,29.16s.04,.06,.07,.09c0,0-.02,.01-.03,.02-.01-.04-.03-.07-.04-.11Zm7.79-4.67c-.19-1.18,.56-2.3,1.68-2.51,.95-.18,1.85,.36,2.23,1.24-1.26,.48-2.53,1.01-3.82,1.61-.04-.11-.07-.22-.09-.34Zm6.95-2.35c-.49,.16-.99,.33-1.49,.51-.04-.79,.47-1.5,1.23-1.64,.62-.12,1.22,.19,1.53,.72-.39,.13-.8,.26-1.27,.41Zm-14.13,6.74c-.39-.55-.62-1.22-.59-1.96,.07-1.7,1.43-3.02,3.05-2.95,1.19,.05,2.19,.84,2.6,1.94-1.69,.87-3.39,1.86-5.06,2.97Zm-6.48,5.11c-.2,.19-.38,.37-.57,.56-1-.61-1.65-1.76-1.6-3.05,.08-1.88,1.59-3.34,3.37-3.27,1.38,.06,2.51,1.02,2.93,2.31-1.4,1.05-2.79,2.19-4.13,3.45Zm-5.87,6.47c-1.29-.33-2.22-1.58-2.16-3.03,.07-1.66,1.4-2.95,2.98-2.89,1.18,.05,2.17,.84,2.56,1.94-1.32,1.4-2.44,2.73-3.38,3.98Zm-3.7,6.33c-.83-.44-1.39-1.36-1.35-2.4,.06-1.42,1.2-2.54,2.56-2.48,.44,.02,.84,.17,1.19,.39-1.09,1.66-1.86,3.17-2.41,4.49ZM35.99,21.43c-.35-1.02-1.35-1.65-2.4-1.46-1.1,.2-1.85,1.24-1.78,2.38-.54-1.28-1.85-2.06-3.23-1.8-1.63,.3-2.72,1.93-2.44,3.64,.02,.1,.05,.19,.08,.29-.66-1.42-2.01-2.43-3.62-2.49-2.34-.1-4.32,1.82-4.42,4.28-.02,.59,.07,1.16,.25,1.68-.82-1.11-2.08-1.85-3.52-1.91-2.59-.11-4.78,2.01-4.89,4.73-.04,.88,.15,1.71,.51,2.44-.57-.35-1.22-.58-1.93-.61-2.29-.09-4.22,1.78-4.32,4.18-.06,1.42,.55,2.7,1.53,3.54-.19-.04-.37-.08-.57-.08-1.97-.08-3.63,1.53-3.71,3.59-.06,1.5,.73,2.82,1.92,3.46-.76,1.99-1,3.53-1.05,4.54-.49-1.76-1.66-6.45-1.16-9.37,.74-4.32,3.26-9.97,8.76-14.89,7.21-6.46,17.76-7.14,20.85-7.57,3.12-.43,5.61,.62,8.73-.74-1.42,1.2-2.4,1.72-3.59,2.16Zm10.72-5.96c-.12,.49-.79,1.4-1.55,1.77-1.12,.54-1.6,.78-2.1,1.07-.52,.3-1.56,1.3-1.78,1.73-.32,.63-.33,.93-.33,.93,0,0-.21-.67,.05-1.35,.26-.67,.49-1.21,1.69-2.09,1.21-.87,2.56-1.44,3.45-2.33,.29-.29,.51-.89,.64-.84,.13,.05,.03,.66-.07,1.11Z"/></g></svg>