<?xml version="1.0" encoding="UTF-8"?><svg id="b" xmlns="http://www.w3.org/2000/svg" viewBox="0 0 40 50"><defs><style>.d{fill:#a484b5;}</style></defs><g id="c"><path class="d" d="M23.98,34.24c.89,.74,1.63,2.16,2.87,1.74,.21-.07-1.02-1.34-.56-2.16,.21-.38,1.49-.67,2.41-.35,.92,.32,2.54,.92,2.93-.01-.69-.35-1.22-1.32-2.26-2.07-1.06-.76-2.77-.88-3-1.14-.74-.82,.68-1.5,.49-1.79-.66-1.07-2.27,1-2.81,1.09-.54,.09-2.04-.48-4.87,.81-1.12,.51-1.38-2.97-1.01-4.57,.31-1.37,1.2-2.31,1.55-2.44,.8-.28,1.83,.59,2.58,.05,.33-.23-.88-.88-.28-1.4,.22-.19,1.66,1.52,2.29,.62,.14-.19-.82-.9-.09-1.68,.3-.32,2.48,1.78,2.81,.46,.07-.28-1.44-1.26-1.4-2.21,.05-1.02,2.1-1.24,2.8-3.59-.54-.24-.79-.53-1.81-.25-1.07,.28-2.06,1.35-2.2,1.35-.76,0-.57-2.04-.71-2.08-.96-.29-1.02,2.48-1.19,2.61-.68,.5-.75-2.09-1.14-1.92-.91,.4-.42,3.11-.59,3.15-.6,.16-.51-1.27-.66-1.15-.66,.5-.91,2.89-1.57,3.15-.66,.26-1.22-.52-1.39-.91-.17-.41-.31-1.45,.74-2.3,.5-.4,1.4-1.95,1.13-2.33-.25-.34-1.29-.25-1.37-.79-.15-1.02,.85-1.8,1.15-1.99,.33-.21,.52-.24,.86-.18,.34,.06,1.03-.38,1.07-.6,.04-.21-.9-.32-.95-.73-.05-.41,2.67-2.66,2.19-3.52-.48-.87-2.75,2.14-2.98,2.23-.22,.1-.18-1.84-.37-1.69-.19,.15-.47,1.83-.64,1.86-.16,.03-.25-.85-.33-.83-.08,.01-.21,.18-.16,.56,.05,.38-.79,2.43-1.47,2.59-.6,.13-.93-.42-.96-1.1-.05-.93,1.81-2.03,1.97-2.21,.17-.18,.07-.82-.36-.96-.69-.21-1.65,.95-1.86,1.28-.21,.33-.98,.48-1.2,.03-.22-.45,.23-1.27,.46-1.69,.48-.87,.55-3.06,.34-3.26-.21-.2-.47,1.03-.74,.9-.27-.13,.14-1.55-.28-1.97-.13-.13-.57,.72-.64,.32-.07-.4,.33-.94,.25-1.59-.06-.52-.52-1.5-.78-1.58h0s-.01,0-.02,0c0,0-.01,0-.02,0h0c-.23,.16-.45,1.25-.4,1.78,.07,.64,.57,1.04,.59,1.45,.02,.41-.59-.27-.68-.1-.31,.54,.4,1.78,.17,1.99-.23,.21-.75-.89-.91-.63-.16,.26,.39,2.34,1.05,3.03,.31,.33,.93,.98,.81,1.48-.11,.5-.88,.61-1.16,.35-.28-.25-1.46-1.07-2.08-.65-.39,.26-.33,.92-.13,1.04,.2,.12,2.24,.59,2.4,1.5,.11,.67-.08,1.31-.69,1.37-.7,.07-1.96-1.65-2-2.03-.04-.38-.2-.5-.28-.49-.08,.01,.03,.88-.14,.91-.17,.03-.81-1.51-1.03-1.59-.22-.09,.25,1.77,.02,1.74-.23-.02-3.09-2.2-3.37-1.21-.27,.99,2.85,2.3,2.9,2.7,.04,.41-.84,.81-.76,1,.08,.19,.84,.41,1.16,.24,.32-.17,.51-.2,.87-.1,.33,.09,1.47,.52,1.55,1.56,.04,.55-.99,.79-1.15,1.2-.18,.45,1.04,1.66,1.61,1.89,1.2,.48,1.3,1.53,1.22,1.98-.07,.43-.44,1.36-1.14,1.32-.7-.04-1.47-2.27-2.22-2.54-.18-.06,.23,1.29-.38,1.32-.17,.01-.31-2.76-1.27-2.85-.41-.04,.09,2.48-.68,2.21-.2-.07-.87-2.73-1.73-2.14-.13,.09,.5,2-.23,2.23-.13,.04-1.33-.67-2.42-.61-1.05,.06-1.23,.42-1.69,.82,1.2,2.04,3.23,1.61,3.5,2.58,.25,.91-.99,2.33-.86,2.58,.61,1.17,2.25-1.54,2.6-1.33,.88,.52,.11,1.5,.28,1.65,.81,.67,1.83-1.43,2.08-1.32,.69,.32-.32,1.32,.04,1.44,.84,.28,1.65-.89,2.48-.87,.37,0,1.43,.63,2.04,1.86,.71,1.42,1.23,4.86,.04,4.73-3.02-.35-4.34,.68-4.88,.76-.54,.08-2.54-1.4-2.95-.16-.11,.34,1.41,.55,.87,1.57-.17,.32-1.78,.98-2.64,2.05-.84,1.05-1.13,2.15-1.72,2.71,.59,.78,2.01-.31,2.83-.91,.82-.6,2.12-.72,2.41-.42,.62,.65-.28,2.26-.06,2.26,1.29,.02,1.69-1.59,2.38-2.58,.7-.99,2.36-2.94,4.78-1.26,1.24,.86,2.08,5.33,2.2,6.91,.12,1.58,1.22,6.85,2.39,6.66,1.17-.19,.92-5.6,.69-7.16-.23-1.56-.41-6.13,.59-7.36,1.96-2.38,3.99-1.03,4.88-.29Zm-6.39,12.71c-.2,.03-1.77-11.06-1.77-11.06,0,0-.68-1.34-2.08-2.05-.98-.5-2.11-.57-3.42-.26-.9,.22-1.7,1.05-3.43,1.25,1.21-.45,2.42-1.49,3.42-1.88,1.1-.42,2.2-.38,3.33,.05,1.42,.54,2.14,1.75,2.14,1.75,0,0-1.1-10.28-1.45-14.4-.14-1.63,.13-3.93,.68-5.15,.47-1.05,1.68-2.56,1.69-2.39,0,.16-1.01,1.68-1.44,2.77-.43,1.09-.67,3.52-.52,4.79,.58,4.78,3.03,26.55,2.84,26.58Zm20.07-13.81c-.24,.6,.38,1.69,.28,1.85-.47,.75-1.2-1.27-1.44-1.15-.57,.28-.2,1.03-.32,1.11-.55,.39-.96-1.15-1.12-1.1-.45,.16,.07,.94-.16,.99-.53,.11-.91-.76-1.41-.82-.22-.03-.92,.31-1.4,1.1-.56,.92-1.19,3.24-.46,3.25,1.85,.03,2.55,.86,2.86,.96,.32,.1,1.66-.74,1.79,.15,.04,.25-.9,.25-.67,1.01,.07,.24,.98,.84,1.39,1.65,.41,.8,.48,1.59,.78,2.02-.43,.48-1.18-.4-1.61-.88-.44-.49-1.2-.69-1.41-.51-.43,.39-.04,1.58-.17,1.57-.78-.1-.86-1.25-1.19-2-.33-.75-1.14-2.24-2.75-1.3-.83,.48-1.75,3.48-1.97,4.56-.22,1.08-1.3,4.64-1.98,4.4-.69-.23-.11-3.97,.17-5.02,.28-1.06,.82-4.19,.33-5.12-.96-1.81-2.31-1.07-2.91-.64-.6,.43-1.18,1.34-1.88,.94-.12-.07,.74-.83,.54-1.44-.09-.28-.83-.6-1.41-.46-.58,.13-1.61,.41-1.76-.27,.45-.18,.85-.8,1.55-1.22,.71-.42,1.74-.36,1.9-.52,.52-.49-.27-1.09-.13-1.28,.5-.68,1.32,1.24,1.64,1.35,.31,.11,1.27-.15,2.85,1,.63,.45,1.06-2.21,.99-3.34,.64,.06,1.44,.66,2.24,.47,.8-.18,1.2-.6,1.4-1.09-.72-.36-1.26-1.4-2.34-2.21-1.46-1.1-2.9-.9-3.12-1.2-.57-.74,.89-1.22,.59-1.74-.6-1.05-2.17-.27-2.93,.62,.15-.18,.14-.53,.16-.74,.07-.71-.92-.58-1.12-2.26,.35-.12,.52-.29,1.11-.01,.62,.29,1.11,1.12,1.2,1.13,.45,.07,.54-1.35,.62-1.37,.6-.12,.38,1.8,.47,1.91,.36,.41,.65-1.37,.86-1.22,.51,.35-.03,2.18,.06,2.23,.34,.16,.42-.83,.51-.74,.35,.4,.28,2.07,.65,2.31,.37,.24,.67-.11,.81-.36,.14-.27,.32-.97-.23-1.65-.27-.32-.66-1.47-.47-1.71,.18-.21,.8-.06,.9-.42,.19-.69-.35-1.32-.51-1.48-.18-.18-.29-.21-.5-.2-.21,0-.58-.36-.59-.51,0-.15,.57-.14,.64-.41,.07-.28-1.36-2.07-.99-2.62,.37-.55,1.46,1.72,1.58,1.81,.12,.09,.28-1.25,.38-1.13,.1,.12,.11,1.31,.21,1.34,.1,.03,.23-.56,.28-.54,.05,.02,.11,.15,.05,.4-.06,.26,.25,1.75,.65,1.92,.35,.15,.6-.21,.68-.67,.12-.64-.9-1.56-.98-1.7-.08-.14,.03-.57,.3-.63,.43-.08,.9,.8,1,1.05,.1,.25,.54,.42,.72,.13,.17-.29-.02-.9-.12-1.2-.21-.64-.05-2.16,.1-2.27,.15-.12,.18,.75,.36,.69,.17-.07,.06-1.08,.35-1.33,.09-.08,.27,.55,.35,.28,.08-.27-.11-.68,0-1.12,.09-.35,.45-.99,.61-1.02h0s0,0,.01,0c0,0,0,0,.01,0h0c.13,.13,.16,.9,.07,1.26-.1,.44-.44,.66-.49,.95-.05,.28,.38-.13,.42-.01,.14,.4-.4,1.19-.29,1.35,.12,.17,.53-.55,.6-.35,.07,.19-.45,1.58-.91,2-.22,.2-.65,.59-.63,.95,.02,.36,.47,.5,.67,.35,.19-.15,.98-.6,1.31-.26,.21,.22,.11,.66-.02,.73-.13,.06-1.4,.21-1.58,.82-.13,.45-.07,.91,.29,1,.41,.11,1.33-.96,1.39-1.22,.06-.26,.17-.33,.22-.31,.05,.02-.1,.61,0,.64,.1,.03,.63-.96,.77-1,.14-.04-.31,1.2-.17,1.2,.14,0,2.06-1.24,2.14-.53,.07,.71-1.93,1.33-1.99,1.6-.06,.28,.43,.63,.36,.76-.07,.13-.54,.2-.72,.06-.18-.14-.29-.19-.52-.15-.2,.03-.93,.23-1.08,.93-.08,.37,.52,.64,.58,.93,.07,.32-.78,1.05-1.14,1.15-.77,.22-.92,.94-.92,1.25,0,.31,.14,.98,.56,1.01,.42,.03,1.09-1.43,1.57-1.55,.11-.03-.26,.87,.11,.95,.1,.02,.44-1.87,1.03-1.85,.25,0-.29,1.7,.2,1.58,.13-.03,.78-1.8,1.24-1.32,.07,.07-.49,1.33-.07,1.56,.08,.04,.86-.34,1.51-.2,.62,.14,.7,.4,.94,.72-.91,1.3-2.09,.82-2.34,1.46Z"/></g></svg>