<?xml version="1.0" encoding="UTF-8"?><svg id="b" xmlns="http://www.w3.org/2000/svg" viewBox="0 0 42.19 50"><defs><style>.d{fill:#a2a36f;}</style></defs><g id="c"><path class="d" d="M38.62,8.56c.02-2.34,3.06-5.45,.51-7.87-2.55-2.42-7.57,2.28-9.09,2.29-1.52,0-15.62-2.23-23.97,10.25C-.42,22.93-2.37,33.54,3.53,42.88c.48,.76-.97,5.97,.4,6.93,1.33,.92,6-1.84,7.1-1.64,8.93,1.59,22.56-3.52,27.99-13.55,7.38-13.65-.41-23.73-.39-26.06ZM7.37,23.58c-1.29-.43-.7-6.83,7.18-13.43,6.11-5.12,14.39-4.99,15.99-4.99s6.08-3.57,6.78-3.01c.87,.71-3.99,5.08-5.56,4.92-2.85-.3-8.47,.82-14.63,5.66-8.11,6.36-7.18,11.71-9.76,10.85Zm16.88,19.98c-.69,0-1.25-.65-1.25-1.46s.56-1.46,1.25-1.46,1.26,.65,1.26,1.46-.56,1.46-1.26,1.46Zm3-4.61c-.69,0-1.25-.65-1.25-1.46s.56-1.46,1.25-1.46,1.26,.65,1.26,1.46-.56,1.46-1.26,1.46Zm.97-5.95c-.69,0-1.25-.65-1.25-1.46s.56-1.46,1.25-1.46,1.25,.65,1.25,1.46-.56,1.46-1.25,1.46Zm2.06-7.28c0-.8,.56-1.46,1.25-1.46s1.26,.65,1.26,1.46-.56,1.46-1.26,1.46-1.25-.65-1.25-1.46Zm1.86,11.5c-.69,0-1.26-.65-1.26-1.46s.56-1.46,1.26-1.46,1.26,.65,1.26,1.46-.56,1.46-1.26,1.46Zm1.4-5.23c-.69,0-1.25-.65-1.25-1.46s.56-1.46,1.25-1.46,1.25,.65,1.25,1.46-.56,1.46-1.25,1.46Zm1.41-9.53c0-.8,.56-1.46,1.25-1.46s1.26,.65,1.26,1.46-.56,1.46-1.26,1.46-1.25-.65-1.25-1.46Zm2.21,6.31c-.69,0-1.25-.65-1.25-1.46s.56-1.46,1.25-1.46,1.25,.65,1.25,1.46-.56,1.46-1.25,1.46Z"/></g></svg>