<?xml version="1.0" encoding="UTF-8"?><svg id="b" xmlns="http://www.w3.org/2000/svg" viewBox="0 0 50 50"><defs><style>.d{fill:#705d8f;}</style></defs><g id="c"><path class="d" d="M39.05,49.9c-4.12,.57-8.14-1.26-11.08-4.6,2.03-2.37,3.4-5.48,3.95-8.97,1.03-6.52-.79-12.52-4.27-15.41,.2-.44,.78-.7,1.21-.68,2.19,.14,2.67-1.23,3.74-2.33,.38-.39,1.05-.39,1.69-.47,7.24-1.01,14.18,5.44,15.5,14.41,1.32,8.97-3.49,17.06-10.74,18.07ZM17.58,18.15s1.03-.19,2.21,.04c1.05,.21,1.71,.5,1.71,.5,.73-1.09-.69-3.08,.67-5.62,.73-1.37,2.05-2.9,3.17-4.11,.32,1.55,.88,3.57,1.4,4.85,.75,1.86,1.83,5.25,2.56,5.33,.73,.08,1.93-.42,1.85-1.39-.07-.97-1.41-2.07-2.63-4.67-1.14-2.43-1.18-5.29-1.26-6.1,.05-.06,.1-.11,.11-.13,.1-.18-.91-.97-1.26-.97-.5,0-4.29,4.02-5.53,6.08-1.04,1.72-2.92,5.53-3,6.18Zm11.68,19.28c-2.22,8.37-9.08,14.02-17.7,11.84C2.94,47.1-.96,40.16,.2,31.77c1.17-8.39,6.75-14.75,12.47-14.2,1.4,.13,2.67,.67,3.79,1.52-4.08,1.92-7.48,7.1-8.36,13.44-.1,.74-.1,1.56-.02,2.4,.15-.89,.34-1.79,.58-2.7,2.23-8.42,8.66-14.09,14.35-12.65,5.69,1.44,8.49,9.43,6.25,17.85Zm-9.2-15.39s-2.93,.2-4.69,2.64c-2.81,3.9-1.97,6.42-1.76,6.43,.88,.03,1.64-2.66,2.86-4.65,1.71-2.78,3.59-4.42,3.59-4.42Zm-3.8-9.73c2.15,.37,4.13-1.33,4.13-1.33,0,0-4.05-1.02-4.33-4.69-.12-1.59-1.73-2.28-1.73-2.28,0,0,3.23,.73,3.72,2.96,.26,1.19,3.08,3.32,3.08,3.32,0,0,1.65-4.85-.32-6.93C18.83,1.28,14.05,1.65,11.06,.02c-.75-.41-1.97,5.74-.58,8.28,1.39,2.55,3.72,3.65,5.78,4Z"/></g></svg>