<?xml version="1.0" encoding="UTF-8"?><svg id="b" xmlns="http://www.w3.org/2000/svg" viewBox="0 0 50 60"><defs><style>.d{fill:#a8bca6;}</style></defs><g id="c"><path class="d" d="M23.56,39.96c-5.07-.37-9.62,3.43-10.16,8.49-.49,4.57,2.45,8.6,6.75,9.61,.46-.47,1.15-.75,1.89-.7,.68,.05,1.26,.37,1.63,.84,4.18-.63,7.63-4.06,8.1-8.41,.55-5.06-3.13-9.46-8.2-9.83Zm-1.8,7.29c-1.17,2.43-4.37,2.55-5.4,2.32-1.04-.23,1.11-8.33,4.78-6.99,1.29,.47,1.8,2.24,.62,4.67Zm5.41,7.34c-2.19,1.99-4.45,1.26-4.45,1.26,0,0,1.7-.71,2.91-1.81,1.21-1.1,1.9-3.21,2.44-2.95,.54,.26,1.29,1.5-.9,3.49Zm-4.06,4.49c-.06,.56-.65,.97-1.31,.92-.66-.05-1.15-.54-1.09-1.1,.06-.56,.65-.97,1.31-.92,.66,.05,1.15,.54,1.09,1.1Zm9.49-22.21c-1.98,.81-3.37,2.24-4.1,3.98,.7,.35,1.35,.78,1.93,1.29,.18-1.1,.79-1.95,2.1-2.12,1.51-.2,2.6,1.08,3.07,3.68,.38,2.08-.87,3.5-2.17,4.13,.07,.56,.08,1.14,.04,1.72-.06,.91-.26,1.78-.56,2.6,2.5,1.61,5.54,2.25,8.29,1.63,.09-.6,.51-1.14,1.17-1.41,.61-.25,1.32-.23,1.92,.01,3.17-2.34,3.93-6.74,1.56-10.65-2.75-4.55-8.69-6.73-13.25-4.86Zm12.38,10.93c-.61,2.64-3,2.98-3,2.98,0,0,1-1.34,1.33-2.79,.33-1.45-.42-3.55,.21-3.56,.63-.01,2.06,.73,1.45,3.37Zm-.61,5.57c.3,.5,.07,1.1-.53,1.35-.6,.24-1.32,.03-1.63-.47-.3-.5-.07-1.1,.53-1.35,.6-.24,1.32-.03,1.63,.47Zm-27.79-12.02c.31-1.8-.24-3.57-1.73-4.83-2.87-2.44-8.11-2.1-11.71,.76C-.11,39.84-.91,43.59,1.07,46.08c.59-.09,1.19,.04,1.61,.4,.39,.33,.53,.78,.46,1.22,2.49,1.21,5.94,.98,8.81-.58,.74-2.49,2.46-4.54,4.63-5.79Zm-8.96,5.68c-2.63,.26-3.53-1.17-3.53-1.17,0,0,1.5,.31,2.94,.16,1.45-.14,3.23-1.13,3.4-.74,.16,.4-.18,1.48-2.81,1.74Zm1.69-6.62c-2.33,.94-4.52-.52-5.05-1.16-.54-.64,6.07-4.6,7.63-2.02,.55,.91-.25,2.24-2.58,3.17Zm-7.03,6.44c.37,.32,.36,.83-.04,1.15-.4,.31-1.02,.31-1.39,0-.37-.32-.36-.83,.04-1.15,.4-.31,1.02-.31,1.4,0Zm21.75-7.71c3.17-.72,5.54-3.55,5.54-6.94,0-3.93-3.19-7.11-7.13-7.11s-7.12,3.19-7.12,7.11c0,3.55,2.6,6.49,5.99,7.03,.32-.39,.83-.64,1.4-.64,.53,0,1,.21,1.32,.55Zm-2.45-8.44c-.76,1.94-2.67,2.21-3.56,2.09-.89-.12,.18-6.48,3.37-5.65,1.12,.29,.95,1.63,.19,3.56Zm1.53,6.68s1.25-.64,2.09-1.55c.84-.91,1.19-2.58,1.64-2.41,.44,.17,1.12,1.09-.41,2.74-1.52,1.66-3.32,1.22-3.32,1.22Zm-.39,1.46c.51,0,.93,.35,.93,.78-.65-.14-1.28-.09-1.86,0,0-.43,.42-.78,.93-.78Zm-4.27-13.46c.94-.64,2.05-1.06,3.25-1.18,.41-.14,.92-.34,1.38-.61,.96-.58,1.76-1.87,2.07-1.64,.31,.23,.59,1.12-1.16,2.17-.1,.06-.19,.11-.29,.16,.55,.1,1.07,.26,1.57,.47,1.11-.79,2-1.9,2.49-3.22,1.19-3.22-.46-6.49-3.69-7.29-3.23-.81-6.8,1.15-8,4.37-1.02,2.75,.04,5.54,2.38,6.79Zm3.85-9.67c.83,.47,.91,1.68-.31,3.12-1.21,1.43-3.48,1.11-4.17,.82-.69-.28,2.11-5.27,4.47-3.94Zm7.09,6.5c-1.48,.7-2.48,1.85-2.95,3.22,.56,.24,1.08,.55,1.56,.92,.08-.85,.5-1.54,1.51-1.72,1.15-.21,2.46,.72,2.97,2.71,.4,1.59-.88,2.75-1.85,3.29,.08,.43,.12,.87,.12,1.33,0,.71-.1,1.39-.3,2.03,2.01,1.15,4.4,1.54,6.49,.96,.04-.47,.33-.89,.83-1.13,.46-.22,1-.22,1.48-.06,2.32-1.92,2.67-5.34,.63-8.28-2.37-3.41-7.07-4.88-10.49-3.27Zm8.85,5.44c.49-.03,1.63,.49,1.3,2.55-.33,2.06-2.15,2.41-2.15,2.41,0,0,.7-1.07,.88-2.2,.18-1.13-.52-2.73-.03-2.76Zm1.13,6.87c.26,.38,.11,.85-.34,1.06-.45,.21-1.02,.07-1.28-.3-.26-.38-.11-.85,.34-1.06,.45-.21,1.02-.07,1.28,.3ZM6.85,31.84c.35,.21,.54,.53,.55,.88,2.1,.64,4.68,.08,6.61-1.43,.15-1.98,1.12-3.73,2.56-4.93-.05-1.09-.49-2.1-1.31-2.87-.67-1.57-1.58-3.34-1.19-4.87,.39-1.54,1.22-2.52,2.23-3.95l-.55-.38c-.8,1.02-1.79,2.33-2.35,4.47-.3,1.14-.08,2.48,.21,3.73-2.54-.94-5.91-.02-7.94,2.28-2.04,2.33-2.03,5.27-.11,6.95,.43-.13,.91-.1,1.29,.12Zm3.84-.14c-1.96,.49-2.88-.49-2.88-.49,0,0,1.19,.07,2.27-.21,1.08-.27,2.27-1.23,2.46-.94,.19,.28,.11,1.15-1.85,1.64Zm1.63-7.93c.57,.63,.18,1.73-1.44,2.71-1.62,.97-3.53,.11-4.04-.31-.51-.43,3.85-4.18,5.47-2.39Zm-5.72,8.4c.34,.2,.41,.59,.16,.88-.25,.28-.73,.35-1.06,.15-.34-.2-.41-.59-.16-.88,.25-.28,.73-.35,1.06-.15ZM28.32,11.71c2.57-.9,5.81,.57,7.23,3.3,1.06,2.05,.77,4.38-.52,5.71-1.55-.27-3.33-.41-4.71,.23-.25,.12-.49,.25-.71,.39-.4-.15-.55-.2-.91-.42,.08-.17,.16-.35,.23-.53,1.07-2.89-.37-5.7-2.96-6.86,.47-.77,1.41-1.48,2.35-1.82Zm14,16.5c.85-.5,2.09-.78,3.11-.72,2.79,.17,4.62,2.7,4.57,5.66-.04,2.21-2.43,5.54-4.32,6.24-.88-1.55-2.96-2.64-4.5-2.87-.27-.28-.53-.93-.73-1.27,.17-.12,.34-.25,.5-.39,1.96-1.79,2.27-4.53,1.37-6.66ZM22.35,4.12c-.75-1.87-1.02-3.97-1.03-4.12l.72,.05s.32,1.59,.78,2.99c.55-1.14,1.12-1.97,1.17-2.07l.56,.33s-.83,1.27-1.38,2.69c.06,.15,.13,.29,.2,.42,1.38,2.65,6.5,3.79,6.44,5.9-.59-.21-1.66,.02-1.66,.02-.49-1.18-4.03-2.93-5.32-5.21-.07,.31-.12,.62-.12,.92-.04,2.21,2.47,5.35,1.84,7.48-.8-.34-2.22-.31-2.22-.31,.94-2.14-.77-4.13-.52-6.92,.07-.73,.28-1.48,.55-2.18Z"/></g></svg>