<?xml version="1.0" encoding="UTF-8"?><svg id="b" xmlns="http://www.w3.org/2000/svg" viewBox="0 0 50 36.69"><defs><style>.d{fill:#b4aba1;}</style></defs><g id="c"><path class="d" d="M48.83,19.06c-2.57-6.11-7.91-9.7-17.55-5.64-3.42,1.44-8.13,7.31-11.28,10.45-4.12,4.12-7.54,6.4-6.08,9.86,1.37,3.27,5.03,2.69,10.44,2.8,4.69,.1,12.37,.63,16.22-.98,9.64-4.05,10.82-10.38,8.25-16.49Zm-9.95,15.26c-3.28,1.38-9.81,.92-13.8,.84-4.6-.09-7.71,.4-8.88-2.38-1.24-2.95,1.67-4.89,5.18-8.39,2.68-2.68,6.53-7.61,9.6-8.89,8.2-3.45,12.75-.4,14.93,4.8,2.19,5.2,1.18,10.58-7.02,14.03Zm-5.6-13.76c-1.56,.65-7.35,5.48-6.47,7.57,.88,2.09,8.27,1.38,9.93,.68,3.59-1.51,4.03-3.87,3.08-6.14-.96-2.28-2.95-3.61-6.54-2.1Zm2.62,6.88c-1.38,.5-6.06,.46-6.21,.09-.29-.68,5.11-1.31,5.73-1.55,.6-.23,1.74-.83,2.02-.21,.34,.76-.7,1.37-1.53,1.67Zm-22.63,.45C4.97,27.57,1.24,22.74,.24,16.46-.97,8.9,2.22,2.11,14.54,.14c4.92-.79,13.65,1.88,19.05,3.24,6.22,1.57,10.62,1.9,11.26,5.94,.16,1.02,.03,1.89-.36,2.67-3.06-2.68-7.62-3.45-14.16-.7-3.42,1.43-8.13,7.3-11.28,10.45-2.5,2.5-4.74,4.32-5.79,6.14Z"/></g></svg>