<?xml version="1.0" encoding="UTF-8"?><svg id="b" xmlns="http://www.w3.org/2000/svg" viewBox="0 0 50 47.74"><defs><style>.d{fill:#6e71aa;}</style></defs><g id="c"><path class="d" d="M50,20.28v17.99c0,.81-.57,1.47-1.27,1.47h-9.81v-3.99h6.42c.7,0,1.27-.73,1.27-1.64v-9.68c0-.9-.57-1.64-1.27-1.64h-6.42v-3.99h9.81c.7,0,1.27,.66,1.27,1.47ZM15.85,13.54c1.72,0,3.28-.64,4.48-1.69,1.19,1.05,2.76,1.69,4.47,1.69,1.41,0,2.72-.43,3.8-1.17,.83,.73,1.93,1.17,3.12,1.17,2.62,0,4.75-2.13,4.75-4.76s-2.13-4.76-4.75-4.76c-.24,0-.49,.02-.72,.05-1.04-2.4-3.43-4.08-6.2-4.08-1.71,0-3.27,.64-4.47,1.69-1.19-1.05-2.76-1.69-4.48-1.69-2.92,0-5.4,1.85-6.36,4.43-.26-.04-.53-.07-.81-.07-2.47,0-4.5,1.88-4.73,4.29-.01,.05-.02,.11-.02,.16v15.86c-2.24,.39-3.94,2.34-3.94,4.68,0,2.63,2.13,4.76,4.76,4.76,2.38,0,4.36-1.75,4.7-4.04,.05-.18,.07-.38,.07-.58V13.8c1.01-.18,1.91-.68,2.59-1.38,1.07,.71,2.35,1.12,3.74,1.12Zm-4.41,1.51h26.56v29.85c0,1.56-.8,2.84-2.29,2.84H14.07c-1.71,0-2.62-1.78-2.62-3.06V15.05Zm19.29,26.46c0,1,.81,1.81,1.8,1.81s1.8-.81,1.8-1.81V21.45c0-1-.81-1.81-1.8-1.81s-1.8,.81-1.8,1.81v20.05Zm-7.65,0c0,1,.81,1.81,1.8,1.81s1.8-.81,1.8-1.81V21.45c0-1-.81-1.81-1.8-1.81s-1.8,.81-1.8,1.81v20.05Zm-7.67,0c0,1,.81,1.81,1.81,1.81s1.81-.81,1.81-1.81V21.45c0-1-.81-1.81-1.81-1.81s-1.81,.81-1.81,1.81v20.05Z"/></g></svg>