<?xml version="1.0" encoding="UTF-8"?><svg id="b" xmlns="http://www.w3.org/2000/svg" viewBox="0 0 24 24"><defs><style>.d{fill:#72b4ba;}</style></defs><g id="c"><g><path class="d" d="M3.48,20.49s-.02-.03-.04-.04l-1.71,1.7h0s-.28-6.53-.28-6.53l6.56,.28h0s-1.81,1.81-1.81,1.81c.01,.01,.02,.02,.04,.04,3.18,3.17,8.34,3.17,11.52,0,1.43-1.43,2.22-3.26,2.36-5.13l3.89,.16c-.18,2.81-1.35,5.56-3.5,7.71-4.7,4.69-12.32,4.69-17.03,0Z"/><path class="d" d="M17.71,6.22c-3.18-3.13-8.31-3.12-11.48,.04-1.4,1.4-2.18,3.17-2.35,5l-3.88-.35c.25-2.69,1.41-5.32,3.48-7.39,4.69-4.67,12.28-4.69,16.98-.04l1.7-1.7,.27,6.46-6.48-.28,1.75-1.75Z"/></g></g></svg>